<mxfile host="app.diagrams.net" modified="2021-10-08T07:06:34.580Z" agent="5.0 (X11; Linux x86_64) AppleWebKit/537.36 (KHTML, like Gecko) Chrome/94.0.4606.71 Safari/537.36" etag="KhPAl9E2xE4qe4R2YlWT" version="15.4.1" type="github" pages="2">
  <diagram id="_s1WQ0si9J8NiPh9zYvT" name="Page-1">
    <mxGraphModel dx="1274" dy="704" grid="1" gridSize="10" guides="1" tooltips="1" connect="1" arrows="1" fold="1" page="1" pageScale="1" pageWidth="827" pageHeight="1169" math="0" shadow="0">
      <root>
        <mxCell id="0" />
        <mxCell id="1" parent="0" />
        <mxCell id="VZW0ZGeBwQPSfhAvFJRS-9" value="" style="endArrow=classic;html=1;dashed=1;strokeWidth=3;" parent="1" edge="1">
          <mxGeometry width="50" height="50" relative="1" as="geometry">
            <mxPoint x="430" y="360" as="sourcePoint" />
            <mxPoint x="430.17739285415905" y="360.9100000000001" as="targetPoint" />
          </mxGeometry>
        </mxCell>
        <mxCell id="QOX_BqD7f4eXZDv9Mhv9-1" value="" style="shape=image;verticalLabelPosition=bottom;labelBackgroundColor=#ffffff;verticalAlign=top;aspect=fixed;imageAspect=0;image=data:image/png,iVBORw0KGgoAAAANSUhEUgAABZYAAAMWCAYAAABiDtPlAAAAOXRFWHRTb2Z0d2FyZQBNYXRwbG90bGliIHZlcnNpb24zLjQuMiwgaHR0cHM6Ly9tYXRwbG90bGliLm9yZy8rg+JYAAAACXBIWXMAAFxGAABcRgEUlENBAACxYUlEQVR4nOzdeXyU9b3+/2sSVhUyCSTuSmbABRdgkrgrSCbYqm1VsmhV4JxKoj0953uOlARoba1WIaC2p+f8WhO0B3CFBLR1NwHBXUkm4IILzCSouCQhmYQdkty/P2hSIgkkd+7JPZO8no8Hj8Lt3J/PO007hiufXLfDMAxDAAAAAAAAAAB0UZTdAwAAAAAAAAAAIgvBMgAAAAAAAACgWwiWAQAAAAAAAADdQrAMAAAAAAAAAOgWgmUAAAAAAAAAQLcQLAMAAAAAAAAAuoVgGQAAAAAAAADQLQTLAAAAAAAAAIBuIVgGAAAAAAAAAHQLwTIAAAAAAAAAoFsIlgEAAAAAAAAA3UKwDAAAAAAAAADoFoJlAAAAAAAAAEC3ECwDAAAAAAAAALqFYBkAAAAAAAAA0C0EywAAAAAAAACAbiFYBgAAAAAAAAB0C8EyAAAAAAAAAKBbCJYBAAAAAAAAAN1CsAwAAAAAAAAA6BaCZQAAAAAAAABAtxAsAwAAAAAAAAC6hWAZAAAAAAAAANAtBMsAAAAAAAAAgG4hWAYAAAAAAAAAdAvBMgAAAAAAAACgWwbYPQCAvq+pqUmbN29udy0uLk5RUXxvCwAAAAAAwIyWlhbV1dW1uzZmzBgNGNA7kS/BMoCQ27x5s8aOHWv3GAAAAAAAAH3apk2bdPbZZ/fKXhwXBAAAAAAAAAB0C8EyAAAAAAAAAKBbCJYBAAAAAAAAAN1CxzKAkIuLizvs2qZNmzRy5MiQ7FdbW3tYp3Mo90P38PkJb3x+whefm/DG5ye88fkJb3x+whufn/DG5ye88fkJb33h89PRx9BRBhMqBMsAQi4q6vAfjhg5cqTi4+N7bYbe3g/dw+cnvPH5CV98bsIbn5/wxucnvPH5CW98fsIbn5/wxucnvPWFz09HGUzI9uq1nQAAAAAAAAAAfQLBMgAAAAAAAACgWwiWAQAAAAAAAADdQrAMAAAAAAAAAOgWgmUAAAAAAAAAQLcQLAMAAAAAAAAAuoVgGQAAAAAAAADQLQTLAAAAAAAAAIBuIVgGAAAAAAAAAHTLALsHAAD0L/Hx8TIMw+4x0Ak+P+GLzw1gHv//CW98fsIbnx/APP7/E974/PQcJ5YBAAAAAAAAAN1CsAwAAAAAAAAA6BaCZQAAAAAAAABAtxAsAwAAAAAAAAC6hWAZAAAAAAAAQL/U3NJi9wgRa4DdAwDon2pra7v82vj4+BBOAgAAAAAA+ptd+5q08G8f6Z3Pa/TyPK+iohx2j9ROTU3NUV/TnWwlFAiWAdhi7NixXX6tYRghnAQAAAAAAPQXhmHob+u/1Nwnffqqbrckaek6v/7lytE2T9ZeQkKC3SMcFcEyAAAAAAAAgD5v8zeNmv1YmVZ/9G27679dsUE/Tj5VI4YNtmmyyETHMgAAAAAAAIA+a9e+Jv2uaKMunPfiYaGyJNXv2q/fFW+0YbLIRrAMAAAAAAAAoM9prb1IznteDzz3sQ40d/6gviVrt6jMb29ncaShCgOALTZt2qSRI0faPQYAAAAAAOiDtnzbqNmPlav0w2+69HrDkGYtK9Oa305RdJT9Z3Grq6uP+pra2tpuPcPKagTLAGwxcuRIxcfHh2Tt+Ph4HvgHAOhV/LsHAGAH/v0DHG73viY98NzH+u8XP9H+ps5PKHfEV1mnpWv9+tfJY0I0XdeFKjOxEsEyAAAAAAAAgIhmGIaeK/9Kc54o15fbd5taI9k1QhMSR1g8Wd9FsAwAAAAAAAAgYm35tlG5j5er5IOu1V58X9xxg/W7zHGadoVbUVEOi6fruwiWAQAAAAAAAESc3fua9OBzH+uPJmovJMnhkP5l0mj9Jn2cRgwbHIIJ+zaCZQAAAAAAAAARwzAMveDbprwnyvVF7S5Ta3gS4/TQ9BQluai+MItgGQAAAAAAAEBECHy3Q7MfL9erG782dX/ssYN0d+Z4TZ/oUnRUlMXT9S8EywAAAAAAAADC2p79TXro+U36wwubtO+AudqLGZNG67fUXliGYBkAAAAAAABA2Hqx4ivlPlaurT2ovXhwWrKS3SMtnqx/I1gGAAAAAAAAEHYC3+1Q7uPleqUntRcZ4zR9kpvaixAgWAYAAAAAAAAQNvbsb9Ifnt+kh0zWXkjS9Ilu3Z05TiOHDbF4OrQiWAYAAAAAAAAQFl6q2Kbcx8tUVWOu9mLCqDg9OD1ZKdRehBzBMgAAAAAAAABbVVbvVN4T5XqpYpup+2OPHaTfZozTDGoveg3BMgAAAAAAAABb7NnfpD++8IkefP5j07UX0ya6dXfGOMUPp/aiNxEsAwAAAAAAAOh1L2/YptzHy1VZvdPU/eNOj9VD01N0wWhqL+xAsAwAAAAAAACg11TV7FTe4+V60WTthfOYgfpN+jj96+TR1F7YiGAZAAAAAAAAQMjt3d+s/35xkx54bpP2Hmg2tcYtl7t0T9Z4ai/CAMEyAAAAAAAAgJB6dePXmv1YmQImay/OPy1WD01P1oVj4i2eDGYRLAMAAAAAAAAIia01OzXnSZ+eL//K1P0x/6i9+Bm1F2GHYBkAAAAAAACApfbub9afXvpEi/7+senai5svd+leai/CFsEyAAAAAAAAAMuUfHCw9sL/nbnai/NOc+rBaSm6+AxqL8IZwTIAAAAAAACAHvuidpfmPFGu53pQe3HX1PP1s8ljNCCa2otwR7AMAAAAAAAAwLR9B/5Ze7Fnv7nai59elqh7s8YrIWaoxdMhVAiWAQAAAAAAAJhS+sHX+uVj5fJ/t8PU/eee6tSD05J1yZkJFk+GUCNYBgAAAAAAANAtX9bu0pwnffp72Zem7h8+dKB+PfV8zUyl9iJSESwDAAAAAAAA6JJ9B5r1Py9/qoV/+8h07cVNl47SvVkTdLyT2otIRrAMAAAAAAAA4KhWf/iNfvlYmbZ8a6724pxTnXrg1mRddha1F30BwTIO4/P5tHz5cpWWlioYDCoQCMjpdCouLk4ul0sZGRnyer1yuVwhnaO0tFRFRUUqKytTIBBQMBiU0+mUy+WSy+VSVlaW0tPTmaEXZgAAAAAAAP3XV9t3ae6TPj273lztxbAhA/Trqecr23sGtRd9iMMwDMPuIRAeSktLlZOTo0Ag0KXXp6enKz8/3/KAubCwUHl5eQoGg23XWoPU1mD10Otz585Vbm4uM4RgBqvU1NQoIaH9dyOrq6sVHx9v00QAAAAAAOBo9jc1639eOlh7sdtk7cWNl4zSvTdO0AnUXljO7ryFbxFAwWBQaWlpSktL63KoLEnFxcVyu91auHChpXPk5OS0haZer1fl5eWqr69v+8/6+nplZ2e33ZOXl6e0tLR2QSszAAAAAAAAmPfaR9/qol+9pLuLNpoKlceeEqOX5nm1+PZLCJX7KE4s93OBQKDbgXJH0tPTVVRU1KM5kpKS2oWiubm5ys/P7/Se4uJiZWRktP3Z6XSqvLzc9AlqZggdu7+DBgAAAAAAumZb3W7NfdKnZ97/wtT9w4YM0LwbzleO9wwNHMCZ1lCyO2/hs9uPBYNBJSUl9ThUlg6Gm3l5eabn+P5J29aajSNJT09vV/3Q+vGYObHLDAAAAAAAoD/b39SsP7ywSUl5z5sOlbMuGSXfwh/pFz84i1C5H+DEcj+WlJQkn8/X9ufs7GxlZGS0PRSuVevD/AoLC48aVpaUlMjr9XZrjrS0NJWWlra7Vl9fL6fT2aX73W53u3Dc6/WqpKSEGUzMECp2fwcNAAAAAAB0bu3H32rWsjJ9/k2jqfvPPjlGD01P1mVnHW/xZDgSu/MWvnXQTy1cuLAtVPZ4PPL7/SooKJDX6z2sQsHj8Sg/P1/19fVHPT3b3VPLhYWFh4Wpubm5XQ5TJR02U2lpabd6n5kBAAAAAAD0R9vqdmv6/76pH+WvMRUqHzdkgO6/aYLeuveHhMr9ECeW+6FgMKjY2FhJksvlUnl5ebcCzNLSUqWlpXX6z7tzajk2NvawU9DdOaVrxTrMEHp2fwcNAAAAAAD80/6mZv35lc+04NmPtGtfk6k1Mi46XffdNEEnxh5j8XToKrvzFk4s90OFhYVtvy8pKel26Oj1elVQUNDpP+/qQ/yKi4sPC0G9Xq+pEDQzM/Owa/Pnz2eGLs4AAAAAAAD6h3WbvtUlv35Jdy3fYCpUPvOk4XphTqr++vNLCZX7OYLlfqg1FC4oKDis9qKrsrOz5fF4OvxnK1as6NIaHQWeGRkZpubp6L6FCxcetROaGQAAAAAAQH/wdd1u/cuf39K1C9bos6/N1V78/sYJeuf3V+uKsdRegGC53/H5fAoEAnK5XMrOzu7RWp31LXclxPT5fO0eHNiquw/+O9p9h57OZgYAAAAAANDfHGhq0Z9e+kRJc55X8btbTa2RftHpKl9wrf7f1Wdr4ADiRBzE/xL6mdYHxB3tIXxdcaTw08wpXUmmT1B3du/y5cuZ4SgzAAAAAACAvun1Td/pkrte0q+eqtDOveZqL56fM1n/9/NLdVIctRdoj2C5n1m+fLmcTqfS09MtWa+zcPlo/cCtAfehOqvW6KqO7vf5fJ2G3MwAAAAAAAD6om/qd+tf//yWrlmwWp9ua+j2/ccOHqB7s8br7d//UBPHnhCCCdEXECz3M3Pnzu3yw/W6oqMA+WihciAQ6DDkTE5O7tEsKSkpHV7vqPOZGQAAAAAAQF9zoKlF//PSJ/LkPa8ik7UXUy88TeX51+o/rxmrQQOiLZ4QfQnBcj+Tnp5uur+3I3FxcYddO1qNQ0endCXJ7Xb3aJbOTvqWlJQwQyczAAAAAACAvuHNT7/TpXe9pHkmay/OOHG4nsubrCX/dplOpvYCXTDA7gEQ2erq6g67drRgubOAsye9wlLHIbekDh+OxwwAAAAAAKAv+Da4R796yqcV75g7oXzMoGjlXXeefvGDMzmhjG4hWEaPBAKBw65lZWUd8Z7OAs6jVWgcTWeBbEczMgMAAAAAAIhkB5paVFD6ue5f9YF2mDihLEnXX3Ca7r9pgk4ZcazF06E/IFhGj3QUjh6taqOzgLOnJ3WPFMgGAoF26zMDAAAAAACIVG9+Wq1Zy9Zr01fdfzCfJI0+YZgenJasyeeeaPFk6E/oWIZpHYXK2dnZRww2O3pYXavOKhy6o7O9D52VGQAAAAAAQCT6LrhHMx9+Wz+8v9RUqHzMoGjdnTFO7953NaEyeowTyzBt+fLlh13Ly8s74j0ddTK36mkFRFcxAwAAAAAAiCRNzS0qLP1c9636UI17Dpha47qUU3X/TR6dOpLaC1iDYBmmFRcXt/tzdnb2UWsW7Or5PTTIZYbwUFtbG7K14+PjQ7Y2AAAAAAC96a3PqjVrWZk+/jJo6v7RJwzTA7cmK/U8TijbpaamJiTrhjJb6QqCZZhSWlraLhx1Op3Kz88/6n1HqoCwQlxcXId7HHqNGcLD2LFjQ7a2YRghWxsAAAAAgN7wXXCP7lpeoafeqjJ1/9BB0cr9ybn69x+cpcEDo60dDt2SkJBg9wghQbAMU74fIi9evLhLFQ52nZjdvn07M3xvBgAAAAAAEH6amlu0ePVm/X7lB6ZrL36cfKoW/JTaC4QWwTK6zefzqbS0tO3P6enpSk9P79K9VjyY7ki6Em4zAwAAAAAACEdv/6P24iOTtRfu44/ToluTlXb+SdYOBnSAYBndNnPmzLbfu1wuFRUVdfneUAeenVU9jBgxghm+NwMAAAAAAAgP1Q17dNfyDXryzUpT9w8dFK3ZPz5H//HDs6m9QK8hWEa3FBYWyufzSToYjpaUlHTr/lCf1O3MoUEuM4SHTZs2aeTIkXaPAQAAAACAbZqaW/TI6s36/aoP1LDbXO3Fj5JO0YKbk3QatRdhq7q6OiTr1tbWhvQZVkdDsIwuCwaDysnJafvz6tWr5XK5urVGqIPNzrqLD52TGcLDyJEjFR8fb/cYAAAAAADY4p3PazRr2Xp9+EXQ1P2uhIO1F1PGUXsR7vpq/kGwjC5LTU1t+31RUZE8Hk+31zjSSd1gMBiywPXQfZkBAAAAAADYpaZxr+5avkFPvBEwdf+Qgf+svRgyiNoL2IdgGV2Sk5PTVoFRUFDQ5Yf1fZ9d3cKH7ssMAAAAAACgtzW3tOjRNVt0b/FGBU3WXlzjOUX5N3t0evxxFk8HdF+U3QMg/BUWFqqwsFDSwVA5Ozu7R+t1dtI5EDD3nbpWnYWp0uEVEMwAAAAAAAB6y3ubazTxt69o1rIyU6GyK+E4Fc+aqKf/8wpCZYQNgmUcUWlpaVuvcn5+fo9DZUnyer0dXu+sF7irOru/owCXGQAAAAAAQKjVNO7Vzx95V957S7Rxa3237x8yMFq/vuE8vXf/Nbpq3MkhmBAwjyoMdCoQCCgjI0OSlJubq9zcXEvWTUlJ6XS/nujs/o4CXGYAAAAAAACh0tzSor+u2aJ7elB7cfWEk5V/S5JGcUIZYYpgGR0KBoNKSkpSMBhUdna28vPzLVu7s4DT7/f3aN3OKiDS0tKYoZMZAAAAAACAtd7fUqtZy9ZrQ1X3TyhLUmLCccq/OUk/nMAJZYQ3gmUc5tBQOT09XQUFBZau73Q65XQ6DwtAWx8OaNb69es7vJ6cnMwMncwAAAAAAACsUdO4V3cXbdSydeYOjA0eGKVZ156j/7pmrIYMirZ4OsB6dCyjndZQORAIKD09XUVFRSHZp6Ou5rKysh6t2VEg6/F45HQ6meEIMwAAAAAAAPOaW1r0yOrNSsp73nSo/IPxJ2n9/Gs19/rzCJURMQiW0U5qaqoCgYC8Xq8lobLP5+uwmqH1gYCHCgaDndY4dEVHgWxWVlanr2cGAAAAAADQE+v9tZp09yv6r6XrVb9rf7fvHxV/rJb/1xUqunOSEhPoUkZkIVhGm7S0NPl8Pnm9XpWUlPR4vWAwqNTU1A6DTpfLJY/Hc9j10tJSU3sFAoEOw9iOTgQzAwAAAAAA6InaHXv1i0ff0+TfvWqqS3nwwCjNve5cvT//Gl094ZQQTAiEHsEyJB0MlUtLS+XxeCwJlSVp5syZiouL6/QhdR2d1l2+fLmpvYqLiw+7lp2dfdT6B2YAAAAAAABd1dzSor+u2SxP7vNaarL2Ysq4k/T+/ddo3g3na+ggHn+GyOUwDMOwewjYKyMjQ8XFxXK5XCovL7ckhMzJyVFhYaHy8/OVm5vb6etiY2MPO2Fr5n+SbrdbgUCg3TW/3y+Xy3XUe5kh9GpqapSQkNDuWnV1teLj422aCAAAAACA7ikPbNedS9fLV1ln6v7TRx6r/FuSdPWEk+VwOCyeDv2R3XkLJ5b7uZycHMtC5WAwqNLSUqWlpamwsFDS0SsY5s6de9i11nu7yufzHRam5ubmdjlMZQYAAAAAANCZ7Tv26T/+731d+btXTIXKgwdGac5152r9gmt0jecUQmX0GZxY7sfy8vK0cOHCkK2fnp7epQcAJiUlyefztf3Z6XSqvr7r/UTfv9/lcsnv796PozBDaNn9HTQAAAAAALqrpcXQknV+3b1ig6kH80nSlPNP1MJbk+U+fpjF0wH25y2cWO6nFi5cGNJQWeq4O7gjRUVF7U5KB4NB5eXldenewsLCdmGqJFMd0cwAAAAAAABalQe2a/I9r+j//d/7pkLl00Yeq6f+3xUqnjWJUBl9FieW+6HCwsIuh75mdfe0bCAQUFJSUrue4YKCgiNWabTWbhyqpKSk04cFMoN97P4OGgAAAAAAXbF9xz7dU7xR/7d2i8wkZoMGROk/rz5bs350jo4ZzIP5EFp25y2cWO5niouLQx4qS10/rdyqtePZ4/G0WyMjI+Ow3uBgMKicnJx2YWprkN2TMJUZAAAAAADon1paDC1Zu0WevOf119fMhcre807Ue/dfrbvSxxEqo1/gxHI/01sF8fX19aYfBFhYWKi8vLx2p3adTqdcLpeCwWCHD6jLz8/vwbTMEGp2fwcNAAAAAIDOVFTW6c6l61UW2G7q/lNHHKMFNyfpR0k8mA+9y+68hWAZYau0tFRFRUUqKytTIBBQMBiU0+lUXFycPB6PsrKy5PV6TQfYzNB77H6jAwAAAADg++p2Hqy9MHtCedCAKP2/q8/WL6m9gE3szlsIlgGEnN1vdAAAAAAAtGppMfTYGwH9dsUGbd+xz9QaqeeeoEW3JmvMicMtng7oOrvzFr6dAgAAAAAAgH5hQ1Wd/mvpepX5zdVenBJ3sPbix8nUXgAEywAAAAAAAOjT6nft173FG/XIms2mai8GRkfpP64+S7N/fK6OpfYCkESwDAAAAAAAgD6qpcXQE28GdNdy87UXk/9Re3EGtRdAOwTLAAAAAAAA6HM2VtXpzmVlen9Lran7T447Rvk3e/Tj5FOpvQA6QLAMAAAAAACAPqN+1379fuVGPbJ6i1pM9F4MjI7Sv//wLOX+hNoL4Ej4fwcAAAAAAAAiXkuLoSffqtRdT1eo1mTtxZXnnKBFtybpzJNiLJ4O6HsIlgEAAAAAABDRPtharzuXrdd7m83VXpwUO1QLbk7SdSnUXgBdRbAMAAAAAACAiBTctV+/X/mBFq/ebKr2YkC0Q7/4wVnK+8m5Om7IwBBMCPRdBMsAAAAAAACIKIZh6Mk3K3XX8g2qadxrao2JY4/XA7cm66yTqb0AzCBYBgAAAAAAQMT48It6zVpWpnc+rzF1/4mxQ7Xgpx5df8Fp1F4APUCwDAAAAAAAgLDXsHu/7lv1gQpKzNde/NtVB2svhg2l9gLoKYJlAAAAAAAAhC3DMPT021X69dMVqm4wV3txxdnH68Fp1F4AViJYBgAAAAAAQFj66It63dnD2ov5N3l0w4XUXgBWI1gGAAAAAABAWGnYvV/3r/pQBaWfq7nFXO3Fz6ecpTnXUXsBhArBMgAAAAAAAMKCYRha/naVftWD2ovLz07Qg7cm6+xTnNYOB6AdgmUAAAAAAADY7uMvg7pz2Xq9/Zm52osTnEN1/00TlH7R6dReAL2AYBkAAAAAAAC2adxzQPev+kAPl5irvYiOcuiOKWdq7vXnaTi1F0CvIVgGAAAAAABArzMMQ0XvbNW8p3z6zmTtxWVnJejBackaS+0F0OsIlgEAAAAAANCrPvkqqDuXlenNT6tN3X98zBDdf5NHGRdTewHYhWAZAAAAAAAAvaJxzwHNf+ZD/eXVz0zXXtyedobm3XA+tReAzQiWAQAAAAAAEFKGYaj43a2a91SFvg3uMbXGJWfG66FpKTrnVKe1wwEwhWAZAAAAAAAAIfPJV0HNeqxMb3xirvYiIWaI7rtxgrIuGUXtBRBGCJYBAAAAAABguR17DmjBsx/pz69+qqbm7tdeRDlaay/OU8wxg0IwIYCeIFgGAAAAAACAZQzD0Mr3DtZefFNvrvbi4jPi9dC0ZJ17WqzF0wGwCsEyAFvU1tZ2+bXx8fEhnAQAAAAAYJVPtzVo1rIyvf7Jd6bujx8+RPfdNEE3UnuBfq6mpuaor+lOthIKBMsAbDF27Nguv9Ywuv8jUwAAAACA3rNjzwHl/+0j/X+vmK+9yEkbo3nXny/nsdReAAkJCXaPcFQEywAAAAAAADDFMAyteu8LzXvKp69N1l5cNCZeD01P1nnUXgARhWAZAAAAAAAA3fbZ1w365bIyrd1kvvbi3qzxuunSREVFUXsBRBqCZQAAAAAAAHTZzr0HtPBvH+t/X/5UB5pbun1/lMOhbO8Y/eoGai+ASEawDMAWmzZt0siRI+0eAwAAAADQRYZh6Nn1X2rukz5tq9ttao0Lx4zUQ9NSdP7p1F4AR1JdXX3U19TW1nbrGVZWI1gGYIuRI0cqPj7e7jEAAAAAAF3w2dcNmv1YuV77+FtT948cNlj33jhBP6X2AuiSSMhM+kywvGHDBpWVlcnv9ysYDKqurk7BYFCBQEB1dXWKi4uTy+WS0+lUXFycnE6nUlJS5PV6NXz4cLvHBwAAAAAACDu79jVp4d8+0v+8ZL724rbU0fr11HGKpfYC6FMiNlhubGxUYWGhli9fLp/P1+nrDMOQJNXX1ysQCHT4GpfLJa/Xq7S0NIJmAAAAAADQ7xmGob/9o/biK5O1FynuEXpoeorGj4qzeDoA4SDiguU1a9YoPz9fpaWlkv4ZHHfG4fjnj1d09lq/369AIKDCwkJJUk5OjnJzczVq1ChrhgYAAAAAAIgQn3/TqNmPlWnNR+ZqL0YMG6x7Msfrlstd1F4AfZjDOFoyGybWrFmjnJyctlPHh459aHhsVkfrpaWlKS8vT1deeWWP1wf6s5qaGiUkJLS7Vl1dHRF9QQAAAADQX+za16RFf/9If3rRXO2FwyHdNnmMfj31fMUdNzgEEwI4lN15S9ifWK6qqlJOTo5KS0tNh8mGYRz19R2dbC4pKVFJSYnS0tK0YsUKKjIAAAAAAECfYxiG/l72leY8UW669iLZPUIPTUvRhERqL4D+IqyD5UWLFmnOnDmSDg+Hj3TQ2ul0SpLi4uLa/hwMBiVJdXV1ktT25458f59XX31ViYmJeuSRR3T99deb+VAAAAAAAADCzpZvGzX7sXKVfviNqfvjjhuse7LG61ZqL4B+JyyD5cbGRqWmpsrn87UFyg6Ho12Y7PF4lJycrKSkJLlcLsXFxcnlcikmJqbL+zQ0NKiurk6BQECBQEDl5eUqKytr9zDA1pC5vr5e6enpysjIUGFhIaeXAQAAAABAxNq9r0kPPPex/vvFT7S/yVztxc+uHKO70qm9APqrsOtY3rBhg1JTU9tOFLeO53K5lJ6erqysLE2YMCHkc1RUVGj58uUqLi5u63VuDZljY2O1evVqjRs3LuRzAH2B3Z0/AAAAAICDDMPQc+UHay++3G6y9sI1Qg9OS5bHNcLi6QB0h915S1gFyytXrlRmZqakfwbK2dnZysvLU2Jiom1zVVRU6P7779fKlSvbrjkcDpWWlvJgP6AL7H6jAwAAAAAcrL3IfbxcJR+Yr734XeY4TbvCTe0FEAbszluiemWXLli0aJEyMzNlGIYMw1B+fr7q6+v18MMP2xoqS9KECRNUVFSkLVu2aOrUqZIOBt9er1evvfaarbMBAAAAAAAcye59Tbq3eKMunPeiqVDZ4ZD+9crR8uVfqxmTRhMqA5AUJieW586dq4ULF8owDKWnp2vx4sXd6krubaWlpcrMzFQwGJTD4ZDP56MWAzgCu7+DBgAAAAD9kWEYesG3TXlPlOuL2l2m1vAkxumh6SlKovYCCDt25y22P7zvgQceUH5+viSpuLhYN9xwg80THZ3X61UgEFBGRoZWr16t1NRUlZeX6/TTT7d7NAAAAAAAAPm/26Hcx8v16savTd0fe+wg3Z05XtMnuhQdFTY/8A4gjNgaLK9atUq5ubmSDp4Cnjx5sp3jdIvT6VRJSYkyMjK0cuVKZWRk6P3337d7LAAAAAAA0I/t3tekh57fpD+8sEn7m1q6fb/DIc2YNFq/TR+nEcMGh2BCAH2Fbd9yqqysVHp6uhwOh8rLyyMqVD5UUVGRZs6cqbKyMv385z+3exwAAAAAANAPHay9+EoXzH1B+X/7yFSo7EmM05rfTNGf/uUCQmUAR2XbieWMjAxJUklJiSZMmGDXGJYoKChQXV2dCgoKlJGRoSuvvNLukQAAAAAAQD8R+EftxSs9qb3IGKfpk9zUXgDoMluC5UWLFsnn86m4uDhiTyp/X1FRkZKSkpSRkaHa2lq7xwEAAAAAAH3cnv1N+sPzm/TQC5u070D3TyhL0vSJbt2dOU4jhw2xeDoAfZ0twfL69euVm5sbEQ/q647Vq1crOTlZq1at6nMfGwAAAAAACB8vVWxT7uNlqqrZZer+CaPi9OD0ZKW4R1o8GYD+wpZgecWKFXZsG3JOp1NbtmyxewwAAAAAANBHVVbvVN4T5XqpYpup+2OPHaTfZozTDGovAPSQbR3LAAAAAAAA6Jo9+5v0xxc+0YPPf2y69mLaRLfuzhin+OHUXgDoOYJlAAAAAACAMPbyhm3KfbxcldU7Td0/7vRYPTgtWReOibd4MgD9GcEyAAAAAABAGKqq2am8x8v1osnaC+cxA/Wb9HH618mjqb0AYDmCZQAAAAAAgDCyd3+z/vjiJj343CbtPdBsao1bLnfpnqzx1F4ACJl+++2qxsZGzZ07V2PGjFF0dHTbr6uuukqPPvqo3eMBAAAAAIB+6JWN23ThvBd036oPTYXK558Wq9K70vSXmRcRKgMIKYdhGIbdQ/S2RYsWac6cOZKk73/4DodDkuR2u1VUVKRx48b1+nxAX1NTU6OEhIR216qrqxUfT78XAAAAAEjS1pqdynvCpxd8X5m6P+YftRc/o/YC6DfszlsirgojKytLkhQMBiVJdXV17f4sSZs3b+70/rlz52rhwoVtgXJrkHwowzC0ZcsWeTwelZaW6sorr7RoegAAAAAAgH/au79Zf3rpEy36+8emay9uvtyle6m9ANDLIi5YNgxDxcXFbYFwa0Ds8XiUlZUlr9fb6b2LFy9Wfn6+pM4D5VYOh0OGYSg9PV3l5eUaNWqUhR8FAAAAAADo70o++FqzHyuT/7udpu4/7zSnHpyWoovP4KdBAfS+iAuW09LSVFxc3BYCZ2dnKy8vT4mJiUe8r7KyUjk5OYcF0q0BsiR5vV65XC4FAgGVlZUpGAwqGAzq9ttv18svvxzCjwoAAAAAAPQXX9Tu0pwnyvVcufnai7umnq+fTR6jAdHUXgCwR8QFyyUlJZIOnlAuKio6aqDcKi0tre33hmG0Bcqtp5IXL16smJiYdvfk5eVp0aJFKikp0YYNGzR+/HjLPg4AAAAAANC/7Dvwz9qLPfvN1V789LJE3Zs1XgkxQy2eDgC6J6KC5YaGBhUXFyspKUnr16/v8n2LFi1SIBBoC5MP/c/s7Gz95S9/6fC+1tqMRYsWqbCwUH/+858t+TgAAAAAAED/UvrB1/rlY+Xyf7fD1P3nnurUg9OSdcmZCUd/MQD0AodxaLFwmFu0aJHmzJkjv9/f5c7jhoYGxcbGtguTpYOnlt1u9xEf9NcqLi5OI0aM6NJrARzO7qeUAgAAAIBdvqzdpTlP+vT3si9N3T986ED9eur5mplK7QWA9uzOWyLqxPLy5cvlcrm69SC9mTNnHnatNWAuKirq0hper1erV6/u8p4AAAAAAKB/23egWf/z8qda+LePTNde3HTpKN2bNUHHO6m9ABB+IipYDgQC7bqSj2b16tUqLi7utAKjq53JLpdLK1euNDk1AAAAAADoT1Z/+I1mLSszXXtxzqlOPXBrsi47i9oLAOErooLlYDAol8vV5dfn5OR0+s9a+5O7YsSIEXI6nV1+PQAAAAAA6H++rN2luU/59Lf15movhg0ZoF9PPV/Z3jOovQAQ9iIqWHY6nQoEAl167dy5czt9YN+CBQs0fPjwLu/r9/uVnJxsdmwAAAAAANCH7W9q1v+8dLD2YrfJ2osbLxmle2+coBOovQAQISIqWI6Li5PP5zvq6yorK5Wfn3/YA/ukg7UWs2fP7ta+paWluv3227s9LwAAAAAA6Nte++hbzXqsTJu/aTR1/9hTYvTgtBRqLwBEnIj6uYrU1FQFAgE9+uijR3xdRz3M3X1gX6uKigpVVlYqPT29W/cBAAAAAIC+a1vdbk373zf144VrTIXKw4YM0PyfevTmPT8kVAYQkSIqWL799ttlGIays7M7DJerqqqUkpLSaQVGbm5ulx/Y12rmzJlyOp0aNWqUNR8EAAAAAACIWPubmvWHFzYpKe95PfP+F6bWyLz4dPkW/ki/+MFZGjggoqIZAGjjMAzDsHuI7khKSlJFRYUcDodcLpe8Xq+cTqd8Pp9KS0slHTydLKldBYbH49H69eu7tdeUKVO0evVqeb1evfLKK9Z9EEA/U1NTo4SE9t+Br66uVnx8vE0TAQAAAED3rf34W81aVqbPTdZenHVyjB6alqzLzz7e4skA9Ed25y0R1bEsSUVFRRo9erSkgw/VO/Rhfh0FyoZhyO12a/Xq1V3eY82aNcrJyenygwIBAAAAAEDfta1ut+Y96dMqkyeUjxsyQPOuP0+3p53JCWUAfUbEBcsul0tlZWXyer0KBoPt/tmhgbJ0MFT2eDxavXq1hg8ffsR1q6qqVFxcrOXLlx/2gEACZgAAAAAA+p/9Tc368yufacGzH2nXviZTa2RcdLruu2mCTow9xuLpAMBeERcsSwdrLcrLy5Wbm6uVK1d2+rq8vDzNnz//iGtlZmaqoqKiLTzuqBkkEAho1apVuuGGG3o2OAAAAAAAiAjrNh2svfjsa3O1F2eeNFwPTUvRFWOpvQDQN0VksCxJiYmJKioqUkNDg1asWCG/369gMCi32y2Px6Pk5GTFxMQcdR2XyyWXy9ULEwMAAAAAgHD3dd1uzXvKp5Xvma+9mHPdefr5FGovAPRtEffwPgCRx+4yeQAAAAA4mgNNLfrzq59pwbMfaudec7UX6RedrvtunKCT4qi9ABB6ductEXtiGQAAAAAAwAqvb/pOsx4r06fbGkzdf+ZJw/XgtGRNHHuCxZMBQPiyJVgeM2aMMjIylJmZqfHjx9sxAgAAAAAA6Oe+qd+tXz1VoaJ3t5q6/9jBAzTnunP186vO1KAB0RZPBwDhzZYqjKioKDkcDkmS0+lUTk4OITPQh3X0oxmbNm3SyJEju3Q/lRkAAAAArHSgqUUPl3ym+58xX3sx9cLTdN9NHp1M7QWAEKipqTnqa2prazV27Nh213qzCsPWYLl1a0JmoG/rKFjuDqrgAQAAAFjlzU+/051Ly/SJydqLM048WHsx6RxqLwCETmte2l39JlhudegIh4bMWVlZys7OJmQGIhzBMgAAAAC7fRvco1895dOKd8zVXhwzKFp5152nX/yA2gsAoUew3ImcnBwVFRUpGAweHKILIXNmZqYyMjI0efLkXp0VQM8RLAMAAACwy4GmFhWUfq77V32gHSZrL66/4DTdf9MEnTLiWIunA4COESwfRUVFhR5++GFCZqCPI1gGAAAAYIc3P63WrGXrtekrc7UXo08YpgenJWvyuSdaPBkAHBnBcjdUVFTo6aef1uLFiwmZgT6Gh/cBAAAA6E3fBvforqcr9PTbVabuP2ZQtHJ/cq5+8YOzNHggtRcAeh8P7zPJTMgsSRkZGcrOziZkBsJMR8Fyb77RAQAAAOgfmppbVFDyue7rQe3FdSmn6v6bPDp1JLUXAMKb3XlLWAbLh6qoqNDy5ctVXFysQCAgqWshc3p6urKysnTDDTf03rAAOmT3Gx0AAACAvu+tz6o1a1mZPv4yaOr+0ScM0wO3Jiv1PGovAEQGu/OWsA+WD0XIDEQmu9/oAAAAAPRd3wX36K7lFXrqrSpT9w/9R+3Fv1N7ASDC2J23RFSwfChCZiBy2P1GBwAAAKDvaWpu0eLVm/X7lR+occ8BU2v8OPlULfgptRcAIpPdeUvEBsuHqqys1MMPP6yVK1cSMgNhyO43OgAAAAB9y9v/qL34yGTthfv447To1mSlnX+StYMBQC+yO2/pE8HyocyGzGlpacrOzpbX69Xw4cN7b2CgH7D7jQ4AAABA31DdsEd3Ld+gJ9+sNHX/0EHRmv3jc/QfPzyb2gsAEc/uvKXPBcuHqqysVFFRkQoLC7sVMnu9XmVkZCgzM5OQGbCA3W90AAAAACJbU3OLHlm9Wb9f9YEadpurvfhR0ilacHOSTqP2AkAfYXfe0qeD5UN1FDJLHQfNhMyAtex+owMAAAAQud75vEazlq3Xh18ETd3vSjhYezFlHLUXAPoWu/OWfhMsH6qyslLFxcVavny5fD5f2/UjhcwOh0NNTU29OyjQR9j9RgcAAAAg8tQ07tVdyzfoiTcCR39xB4YM/GftxZBB1F4A6Hvszlv6ZbB8qK6GzA6HQ83NzXaMCEQ8u9/oAAAAAESOpuYWPbpms+5dab724hrPKcq/2aPT44+zeDoACB925y39Plg+VEchs8PhIFgGesjuNzoAAAAAkeHdzTWatbRMH3xRb+p+V8JxWnhrkq4ad7LFkwFA+LE7byFY7sT3Q2aCZcA8u9/oAAAAAIS3msa9+s3yDXq8B7UXv/zRWP2/q8dSewGg37A7bxnQK7tEoMTERM2ePVuzZ8/Wf//3f2v//v12jwQAAAAAQJ/S3NKiv67ZonuKNyposvbi6gknK/+WJI2i9gIAehXBchfceeednFYGAAAAAMBC72+p1axl67Whylztxaj4Y7XwlmT9cAK1FwBgB4Llo6isrLR7BAAAAAAA+oyaxr26u2ijlq3zm7p/8MAozbr2HP3nNWdr6CBiDQCwC+/AR1FcXGz3CAAAAAAARLzmlhb932t+3VO8UfW7zNVN/mD8SVp4S7ISE6i9AAC7ESwfwSOPPKK8vDw5HA67RwEAAAAAIGKt99fqzqU9q73IvyVJV084xeLJAABm9Ylgec2aNfL5fPL7/QoEAqqrq1MwGDS9Xk/vBwAAAAAAUu2Ovbp7xUYt7UHtxZ3XjNV/XTuW2gsACDMR+65cVVWlvLy8DqsqDMOwYSIAAAAAACAdrL1Yutavu4vM115MGXeSFt2SJNfxwyyeDgBghYgMlhctWqQ5c+ZI6jxEtqq+gpAaAAAAAICuK/PXatayMvkq60zdf/rI1tqLk6mmBIAwFnHB8ty5c7Vw4cK2wJd/yQAAAAAAYL/tO/bp7qINWrrOLzNntAYPjNJ/XTNWd1J7AQARIaLeqSsqKpSfny+Hw9FpoGzVCWMCawAAAAAAjq6lxdCSdX7dvWKD+dqL80/UwluT5ab2AgAiRkQFywUFBW2/NwxDDoejXZDscrnkdDoVFxfXo33q6uoUCAR4gB8AAAAAAEdQHtiuWcvWqzxgrvbitJHHKv/mJF3jofYCACJNRAXLpaWl7f5FYxiGsrOzlZOTowkTJli+X3FxsTIzMy1fFwAAAACASLZ9xz7dU7xR/7d2i6nai0EDovSfV5+tWT86R8cMjqhoAgDwDxH17h0IBNpOKTscDuXm5mr+/Pkh2y89PV0zZ87UI488ErI9AAAAAACIFC0thpa97tdvV2xU3c59ptbwnneiFt2apNEnDLd4OgBAb3IYVpUS94K4uDg1NDTIMAy53W5t3rw55Hv6fD6lpKSoubk55HsBfVVNTY0SEhLaXauurlZ8fLxNEwEAAADororKOt25dL3KAttN3X/qiGO04OYk/SjpFGovAMACductEXVi2eVyyefzyeFwyOPx9MqebrfbsgcCAgAAAAAQaep2Hqy9+Otr5msv/t/VZ+uX1F4AQJ8SUe/orcGyJKWkpPTKnjExMaqvr++VvQAAAAAACBctLYYeeyOg3yzfYLr2IvXcE7To1mSNOZHaCwDoayIqWM7MzFRxcbEkaft2cz96Y0ZMTEyv7QUAAAAAgN02VNXpv5auV5nf3N+9T4k7WHvx42RqLwCgr4qoYDk9Pb3t94FAwMZJAAAAAADoe+p27tO9xR/o0dc2m6q9GBgdpf+4+izN/vG5OpbaCwDo06LsHqC7Zs+eLcMwVFpa2mt7jhkzptf2AgAAAACgt7W0GFq2zi9P3vN6ZI25UHnyuSfo3fuv1t0Z4wmVAaAfiLhgOT8/X4mJiQoGg3rmmWdCvl9lZSWnowEAAAAAfdbGqjql/b5E//boe9q+o/tdyifHHaPH//0yPTv7Sp1BlzIA9BsRFyxLUlFRkQzD0MyZM7Vjx46Q7tX6sEAAAAAAAPqS+l37NWvZel3x21f0/pbabt8/MDpKd147VmULrtFPUk6jSxkA+pmIDJY9Ho8efvhh1dXVKTU1VY2NjSHbKy8vL2RrAwAAAADQ21paDD3+RkCe3OdUWLpZLSZ6L6485wS9c98P9bvM8TpuyMAQTAkACHcRW3qUnZ2tYDCoOXPmKDk5WUVFRRo3blyP1mwNqOvq6lRaWqr8/HwFAgG+6woAAAAA6BM+2FqvO5et13ubu39CWZJOih2qBTcn6bqUU/m7MgD0cxEbLEtSbm6uSktLVVpaKo/HY/n6hpmnFQAAAAAAEGaCu/br9ys/0OLV5k4oD4h26Bc/OEt5PzmXE8oAAEkRHCw/8sgj7U4UhyIEDtW6AAAAAAD0hpYWQ0+9Vam7lm9QTeNeU2tMHHu8Hrg1WWedHGPxdACASBaRwXJWVpaKi4vbQl+Hw8GP4AAAAAAAcIgPv6jXnUvL9O7mGlP3nxg7VAt+6tH1F/BgPgDA4SIuWL7qqqtUWloqwzDa/sV26O8BAAAAAOjPgrv26/5nPlBBifnai3+76mDtxbCh1F4AADoWUcHy6tWrVVJSctgJ5UMDZisRVgMAAAAAIoVhGHr67Sr9+ukKVTeYq7244uzj9eA0ai8AAEcXUcFyQUFB2+9bTym3hskul6vtl9Pp7NE+wWBQgUBApaWlPVoHAAAAAIDe8NEX9bpzWZne+dxc7cUJzqGa/9MJmnrh6RyyAgB0SUQFyz6fr92/4AzDUG5urnJycpSYmGj5foFAQMnJyWpoaLB8bQAAAAAAeqph937dv+pDFZR+ruYWc7UXd0w5U3OvO4/aCwBAt0RUsBwIBNpOKTscDq1YsUJTp04N2X4ul0tz5szR3LlzQ7YHAAAAAADdZRiGlr9dpV/1oPbi8rMT9OCtyTr7FKe1wwEA+oUouwfojkMrLjweT0hD5Vbp6ekh3wMAAAAAgK76+MugfnB/qWYWvGMqVD7BOVR/veMSvTAnlVAZAGBaRJ1YdrlcbXUYXq+31/a0+qGAAAAAAAB0V+OeA7p/1Qd6uMRc7UV01D9qL64/T8OpvQAA9FBEBcter1c+n6/X921paen1PYG+rra2tsuvjY+PD+EkAAAAQHgzDEMr3qnSr56q0Hcmay8uOytBD05L1lhOKANARKipOfrDWLuTrYRCRAXLOTk5WrhwoaSDfcsAItfYsWO7/Fp+agAAAAD91aavgrpzaZne+qza1P3HxwzR/Td5lHHx6XI4HBZPBwAIlYSEBLtHOKqICpYTExM1c+ZMLV68WKWlpXaPAwAAAABASDTuOaD5z3yov7z6menai9vTztC8G86n9gIAEBIOI8KOAjY0NGjUqFFqbGyUz+fTuHHjQr5nSkqK1q9fH/J9gL6qpqamR99pi7C3KQAAAMA0wzBU/O5WzXuqQt8G95ha45Iz4/XQtBSdc6rT2uEAAL3G7E+ZVFdX91qlaFSv7GKhmJgY5efnyzAM5eXlhXy/hoYGW3qdAQAAAAD9yydfBXXNgtX617+8bSpUTogZosU5F+vleV5CZQBAyEVUFUar7OxsFRUVqaSkRBs3bgzpqeWysrKQrQ30Z5s2bdLIkSPtHgMAAACw3Y49B7Tg2Y/051c/VVNz939aL8rRWntxnmKOGRSCCQEAva26+ujd+rW1td16hpXVIq4Ko1UwGFRiYqKio6NVWVmpYcOGhWSfKVOmaPXq1Wpubg7J+kB/0FEVRm/+aAYAAAAQjgzD0Mr3DtZefFNvrvbi4jPi9dC0ZJ17WqzF0wEAwp3deUtEnliWJKfTqeLiYqWlpSkxMVGLFy9WTEyMZesHAgEVFRWptLSUJ+cCAAAAACz16bYGzVpWptc/+c7U/fHDh+i+myboxktG8XdWAIAtIipYjouLU0NDQ7trDodDdXV1Sk9Pt2kqAAAAAAC6ZseeA8r/20f6/14xX3uRkzZG864/X85jqb0AANgnooLljIwMLV68uN01h8Mhh8OhUDR68F1fAAAAAIAVDMPQqve+0LynfPraZO3FRWPi9dD0ZJ1H7QUAIAxEVLCcmZmpxYsXtwt8DcNoC5cBAAAAAAg3n25r0C8fK9O6TeZrL+7NGq+bLk1UVBR/9wUAhIeICpZTU1PldDrb6jBaQ2UAAAAAAMLNzr0Hay/+92XztRfZ3jH61Q3UXgAAwk9EBcvSP+swQlmB0YrQGgAAAADQXYZh6Nn1X2rOE+Wmay8uHDNSD01L0fmnU3sBAAhPERcs33777W09y4ZhKDs7W0lJSYqLi5PT6ezx+sFgUHV1dfL7/SosLFQwGOzxmgAAAACA/uGzrxs0+7Fyvfbxt6buHzlssO69cYJ+Su0FACDMRVywPGHChLY6jPLyck2YMCFkey1YsEBut1tVVVUh2wMAAAAAEPl27WvSwr99pP956VMdaG7p9v1RDoduSx2tX08dp1hqLwAAESDK7gHMaO1aDmWo3Co/Pz/kewAAAAAAIpNhGHr2/S+UnPe8Hnp+k6lQOcU9Qut+d5UenJZCqAwAiBgRd2JZkrKysrRq1ape2SspKalX9gEAAAAARJbPv2nU7MfKtOYjc7UXI4YN1j2Z43XL5S5qLwAAEScig+W0tDSlpqaqsbFRw4cPD+leiYmJIX1AIAAAAAAgsuza16RFf/9If3rRXO2FwyHdNnmMfj31fMUdNzgEEwIAEHoRGSzHxMTo1Vdf7bX9Wlq6/4UCAAAAAKBvMQxDfy/7SnOeKNdXdbtNrZHsHqGHpqVoQmKcxdMBANC7IjJYBgAAAACgN23+plG5j5er9MNvTN0fd9xg3ZM1XrdSewEA6CMIlgEAAAAA6MSufU164O8f608vfaL9TeZqL3525RjdlU7tBQCgb4myY9MpU6boxhtvtGPrkGpoaNCIESN67cGCAAAAAIDQOFh78aVS5jyvB5772FSonOwaobW/vUp/mJFCqAwA6HNsObGcm5urKVOmKCUlRbNmzbJjhJBITU1VMBiU1+u1exQAAAAAgElbvj1Ye1Hygfnai99ljtO0K9zUXgAA+ixbgmWv16uZM2cqNzdXLpdL119/vR1jWCozM1MVFRUqKCjQ8OHD7R4HAAAAANBNu/c16cHnPtYfXzRfe/Evk0brN+njNGIYJ5QBAH2bwzAMw67N3W63qqqqVFxcHNHh8u23367FixcrPT1dy5cvt3scIOzU1NQoISGh3bXq6mrFx8fbNBEAAADwT4Zh6AXfNuU9Ua4vaneZWsOTGKeHpqcoyTXC4ukAAOiY3XmLLR3LrYqKimQYhtLT0/Xoo4/aOYppWVlZWrx4sVwuF6EyAAAAAEQY/3c7lP7QOt3036+bCpVjjx2k//6XC7Tmt1MIlQEA/YqtwbLH49GKFStkGIays7M1b948O8fplsbGRl111VUqKiqS0+lUSUmJ3SMBAAAAALpo974m/X7lB7pg7gt6dePX3b7f4ZD+5crRqlj4I/3rlaMVHWXrX68BAOh1tv+bLz09XbNnz5ZhGMrPz9cFF1ygrVu32j3WEa1atUqJiYkqLS2V0+lUWVmZRo0aZfdYAAAAAICjOFh78ZUumPuC8v/2kakuZU9inNb8Zor+9C8X0KUMAOi3bA+WJSk/P18zZ86UYRgqLy+Xy+XSvHnz1NjYaPdo7WzYsEFXXXWVMjIyVF9fr8TERJWXlysxMdHu0QAAAAAARxH4bocyHlqnG//4uraarb2YkaI1v52iZPfIEEwIAEDkCItgWZIKCgraTi5LB8Pm2NhYzZs3T1VVVbbO9sgjjyglJUVJSUkqLS2VYRjyeDyEygAAAAAQAfbsb9J9qz7QBfNe0Csmai8kafpEt3wLr9W/Th5D7QUAAJIcRmuSGyYKCwt1++23t/3Z4XBIOtjHnJWVJa/Xq/Hjx4d0hqqqKpWWlqqoqEilpaVt11v/q8rJydFf/vKXkM4A9CV2P6UUAAAA/deLFV8p7/FyVdV0/4SyJE0YFacHpycrhRPKAIAwY3feEnbBsiQFAgFlZGSooqJCDoejLdBtDZmlg0FzcnKy3G63XC5X26/hw4d3aY/GxkYFAgHV1dUpEAiovLxcZWVl8vl87V73/f96CgsLddttt/XwIwT6F7vf6AAAAND/VFbvVO7jZXp5g7kTyrHHDtJvM8ZpxiQ3J5QBAGHJ7rwlLIPlVnl5eVq0aFFboPz9UQ8NmjvidDrb/TkYDB7x9Z2t31p9UVRURPUFYILdb3QAAADoP/bsb9IfX/hEDz7/sfYd6P6D+SRp2kS37s4Yp/jhQyyeDgAA69idt4R1sCxJPp9PGRkZqqysbBckh2rs7+/hdDo1d+5czZ49OyT7Af2B3W90AAAA6B9e3rBNuY+Xq7J6p6n7x50eqwenJevCMXydCgAIf3bnLQN6ZZce8Hg88vv9Ki4u1oIFC9qqKo52WrknWkPr7Oxs5efnKyYmJmR7AQAAAAB6pqpmp/IeL9eLFdtM3e88ZqB+kz5O/zp5NLUXAAB0UcT8GzM9PV1lZWV69dVXlZqaKsMw2n5ZoXWtmJgY5efnq76+Xg8//DChMgAAAACEqb37m7Xg2Q+VMucF06HyLZe75Fv4I830nkGoDABAN4T9ieXv83q98nq9amho0IoVK1RSUqLS0tKj9icficvlUnp6urKysjRhwgTrhgUAAAAAhMQrG7cp97FyBUzWXpx/Wqwemk7tBQAAZoV9x3JXVVZWyufzKRAIaPv27QoGgwoEAqqrq5MkxcXFyel0yuVyacSIEW2/T05O5lQyEGJ2d/4AAACg79has1N5T/j0gu8rU/fH/KP24mfUXgAAIpzdeUvEnVjuTGJiohITE+0eAwAAAAAQAnv3N+tPL32iRX//WHsPNJta4+bLXbo3a7zihw+xeDoAAPqfPhMsAwAAAAD6plc3fq3Zj5WZrr047zSnHpyWoovP4CfmAACwii3B8pgxY5SRkaHMzEyNHz/ejhEAAAAAAGFua81OzXnSp+fLzdde3DX1fP1s8hgNiKb2AgAAK9nSsRwVFSWHwyFJcjqdysnJIWQG+jC7O38AAAAQWfYd+GftxZ795movfnpZou7NGq+EmKEWTwcAQHiwO2+xNVhu3ZqQGejb7H6jAwAAQOQo/eBr/fKxcvm/22Hq/nNPderBacm65MyEo78YAIAIZnfeYvuJZUk6dIRDQ+asrCxlZ2cTMgMRzu43OgAAAIS/L2t3ac6TPv297EtT9w8fOlC/nnq+ZqZSewEA6B/szlts+bftzJkzFRMTI8MwZBiGHA5H26/Wa/X19SooKFBSUpJGjBihO+64Q2vWrLFjXAAAAABAiOw70KwHnvtYSXOeNx0q33TpKPnyr9UdU84kVAYAoJfYcmK5VUVFhR5++GEVFRUpGAweHKgLJ5kzMzOVkZGhyZMn9+q8AMyx+ztoAAAACE+rP/xGs5aVma69OOdUpx64NVmXnUXtBQCg/7E7b7E1WD5URUWFnn76aS1evJiQGehj7H6jAwAAQHj5snaX5j7l09/WmzuhPGzIAP166vnK9p7BCWUAQL9ld94SNsHyocyEzJKUkZGh7OxsQmYgzNj9RgcAAIDwsL+pWf/z0qda+LePtHt/s6k1brxklO69cYJOcA61eDoAACKL3XlLWAbLh6qoqNDy5ctVXFysQCAgqWshc3p6urKysnTDDTf03rAAOmT3Gx0AAADst+ajb/TLx8q1+ZtGU/ePPSVGD05LofYCAIB/sDtvCftg+VCEzEBksvuNDgAAAPb5avsuzX3Sp2d7UHsx74bzleM9QwMHUHsBAEAru/OWiAqWD0XIDEQOu9/oAAAA0Pv2NzXrf1/+TPnPfmi69iLz4tN1300eai8AAOiA3XlLxAbLh6qsrNTDDz+slStXEjIDYaijN7pNmzZp5MiRXbqfABoAACCyrP34W925rMx07cVZJ8fooWnJuvzs4y2eDACAyFBTU3PU19TW1mrs2LHtrhEs94DZkDktLU3Z2dnyer0aPnx47w0M9AMdBcvd0cfepgAAAPqsbXW7Ne9Jn1a9/4Wp+48bMkDzrj9Pt6edSe0FAKBfOzS37A6CZYtUVlaqqKhIhYWF3QqZvV6vMjIylJmZScgMWIBgGQAAoG/b39SsP7/ymRY8+5F27WsytUbGRafrvpsm6MTYYyyeDgCAyEOwHEY6CpmljoNmQmbAWgTLAAAAfde6Td9q1rIyffa1udqLM08aroempeiKsdReAADQimA5TFVWVqq4uFjLly+Xz+dru36kkNnhcKipydx33oH+jmAZAACg7/m6brfmPeXTyvfM117Mue48/XwKtRcAAHwfwXIE6GrI7HA41Nxs7knGQH/Hw/sAAAD6jgNNLfrzq59pwbMfaudec4dv0i86XffdOEEnxVF7AQBAR3h4X4TpKGR2OBwEy0APdRQs9+YbHQAAAKzx+qbvNOuxMn26rcHU/WeeNFwPTkvWxLEnWDwZAAD9j915S8QGy1VVVYqLiwtZ7/H3Q2aCZcA8u9/oAAAA0DPf1O/Wr56qUNG7W03df+zgAZpz3bn6+VVnatCAaIunAwCgf7I7b4m4Iqs77rhD0dHRcrvdio2N1Y033hiSfRITEzV79myVlZWprq5OCxYsCMk+AAAAABCuDjS16E8vfSJP3vOmQ+UbLjhN5fnX6j+vGUuoDABAHzLA7gG6Y86cOSooKGh3raioSF6vV7fddlvI9nU6nZo9e3bI1gcAAACAcPPGJ9/pzmXmay/GnDhcD96arCvPpfYCAIC+KKKC5eLiYkn/fLBea4uH3++3bSYAAAAA6Eu+De7Rr57yacU75k4oHzMoWnnXnadf/IDaCwAA+rKICpYDgUC7h+m1SktLs3EqAAAAAIh8B5paVFD6ue5f9YF27G0ytcb1F5ym+2+aoFNGHGvxdAAAINxEVLDscrlUWVnZLlxOT0/X5MmT7R4NAAAAACLWm59Wa9ay9dr0lbnai9EnDNOD05I1+dwTLZ4MAACEq4h6eF9qampb/YV0MGhevnx5yPfdsGFDyPcAAAAAgN72bXCPZj78tn54f6mpUPmYQdG6O2Oc3r3vakJlAAD6GYdxaFIb5hoaGhQbG9tWg1FUVKQbbrgh5PtGR0erubk55PsAfVVNTY0SEhLaXauurlZ8fLxNEwEAAPRvTc0tKij5XPf1oPbiupRTdf9NHp06ktoLAADsYHfeElFVGDExMVqxYoUyMzPlcDhUWVkZ8j0rKysVQdk7AAAAABzRW59Va9ayMn38ZdDU/aNPGKYHbk1W6nmcUAYAoD+LqCoMSUpPT9eKFStkGIbmz5+vrVvNPam4q3w+X7sHBQIAAABAJPouuEfZBW/rB/eVmgqVhw6K1m//UXtBqAwAACLqxHKr9PR0vfrqq5oyZYrS0tJUXl6uYcOGhWSv+fPnh2RdAAAAAOgNTc0tKiz9XPet+lCNew6YWuPHyadqwU+pvQAAAP8UcSeWW3m9Xvn9fg0fPlxOp1OPPvqo5XvMnTtXPp/P8nUBAAAAoDe8/Vm1Lv/Ny8p7wmcqVHYff5xW/XKSnviPywmVAQBAOxH18L477rjjsGvbt29XcXGxHA6HnE6nvF6v4uLiTO9RV1enQCCgQCCgYDAowzDkcDh4eB/QA3aXyQMAAPQ31Q17dNfyDXryTXPPpRk6KFqzf3yO/uOHZ2vwwGiLpwMAAFawO2+JqCqM7du3a+XKlYdddzgcMgxD9fX1Ki4u7vE+EZS1AwAAAECbpuYWPbJ6s36/6gM17DZXe/GjpFO04OYkncYJZQAAcAQRFSxnZ2e3nU7+fvjb+oA9q0Jhq9cDAAAAgFB65/MazVq2Xh9+ETR1vyvhOC26NVlTxp1k7WAAAKBPiqhg2ev1yuVyqbKysi34lQ6Gv62VFYdeBwAAAIC+rqZxr+5avkFPvBEwdf+Qgf+svRgyiNoLAADQNRH38L7s7Oy2U8St/0mgDAAAAKC/aWpuUUHJZ5qQ+5zpUPkazykqW3CNcn9yLqEyAADoloh6eJ8kNTQ0KDY2tlerKnh4H9AzdpfJAwAA9DXvbq7RrKVl+uCLelP3uxKO08Jbk3TVuJMtngwAAPQWu/OWiDuxHBMTI4/H0xYo5+fny+/3q6WlxdJfZWVlSk1NtfmjBQAAAIB/qmncqzsWv6u0e0tMhcpDBkbr1zecp/fuv4ZQGQAA9EhEdSy3ys7O1u23367s7GzNnj07JHt4PB6VlJTI7XarqqoqJHsAAAAAQFc0t7Tor2u26J7ijQruPmBqjasnnKz8W5I0Kv44i6cDAAD9UcSdWJakrKwsSZLb7Q75Xjk5OSHfAwAAAAA6897mGk387Su6c1mZqVB5VPyxWvFfE7X8vyYSKgMAAMtEZLAcExMjr9crv98f8r28Xm/I9wAAAACA76tp3KufP/KuvPeWaOPW7tdeDB4YpXnXn6f351+jH06g9gIAAFgrIqswJCkvL0/BYDDk+3g8Hk2dOjXk+wAAAACAdLD24v9e8+ue4o2q37Xf1Bo/GH+SFt6SrMQETigDAIDQiNhguTcfrLdixYpe2wsAAABA/7XeX6s7l67Xhqrun1CWDtZe5N+SpKsnnGLxZAAAAO1FbLDcHY2Njaqrq1NcXJyGDx9u9zgAAAAA0E7tjr26e8VGLV1nru5v8MAo3XnNWP3XtWM1dFC/+GseAACwWUR2LB9JVVWVHnjgAV111VUaMWKEoqOjFRsbK7fbrdjYWEVHR2vEiBG66qqr9MADD6iqqsrukcNOMBhUTk6OkpKSemW/0tLStv1iY2PlcDgUGxurpKQkZWRkqLi4mBl6aQYAAAD0ruaWFv11zWZ5cp83HSpPGXeS3r//Gs274XxCZQAA0GschmEYdg9hhTVr1ig/P1+lpaVt1470oTkcjrbfezwezZs3T9dff31IZwx3wWBQeXl5KiwslCS5XK6QPiCxsLDwsK5sp9Mpl8ulQCBw2PW5c+cqNzeXGUIwQ6jV1NQoISGh3bXq6mrFx8fbNBEAAID9yvy1mrWsTL7KOlP3nz6ytfbi5HZ/vwEAAP2D3XlLxJ9Ybmxs1FVXXaW0tDSVlpbKMIy2Xw6Ho9Nfh76uvLxc6enpOuOMM7Rx40a7P6Re1xoox8bGtoXKod4vLS1NOTk5baGp1+tVeXm56uvr2/6zvr5e2dnZ7WZMS0uz5KGNzAAAAAC71O7Yq3//63uafM+rpkLlwQOjNOe6c7V+wTW6xnMKoTIAALBFRJ9Y3rBhg1JTUxUMBttOJ3//i6rOrnf0mtbXLVy4ULNmzQrBxOElGAxq/vz5WrhwYYf/PBQnlgOBgJKSktqForm5ucrPz+/0nuLiYmVkZLT92el0qry8XC6Xixl6MENvsvs7aAAAAOGguaVFS9cFdPeKDarftd/UGlPOP1ELb02W+/hhFk8HAAAijd15S8QGyxUVFUpOTj4sOG49qWxW6/0ZGRl6+umnLZk13BwtUG5ldbAcDAaVlJSkQCDQdi09PV1FRUVHvTcvL6/dvE6nU5WVlXI6ncxgYobeZvcbHQAAgN3KA9s1a9l6lQfM1V6cNvJYLbjZo2s5oQwAAP7B7rwlIoPlhoYGJSYmKhgMdvhFVUcfktPpVFxcXNuf6+rqDqsS+H44nZOToz//+c/WDm+zhQsXKi8vTy6XSx6PR5I6fSic1cFya13Joerr67scirrd7nZhrNfrVUlJCTOYmKG32f1GBwAAYJftO/bpnuKN+r+1W2Tmb16DBkTpP68+W7N+dI6OGcyD+QAAwD/ZnbdEZMdyRkZGh6Fya2eyx+NRfn6+SkpK5Pf71dLSorq6Om3ZsqXtV11dnVpaWlRfX6+SkhLl5uYqMTGxLZQ2DEMFBQV69NFH7fgQQyIvL0/bt2+X3++X3+9XUVFR269QKywsPCxMzc3N7dZJ2+/XRJSWlh711DUzAAAAwA4tLYaWrN0iT97z+utr5kJl73kn6r37r9Zd6eMIlQEAQNiJuBPLq1evVlpaWrtQ2TAMuVwu5eXlKTMzUzExMabX9/l8ysvL0+rVqyVJsbGxqqys1PDhw3s8ezjr6OS3lSeWY2NjDzsh3p1Tulaswwz2sfs7aAAAAL2porJOdy5dr7LAdlP3nzriGC24OUk/SqL2AgAAdM7uvCXiTizn5eW1/d4wDMXExKioqEhbtmzRzJkzexQqS5LH41FJSYkefvhhSQf7cOfMmdOjNSNBKAPJ4uLiw0JQr9dras/MzMzDrs2fP58ZujgDAAAAQqdu5z7955L3NfHul02FyoMGRGn2j89R2YJr9ePkUwmVAQBAWIuoYLmyslI+n08Oh6Ot8qKyslJTp061fK/s7Gw9/PDDbZUYfd2h/dNW6yjwzMjIMLVWR/ctXLjwsMCWGQAAANBbWloMLV3n14Tc5/XoGnO1F6nnnqB377tav6H2AgAARIiICpYPfchcUlKSysrKenxC+Uiys7PbQutnnnkmZPv0ZT6fTz6f77DrXq/X1Hqd3VdYWMgMR5kBAAAA1ttQVafUe1/VLx59T3U793X7/lPijtHj/365npl9pcac2Lfr9wAAQN8SUcFySUlJ2+9bO5BDLScnR4Zh6Omnn+6V/fqazuoZXC6X6TU7unf58uXMcJQZAAAAYJ26nfv0X0vW64rfvqwyf/drLwZGR2nWj8aqLP9a/SSF2gsAABB5IipYrqurk8PhUG5ubq89TK/1ZGggEOiV/fqa0tLSw655PJ4erdnR/T6fr9MaCGYAAACAVVpaDC1b55cn73k9smazqdqLyeeeoHfvv1p3Z4zXsdReAACACBVRwXJruJuTk9Or+zqdToJlEwKBQIchZ3Jyco/WTUlJ6fD6ihUrmKGTGQAAANBzG6rq5L33Vf3bo+9p+47u116cHHeMHvvFZXp29pU6g9oLAAAQ4SIqWG4N50aNGtXr+3IKtPs6OqUrSW63u0frdnbS99CqFGYAAACAVep37desZes18bevaL3J2os7rx2rsgXX6LoLTqP2AgAA9AkR9XNXTqez178Iq6ysbNsb3dNZwNmTXmFJiouL6/B6Rw/HYwYAAACY1dJi6Mm3KnXX0xWqNXFCWZKuPOcELbo1SWeeFLqHjgMAANghooJll8ulioqKXt2zoKCgbW90T2cBZ09D+s4+Fx3VlTADAAAAzPhga73uXLZe722uNXX/SbFDteDmJF3Hg/kAAEAfFVFVGK1B2muvvdYr+1VWVmrhwoVyOBwEyyZ0FnD29L/LIwWy39+TGQAAANAdwV379ctlZbr8Ny+bCpUHRDv0n9ecrfL8a3U9tRcAAKAPi6hg2ev1yjCMtlPEodTY2Ki0tLS2Px/6exzdkTqpO6tw6I7OQtVDTwczAwAAALqqpcXQE28E5Ml7XgWln6vFMLq9xsSxx+ud31+te7Mm6LghA0MwJQAAQPiIqGA5KytLklRUVKRnnnkmZPusWbNGiYmJbf3KkpSZmRmy/fqiurq6Tv9Zb/VVMwMAAAC64sMv6nXVfaW6ffG7qmnc2+37T4wdqqX/dqmey5uss06mSxkAAPQPEdWxHBMTo9TUVK1evVrp6ekqLi7W9ddfb9n6a9asUX5+vkpLS2X844SCw+FQenq6hg8fbtk+/YFdVQyHBrnMEN5qa831FXZFfHx8yNYGAAB9R3DXft3/zAcqKNls6oTygGiH/u2qs5T3k3M1bCgnlAEAQMdqampCsm4os5WuiKhgWZLy8/OVnJwswzCUnp6unJwcLViwwHTwW1VVpeLiYhUUFLSFgIZhyOFwtIXL+fn5ls3fXxypAsIKcXFxHe5x6DVmCG9jx44N2dqGib8YAgCA/sMwDD31VqV+/fQGUyeUJemKs4/Xg9OSOaEMAACOKiEhwe4RQiLigmWPx6OpU6dq5cqVbX3LBQUF8nq9ysjIkNfr1ahRozq8t6qqSoFAQD6fT+vXr1dpaWlbAHdoENUaKjscDuXm5na6Hjpn14nZ7du3M8P3ZgAAAMA/ffRFve5cVqZ3Pjd3cugE51DN/+kETb3wdB7MBwAA+rWIC5algx3LbrdbVVVVbYFwaWmpSktL272utcO2s9Ob3w+TD+VwOOT1ejV//nzrBu9HrHgw3ZF0pZ+YGQAAANCqYfd+3b/qQxWUfq7mFnO1F3dMOVNzrzuP2gsAAABFaLAsSeXl5UpMTFRjY6Okjn/0vb6+/ohrdHbCwDAMJSUl6ZVXXun5oP1UqAPPzr5ZMGLECGb43gwAAAD9mWEYWv52lX71dIWqG8zVXlx+doIevDVZZ5/itHY4AACACBaxwbLT6VRlZaVSU1NVUVFh+sfQWisvDv1zRkaGli9fbtWo/VKoT+p25tAglxnC26ZNmzRy5Ei7xwAAAH3Yx18Gdeey9Xr7M/O1F/ffNEHpF1F7AQAAzKuurg7JurW1tSF9htXRRGywLB0Mz8rLy5WXl6dFixZJ6vgU8vdPMx/6mtbfG4Yhp9OpxYsXa+rUqSGcun8IdbDZWXexy+Vihu/NEK5Gjhyp+Ph4u8cAAAB9UOOeA7p/1Qd6uMRc7UV01D9qL64/T8OpvQAAAD3UV/OPKLsHsEJ+fr7q6+s1e/ZsGYbR7pd0MDw+9Jekdq+JiYlRQUGB6urqCJUtcqSTup3VN1i9LzMAAAD0LwdrLyrlyX1O/98rn5kKlS87K0Fv//6Hmv9TD6EyAADAEUT0ieVDxcTEKD8/X/n5+Vq9erVKSkpUWlqqQCBwWIDncrnkcrmUlpYmr9erCRMm2DN0H2ZXt/Ch+zIDAABA/7Hpq6DuXFqmtz4z96Omx8cM0f03eZRxMbUXAAAAXdFnguVDpaamKjU11e4x+j2PxyOfz3fY9UAgII/HY3rdI530/X4FBDMAAAD0bY17Dmj+Mx/qL6+aO6EcHeXQ7WlnaN4N53NCGQAAoBsitgqjqqpKjY2Ndo+BI/B6vR1e76wXuKs6u7+jkJYZAAAA+ibDMLTi7Sol5T2v/335U1Oh8iVnxuute3+oBTcnESoDAAB0U8QFy3fccYeio6PldrsVGxurG2+80e6R0ImUlJQOrwcCgR6t29n9HQW4zAAAAND3fPJVUFfPX62fPfy2vg3u6fb9CTFDtDjnYr08z6tzTnVaPyAAAEA/EFFVGHPmzFFBQUG7a0VFRfJ6vbrttttsmgqd6Szg9Pv9PVq3swqItLQ0ZuhkBgAAgL5gx54Dmv/swdqLpubun1COcrTWXpynmGMGhWBCAACA/iOiguXi4mJJanuYhmEc/GKypwEdQsPpdMrpdB4WgHbUN9wd69ev7/B6cnIyM3QyAwAAQCQzDEMr39uqeU9V6Jv67p9QlqSLz4jXQ9OSde5psRZPBwAA0D9FVBVGIBCQw+FoC5RbcUIzfGVnZx92raysrEdrdhTIejweOZ1OZjjCDAAAAJHo020NunbBGv3Ln982FSrHDx+iwpyL9cqvvITKAAAAFoqoYNnlcklSW7jscDiUnp6uyZMn2zwZOpOTk3PYtWAw2GmNQ1d0FMhmZWUxw1FmAAAAiCQ79hzQr5+u0MW/flGvf/Jdt++Pcjh0x5Qz5Mu/Vjddmtj2U48AAACwRkQFy6mpqe1OK7tcLi1fvjzk+27YsCHke/RVLpdLHo/nsOulpaWm1gsEAh2GsR2dCGYGAACAyGMYhla+u1XJc57Xf7/4iaku5YvGxOvNe3+ghbcky3ksXcoAAAChEFHB8sKFC9t+73A4lJ+f3yv7JiUl9co+fVVHp3XNfkOgtWf7UNnZ2Uetf2AGAACA8Pfptgb9KH+NZvz5LX1tsvbi4ZkX6ZVfeXUetRcAAAAh5TC+X1gc5oqLi5WZmSmHw6GFCxdq1qxZId2vsrJSbrdbLS0tId3HbrGxsYedgHW5XJY9GLGj9c38T8/tdisQCLS75vf722pSmOHoM9ihpqZGCQkJ7a5VV1crPj7epokAAEA42bn3gPL/9pH+9+VPTZ1QjnI4lO0do1/dcD4nlAEAQL9hd94SUSeWJSk9PV0rVqyQYRiaP3++tm7dGtL9fD4ffWwWmDt37mHXCgsLu7WGz+c7LEzNzc3tcpjKDAAAAOHFMAw98/4XSsp7Xn98wVztxYVjRuqNe36gRbdSewEAANCbIu7EcqvS0lJNmTJFo0ePVnl5uYYNGxaSfZKTk1VRUaHm5uaQrB8uOgrPnU6n6uvrLdsjKSlJPp/P9Prfv9/MiWpmsIfd30EDAADh57OvGzT7sXK99vG3pu4fOWyw7r1xgn56aaKiojgIAgAA+h+785aIO7Hcyuv1yu/3a/jw4XI6nXr00Uct32Pu3LntAry+qrMHyHX0cLieKCoqatcBHAwGlZeX16V7CwsLD/tclJSUMIPJGQAAAOyyc+8B/Wb5Bl38q5dMhcqttRe+hT/SLZe7CJUBAABsElEnlu+4447Drm3fvl3FxcVyOBxyOp3yer2Ki4szvUddXZ0CgYACgYCCwaAMw5DD4ejTJ5a/fwL2UPn5+crNzbVsr0AgoKSkpHahdUFBgbKzszu9p7S0VGlpae2ulZSUyOv1MkMPZuhNdn8HDQAA2M8wDP1t/Zea86RP2+p2m1ojxT1CD01P0fhR5r/eBwAA6CvszlsiKljOzMzUypUrO/xnrR+GFX3I3/+vpC8Gy4FAQMXFxSooKDisr/f7cnNzlZaWpuTk5HYnbXuyd0ZGRrswOz09Xfn5+e16gltP8h7aQexyuVRSUtLjPmFm6F12v9EBAAB7ff5No2Y/VqY1H5mrvRgxbLDuyRzPCWUAAIBD2J23RFSw3Nqr7HA4Ogx/pcNDYbMOXa+vBMuBQEBut9uStfx+f49DzcLCQuXl5bU7tet0OuVyuRQMBjt8QF1+fn6P9mQGe9j9RgcAAOyxa1+TFv39I/3pxU91oLml2/c7HNJtk8fo11PPV9xxg0MwIQAAQOSyO2+JqGBZkkaPHq3Kysp216w8rfx9fSlYDlelpaUqKipSWVlZWwWJ0+lUXFycPB6PsrKy5PV6LTktzQz2sPuNDgAA9C7DMPT3sq8054lyfWWy9iLZPUIPTUvRhERqLwAAADpid94SccHywoULNWfOnLZTy6EIkw9FsAz0nN1vdAAAoPds/qZRuY+Xq/TDb0zdH3fcYN2TNV63UnsBAABwRHbnLREXLDc0NCg2Ntby6osjIVgGesbuNzoAABB6u/Y16YG/f6w/vfSJ9jeZq7342ZVjdFc6tRcAAABdYXfeEtUru1goJiZGHo+nLVDOz8+X3+9XS0uLpb/KysqUmppq80cLAAAAhLeDtRdfKmXO83rguY9NhcrJrhFa+9ur9IcZKYTKAAAAEWKA3QOYkZ2drdtvv13Z2dmaPXt2SPbweDwqKSmR2+1WVVVVSPYAAAAAItmWbw/WXpR8YL724neZ4zTtCje1FwAAABEm4k4sS1JWVpYkye12h3yvnJyckO8BAAAARJLd+5p0T/FGXTjvRVOhssMh/euVo+XLv1YzJo0mVAYAAIhAEXliOSYmRl6vV36/P+R7eb1ezZ07N+T7AAAAAOHOMAw97/tKc57w6YvaXabW8CTG6aHpKUpyjbB4OgAAAPSmiAyWJenWW2/tlQf3eTweTZ06NeT7AAAAAOHM/90O5T5WpldN1l7EHjtId2eO1/SJLkVHReQPTgIAAOAQERcs33HHHSosLGz784svvqinn346pHuuWLEipOsDAAAA4Wr3viY99Pwm/eGFTaYezOdwSDMmjdZv08dpxDAezAcAANBXRFSwPGfOHBUUFLS7VlRUJK/Xq9tuu82mqQAAAIC+xzAMvVixTXmPl2trD2ovHpyWrGT3SIunAwAAgN0iKlguLi6WJDkcBx/u0VqF0RtdywAAAEB/Efhuh3IfL9crG782dX/ssYN0d8Y4TZ/kpvYCAACgj4qoYDkQCMjhcMgwjLZwWZLS0tJsnAoAAADoG/bs/2ftxb4D3a+9kKTpE926O3OcRg4bYvF0AAAACCcRFSy7XC5VVla2C5fT09M1efJku0cDAAAAItqLFV8p7/FyVdWYq72YMCpOD05PVgq1FwAAAP1CRP1cWmpqalv9hXQwaF6+fHnI992wYUPI9wAAAADsUFm9UxkPrVXWH143FSrHHjtIf5yRotfunkKoDAAA0I84jEOT2jDX0NCg2NjYthqMoqIi3XDDDSHfNzo6Ws3NzSHfB+irampqlJCQ0O5adXW14uPjbZoIAADs2d+kP77wiR58/mPTtRfTJrp1d8Y4xQ+n9gIAAKC32Z23RFQVRkxMjFasWKHMzEw5HA5VVlaGfM/KykpFUPYOAAAAHNVLFduU+3iZ6dqLcafH6sFpybpwDN8kBgAA6K8iqgpDktLT07VixQoZhqH58+dr69atId3P5/O1e1AgAAAAEKmqanYq8w/rlPmHdaZCZecxA/XQtGSt+91VhMoAAAD9XESdWG6Vnp6uV199VVOmTFFaWprKy8s1bNiwkOw1f/78kKwLAAAA9Ja9+5v1xxc36cHnNmnvAXMVb7dc7tI9WeOpvQAAAICkCDyx3Mrr9crv92v48OFyOp169NFHLd9j7ty58vl8lq8LAAAA9JZXNm7ThfNe0H2rPjQVKp9/WqxK70rTX2ZeRKgMAACANhH18L477rjjsGvbt29XcXGxHA6HnE6nvF6v4uLiTO9RV1enQCCgQCCgYDAowzDkcDh4eB/QA3aXyQMA0B9trdmpvCd8esH3lan7Y44ZqN+kj9PPJo9WdFTEnkcBAADos+zOWyKqCmP79u1auXLlYdcdDocMw1B9fb2Ki4t7vE8EZe0AAABAO3v3N+u/X9ykB3pQe3Hz5S7dS+0FAAAAjiCiguXs7Oy208nfD39bH7BnVShs9XoAAABAqL28YZvyHi9XoHqnqfvPO82pB6el6OIz+KkiAAAAHFlEBcter1cul0uVlZVtwa90MPxtraw49DoAAADQH1TV7FTu4+V6qWKbqfuHDx2ou6aer9tSx2hANLUXAAAAOLqI+6oxOzu77RRx638SKAMAAKA/2rO/SfOf+VApc14wHSrfdGmiKhZeq9unnEmoDAAAgC6LqIf3SVJDQ4NiY2N7taqCh/cBPWN3mTwAAH3RSxXblPdEuSpN1l6ce6pTD05L1iVnJhz9xQAAAAg7ductEXckISYmRh6Ppy1Qzs/Pl9/vV0tLi6W/ysrKlJqaavNHCwAAALRXWb1TmX9Yp8w/rDMVKg8fOlALb0nSG/f8gFAZAAAApkVUx3Kr7Oxs3X777crOztbs2bNDsofH41FJSYncbreqqqpCsgfQn9XW1nb5tZxsBgBA+rJ2lx59bbP+9+VPte9Ai6k1brp0lO7NmqDjnUMtng4AAABWqqmpOeprupOthEJEBstZWVm6/fbb5Xa7Q75XTk6O5s6dG/J9gP5m7NixXX5thDX2AABgmQNNLXppwzYtXbtFJR9+I7P/SjznH7UXl3JCGQAAICJ8v+IiHEVksBwTEyOv1yu/3x/yvbxeL8EyAAAAepX/ux1autavJ94MqLphr+l1hg8dqF9PPV8zU8fwYD4AAABYKiKDZUnKy8tTMBgM+T4ej0dTp04N+T4AAADo3/bub9bfy77U0nV+vf7Jdz1e76eXJererPFKiKH2AgAAANZzGPyMOYAQ6+gppd3B2xQAoC/75Kuglqz166m3KlW/a3+P1zvvNKcenJaii8/gGQUAAACRyuFwmLqvurq6155VFbEnlnuqoqJC5eXlyszM1PDhw+0eB+h3Nm3apJEjR9o9BgAAtti1r0kr392qJWu3aL1/uyVrxhwzUHdNPV8/m0ztBQAAQKSrrq4+6mtqa2u79Qwrq/XbYDkQCCg7O1s5OTlyuVzyer1KS0uT1+slaAZ6wciRI3vtO2gAAIQDwzBUUVmnJev8Kn6nSjv2Nlm29s2Xu3RP5jhqLwAAAPqISMhM+m0VRkNDg2677TatXLlSUvvj5R6Ppy1onjx5sl0jAn1GR1UYvfmjGQAA2Cm4a7+K3qnSkrV+ffBFvaVrjzs9Vg9MS9ZFY/h3KgAAQH9jd95ie7Dc2NjY9vu6urq23weDQblcrpCfHg4EAsrJydHq1avbXT80aE5KStL7778f0jmAvszuNzoAAHqbYRh65/MaLVnr17Prv9Ce/c2WrT0g2qFrPKdo+kS3Us89UVFR5vr3AAAAENnszltsq8KIjo4+6msKCgp02223hXQOl8ulkpISFRcXKzs7Ww0NDTIMo93DwsrLy0M6AwAAAPqGmsa9euqtSi1d69fn3zQe/YZucB8/TNMnuXXzZYlUXgAAAMB2tgXLRzoo7XQ65fV6lZyc3GvzpKeny+PxKCkpqd0p6n7aFAIAAIAuamkxtG7Td1qydoueK/9KB5pbLFt78MAoXZdymmZMcuvSMxNMPx0cAAAAsJqtD+879AtjwzCUnp6uuXPnasKECbbM43K5VF5ertGjR/NFOwAAAI7om/rdevyNgJat86uqZpela59zqlMzJrqVeckoxR032NK1AQAAACvYGixLBwNlh8OhoqIiTZ069YivXbVqlel9PB6PRo0addTXuVwurVixQpmZmYTLAAAAaKepuUWvfvC1lq7165WNX6u5xbqfbjt28ABNveh0zZjkVrJrBF+LAgAAIKzZHiw7HA5lZ2cfNVSWpNtuu00NDQ2m9snPz9cvf/nLLr02PT1dLpdLlZWVpvYCAABA37K1ZqeWrfPrsTcC+qZ+j6VrJ7niNH3iaKVfdLqGDR1o6doAAABAqNgaLLeeVs7Ly+vS61evXq2ysjK9+uqrWrly5VFf7/F45PV6lZKSIq/X263ZcnNzdfvtt3frHgAAAPQd+5ua9YJvm5as3aLXPv5WVj56w3nMQGVdkqjpk9w677RY6xYGAAAAeonDsOnpdFFRUXI4HHI6ndq+fXu3729oaFBubq4WL1582I8JTpgwQUVFRUpMTDQ9X2Vlpdxut6SDp6qbm5tNrwX0dzU1NUpISGh3rbq6WvHx8TZNBABA5z7/plFL1m7Rk29WavuOfZaufcmZ8ZoxabSuSzlVQwfZ/sODAAAAiGB25y22fzWbnJxs6r6YmBgVFBSorq5OK1eulMPhkGEYcrvdKisr6/FciYmJcjqdCgaDPV4LAAAA4W3P/iY9u/5LLVm7RW9/VmPp2iOHDdZPL3Np+iS3zjhxuKVrAwAAAHaxPVh2Op09un/evHlttRjdqdXoCpfLJZ/PZ9l6AAAACC8fflGvJWu3aPnbVWrYfcCydR0OafI5J2jGpNG62nOyBg2ItmxtAAAAIBzYHizHxcX16P4JEyZI+mdfc3e7lI+EYBkAAKDv2bHngIre3apl67aoPFBn6donxg7VrZe7NG2iW6fHH2fp2gAAAEA4sT1Y7umJZelgABwIBCT1PKj+/roAAACIfIZhqCywXUvW+rXy3a3ata/JsrWjoxy6atxJmjFptNLOP1EDoqMsWxsAAAAIV7YHy1Y4NJwePpzeOgAAABxUt3Oflr9dpSVrt2jTVw2Wrj0q/lhNmzhat1yeqBNjj7F0bQAAACDc9Ylg2cpTyocaMWJESNYFAABA6BiGoTc/rdbSdX49u/4L7TvQYtnaA6Oj9KOkUzRj0mhNHHu8oqIclq0NAAAARJI+ESwDAAAA1Q179MSblVq61i//dzssXfuME4drxiS3brosUSOHDbF0bQAAACASESwDAAAgYjW3tGjNR99qyVq/Xqz4Sk3NhmVrDx0UresvOE3TJ7p18Rnxcjg4nQwAAAC0IlgGAABAxPlq+y499npAj73u15fbd1u69vmnxWrGJLcyLh4l57GDLF0bAAAA6CsIlgEAABARDjS16OWN27RkrV+lH3yjFsO608nDhgxQxsWjNGPSaI0fFcvpZAAAAOAoCJYBAAAQ1gLf7dDSdX498UZA3zXstXTtC0aP1PSJbt1w4Wk6bshAS9cGAAAA+jKC5SPYvn273SMAAAD0S3v3N+u58i+1dJ1f6zZ9Z+nasccO0k2XJmr6JLfGnuK0dG0AAACgvyBYPoJAIGD3CAAAAP3Kp9satGTtFj35ZqXqd+23dO0rzj5eMya59aOkUzVkULSlawMAAAD9DcHyERAsAwAAhN6ufU1a9d5WLV3n13ubay1dOyFmiG653KVpE91yHz/M0rUBAACA/sz2YDmcw1ufz2f3CAAAAH1WRWWdlq7boqJ3tqpxzwHL1nU4pLTzTtT0SaP1w/Ena+CAKMvWBgAAAHCQ7cFycXGx5s2bp+TkZNNr1NXVtf3+mWeekdHDJ4TX1dWpqKioR2sAAADgcA2796vona1asnaLNm6tt3TtU+KO0bSJbt16hUunjDjW0rUBAAAAtOcweprCmhQVFSWHwyHDMORwOHq8XuuHYcVa31/X4XCoubnZ0nWB/qSmpkYJCQntrlVXVys+Pt6miQAAvckwDL27uVZL1m7RM+9/oT37rfu6akC0Q1dPOEXTJ7qVet4Jio7idDIAAAD6B7vzFttPLLeGy1axci2rQ2oAAID+pHbHXj31ZqWWrvPrs68bLV3bffxxmjZxtG6+LFHHO4daujYAAACAo7M9WA73E8sAAADoupYWQ69/8p2WrN2i58q/0v6mFsvWHjwwSj9JPlUzJo3WZWcl8HUfAAAAYCPbg2XJ2lPGnFgGAADofd8G9+ix1wN67HW/Kqt3Wrr22SfHaMYkt268NFFxxw22dG0AAAAA5oRFsByOAa5N1dMAAAARo6m5RSUffKOl6/x6ecM2NbdY9/XTMYOiNfWi0zVj0miluEeE5deLAAAAQH9me7Dc+peEcAty+csLAABAx76o3aVl6/x67HW/vq7fY+nansQ4TZ80WukXna7hQwdaujYAAAAA69geLBuGIafTKa/XK5fLpREjRkiSnE5nr84RDAYlSdu3b1cgEFBxcXGv7g8AABDO9jc160XfNi1d59fqj76RlWcCYo4ZqKxLRmn6xNE6//RY6xYGAAAAEDK2B8tpaWl65ZVX7B7jMMFgUDNnztTKlSvtHgUAAMA2m79p1NJ1fj3xRkC1O/ZZuvbFZ8RrxiS3rks5TccMtv3LUgAAAADdYPtX8EVFRXaP0CGn06mioiLFxcWpoaHB7nEAAAB6zZ79Tfrb+i+1ZK1fb31WbenaI4YN1k8vS9S0K9w66+QYS9cGAAAA0HtsDZbT09M1fPhwO0c4qtTUVK1atcruMQAAAELuoy/qtWStX8vfrlRw9wFL15587gmaPtGtazynaPDAaEvXBgAAAND7bA2WU1JS7Ny+S6ZMmUKwDAAA+qwdew5o5XtbtXStX2WB7ZaufWLsUN1yuUvTJro1Kv44S9cGAAAAYC9bg2WXy2Xn9l0SGxsrw8qn0wAAANjMMAyVB7ZryVq/Vr63VTv3Nlm2dpTDoavGn6QZk9yacv5JGhAdZdnaAAAAAMKHbcFyeXm5JkyYYNf2XZaenq7y8nK7xwAAAOix+l37tfytSi1d59dHXwYtXfv0kcdq2kS3brncpZPijrF0bQAAAADhx7ZgORJC5VaRNCsAAMChDMPQW59Va+lav55d/6X2Hmi2bO2B0VG6NukUzZjk1qSxJygqymHZ2gAAAADCm61VGAAAAAiNmsa9euKNgJau82vLtzssXXvMicM1Y5JbN12aqPjhQyxdGwAAAEBkIFgGAADoI1paDK356BstWefXC76v1NRs3XMihgyM1vUXnKbpk9y65Ix4ORycTgYAAAD6M4JlAACACLetbrcef92vZa8H9EXtLkvXPu80p2ZMGq3Mi0fJeewgS9cGAAAAELkIlgEAACJQU3OLXt7wtZas3aKSD75Ri2Hd6eTjhgxQxsWjNH2iW57EOE4nAwAAADgMwTIAAEAEqazeqaXrtuiJNyr1bXCPpWsnu0doxqTRmnrhaTpuyEBL1wYAAADQtxAsAwAAhLl9B5r1fPlXWrJ2i9Zu+s7StWOPHaQbLx2l6RNH65xTnZauDQAAAKDvIlgGYIva2touvzY+Pj6EkwBA+Pp0W4OWrN2ip96qUt3OfZauffnZCZoxcbR+nHyqhgyKtnRtAAAAAD1TU1Nz1Nd0J1sJBYJlALYYO3Zsl19rWNgbCgDhbve+Jq16/wstXevXu5uP/sVkd8QPH6KbL0/U9IlujT5huKVrAwAAALBOQkKC3SMcFcEyAABAGNhYVacla/1a8U6VGvccsGxdh0Pynneipk8crasnnKyBA6IsWxsAAABA/0WwDAAAYJPGPQdU9E6Vlqzdog1V9ZaufXLcMZp2hUu3XuHWqSOPtXRtAAAAACBYBgAA6EWGYei9LbVastavZ97bqt37my1bOzrKoasnnKzpk9zynneioqM4nQwAAAAgNAiWAdhi06ZNGjlypN1jAECv2b5jn55+q1JL1vn16bYGS9d2JRynaRPduuVyl453DrV0bQAAAAC9r7q6+qivqa2t7dYzrKxGsAzAFiNHjlR8fLzdYwBASLW0GHrj0++0ZK1ffy/7UvubWixbe9CAKP0k+VRNn+TW5Wcdr6goh2VrAwAAALBXJGQmBMsAAAAW+za4R4+/EdBj6/wKVO+0dO2zTo7RjIlu3XhpokYMG2zp2gAAAADQVQTLAAAAFmhuaVHph99oyVq/XqrYpuYWw7K1jxkUrRsuPF0zJrl1weiRcjg4nQwAAADAXgTLAAAAPfBF7S499rpfj70e0La63ZauPWFUnGZMciv94lEaPnSgpWsDAAAAQE8QLAMAAHTTgaYWvVjxlZau86v0w29kWHc4WcOHDlTmxaM0Y5Jb40bFWbcwAAAAAFiIYBkAAKCLtnzbqKXr/HrijUrVNO61dO2LxsRrxiS3rr/gNB0zmC/RAAAAAIQ3/tYCAABwBHv3N+tvZV9oyVq/3vy02tK1444brJ9elqjpE9066+QYS9cGAAAAgFAiWAYAAOjAx18GtXTdFj39VpXqd+23dO0rzzlB0ye6dW3SKRo8MNrStQEAAACgNxAsAwAA/MPOvQe08r0vtGTtFpX5t1u69gnOobrlcpemTXQrMeE4S9cGAAAAgN5GsAwAAPo1wzDkq6zTkrVbVPzuVu3c22TZ2lEOh6aMO1EzJo3WVeNO0oDoKMvWBgAAAAA7ESwDAIB+Kbhrv1a8U6Ula7fowy+Clq592shjNe0Kl265wq2T446xdG0AAAAACAcEywAAoN8wDENvf16jpWu36Jn3v9TeA82WrT0wOkrXeE7WjEmjdeU5JygqymHZ2gAAAAAQbgiWAQBAn1fTuFdPvlmppev82vxNo6Vrjz5hmGZMGq2fXpao+OFDLF0bAAAAAMIVwTIAAOiTWloMvfbxt1q6zq/ny7/SgeYWy9YeMjBa16WcqumTRuvSM+PlcHA6GQAAAED/QrAMAAD6lK/rduvxNwJats6vrbW7LF373FOdmjHJrcxLEhV77CBL1wYAAACASEKwDAAAIl5Tc4te2fi1lqzdolc3fqMWw7Bs7eOGDFD6Radr+kS3klwjOJ0MAAAAACJYBgAAEayqZqeWrfPr8TcC+qZ+j6VrJ7tHaPpEt6ZeeLqGDR1o6doAAAAAEOkIlgEAQETZd6BZL/i+0pK1fr328beWru08ZqBuvDRR0ye6de5psZauDQAAAAB9CcEyAACICJ993aAla/166q1Kbd+xz9K1LzsrQTMmufXj5FM1dBBfHgEAAADA0fA3JwAAELZ272vSs+u/0JK1fr3zeY2la48cNlg3X+7S9IlujTlxuKVrAwAAAEBfR7AMAADCzgdb67Vk7RateKdKDbsPWLauwyGlnnuiZkxy64cTTtagAdGWrQ0AAAAA/QnBMgAACAuNew6o+J0qLV3nl6+yztK1T447Rrde4dItl7t0evxxlq4NAAAAAP0RwTIAALCNYRh6f0utlq7za+W7W7V7f7Nla0dHOfSD8SdrxiS30s4/UdFRUZatDQAAAAD9HcEyAADodXU79+nptyq1ZK1fn2xrsHTtxITjNG2iW7dc7tIJzqGWrg0AAAAAOIhgGQAA9ArDMPTGJ9VasnaL/l7+pfYdaLFs7UEDovTj5FM1faJbV5x9vKKiHJatDQAAAAA4HMEyAAAIqe+Ce/TEm5Vatm6L/N/ttHTtM08arhmTRuvGS0dp5LAhlq4NAAAAAOgcwTIAALBcc0uLVn/4rZas3aKXNmxTU7Nh2dpDB0XrhgtP14xJbl04eqQcDk4nAwAAAEBvI1gGAACW+bJ2lx573a/HXg/oq7rdlq497vRYzZg0WhkXn66YYwZZujYAAAAAoHsIlgEAQI8caGrRSxu2aenaLSr58BsZ1h1O1rAhA5R5ySjNmDRa40fFWbcwAAAAAKBHCJYBAIAp/u92aOlav554M6Dqhr2Wrn3hmJGaMWm0rr/gNB07mC9XAAAAACDc8Dc1AADQZXv3N+vvZV9q6Tq/Xv/kO0vXjjtusG66dJSmT3Tr7FOclq4NAAAAALAWwTIAADiqT74Kaslav556q1L1u/ZbuvbEscdrxiS3fpR0qgYPjLZ0bQAAAABAaBAsAwCADu3a16SV727VkrVbtN6/3dK1j48ZoluucGnaFW65jh9m6doAAAAAgNAjWAYAAG0Mw1BFZZ2WrPOr+J0q7djbZNnaUQ6H0s4/UdMnufWDcSdr4IAoy9YGAAAAAPQugmUAAKDgrv0qeqdKS9b69cEX9ZaufeqIYzRtolu3XO7SKSOOtXRtAAAAAIA9CJYBAOinDMPQO5/XaMlav55d/4X27G+2bO0B0Q5d4zlFMya6deW5Jyg6itPJAAAAANCXECwDANDP1DTu1VNvVWrpWr8+/6bR0rXdxw/T9Elu3XxZohJihlq6NgAAAAAgfBAsAwDQD7S0GFq36TstWbtFz5V/pQPNLZatPXhglK5LOU0zJrl16ZkJcjgclq0NAAAAAAhPBMsAAPRh39Tv1uNvBLRsnV9VNbssXfucU52aMdGtzEtGKe64wZauDQAAAAAIbwTLAAD0MU3NLXr1g6+1dK1fr2z8Ws0thmVrHzt4gKZedLpmTHIr2TWC08kAAAAA8P+3d6/BjZ3nneAfdut+M9hSS5ZtyRIoO7ZkJ2N0t2PHcdQTgTObzGSdzIDq3Gzpi8gvu/thUgWWardmq3a3Rsuera39sDVVpGZrJDvJVItMJlMzyWQXdNLyLRc1kThW5HgsQLZkW7YuDciSLevW2A9tMrwAJA5wQBygf78qVKkh4D3Pew74HvJ/XrznAiVYBoAx8c3nX4lPP1qLz3y+Hs82Xk217SP5Q3HPnbdF6SPvjqsvvzjVtgEAABg9gmUAGGGvv/lW/GH12/HQ6SfjT//2u9FKb3Jy5K64OE78zK1xz/Gp+ODNk+k1DAAAwMgTLAPACPqvz34/Hjr9ZPzuF56KF19+LdW2P/YT18c9x6fil4/dFJdf4lcFAAAAdvLXIgCMiFdffzP+4LFn4qHTT8aXvvZ8qm1fd/Wl8es/m497jk/Fe2+8JtW2AQAAGD+CZQDIuK883YiHTj8Zp770jXjph2+k1u7ERMTP3/H2uPf4bfGLhXfGJRcdTK1tAAAAxptgGRiKF154oevXHj58eICVQDa9/Oobsfzn34xPP/pkrNXPptr2jZOXxyc/no9P3TkV7z58VaptAwAA0L/nn9/7W6pJspVBECwDQ3H77bd3/dpWmncjgwxrtVpxpv5iPHS6Fr/359+MH7z2ZmptHzwwEf/4p94R9x6/LaZ/8sa46OCB1NoGAAAgXddff/2wS9iTYBkAhuzsK6/FqS99Ix46/WQ88a2XUm37lsNXxqfuvC1+8+O3xo2TV6TaNgAAABcuwTIADEGr1Yov/N1z8fCjtfiDx56O1944l1rbFx88EL905F1x7/Hb4s7bb4gDByZSaxsAAAAiBMsAsK+ee+nV+J0vPBUPn65F7Xsvp9r2e2+8Ju49PhW/9rO3xnVXX5Zq2wAAALCZYBkYiieeeCKuu+66YZcB++Ktc+fiTx7/bjx0uhZ/9FffijffSm/d8MsvORi/8uGb4547p+Kj7z0cExNmJwMAAIy65557bs/XvPDCC4nuYZU2wTIwFNddd10cPnx42GXAQH3rxR/EZz5Xj898rhbPvPjDVNv+yZsn497jUzHz0Vsid+UlqbYNAADAcI1CZiJYBoAUvfHmufjjL387Hjpdi9W/eTbOtdKbnXz1ZRfFzEdviXuP3xYfuvVQau0CAABAUoJlAEhB/Xsvx8OP1uJ3Pl+P7730o1Tb/vBt18W9x6fiVz58c1x12cWptg0AAAC9ECwDQI9+9Ppb8Z/WnomHH63Fo098L9W2J6+8JH7tY7fGPcen4vZ35VJtGwAAAPolWAaAhP7u2y/FQ6efjN/9wlPR+MHrqbb9c++/Ie49PhW/dOSmuOySg6m2DQAAAGkRLANAF37w2pvx+3/xzXj40Vr8xddfSLXt6992Wfzmx/PxqTunYuqGq1NtGwAAAAZBsAwAu/irp87Gw48+Gct/9s34/qtvpNbuxETE9AdvjHuO3xa/8A/eGRdfdCC1tgEAAGDQBMsAsM1LP3w9lv/sm/HQ6Sfjy99spNr2uw5dEZ+6cyo++XP5eNe1V6baNgAAAOwXwTIARESr1Yo///oL8dDpJ+M//OXT8errb6XW9kUHJ+IXP/SuuOfOqbjrg2+PgwfMTgYAAGC0CZYBuKC98PKP4t9/4al4+NFafO0730+17akbropP3Xlb/MbP3ho35C5PtW0AAAAYJsEyABecc+da8bmvfi8eOv1k/Ke1b8Xrb55Lre1LLz4Qnzh6U9x7/Lb42fddHxMTE6m1DQAAAFkhWAbggvHd5qvxmc/V4zOfq8VTz72Satvvf+fb4t7jU/GrH7s1Dl11aaptAwAAQNYIlgEYa2++dS4qf/NsPPxoLf74r78db51rpdb2FZccjH/+kXfHvcdvi2NT15qdDAAAwAVDsAyQwN99+6X47c/XY/4TH4irL7942OWwi6df+EF8+tFafOZztfhO49VU2y7ceijuOX5blD7y7rjG5wAAAIALkGAZoEutVit+69Nn4nNf/V4s/9k34l/9WiH+2U/fbJZqhrz+5lvxR9Vvx8OP1uKzjz8brfQmJ8fbrrg4TvzMLXHPnbfFT757Mr2GAQAAYAQJlgG69Ht/8c343Fe/FxER32m8Gvf+my/Gvzv9ZPwfnzwa73vn24Zc3YXt689+Px5+tBa/8/l6vPDya6m2/TM/cTjuuXMqfvnYzXHFpU6bAAAAECFYBujKy6++Eff/7l/teP7RJ74XH/2f/ij+u//mfTH/iQ/EVZdZFmG/vPr6m/EfH3smHjpdiy9+7blU27726kvj13/21rjnzqn4iXe4aAAAAADbCZYBuvDAH3wlvttsv07vm2+14v/6w6/GI1/6Rvzvv3EkfvnYTZbHGKDHn27EQ6drcepLT0Xzh2+k2vbPf+Dtcc+dU/FPCu+KSy8+mGrbAAAAME4EywB7eOJbzfg3/+/X9nzddxqvxqf+7y/EP7zj7fGvP3nETNcUvfzqG/F7f/HNePh0Lc7UX0y17RsnL4/f/Hg+PnXnVNxy+KpU2wYAAIBxJVgG2MX6DfveOtf9XeD+9G+/Gx/9H/9L/Pe/8L4of+IDcaV1eXvSarVirf5iPHS6Fr/3F9+MV370ZmptH5iYiH/8D94R9x6fin/0k++Iiw4eSK1tAAAAuBBIOwB20fjB6/HaG28lft8bb52L//M/PxGPfOkb8cCvF+ITlsfoWuMHr8epLz4VDz9ai8efaaba9ruvuzI+dedU/ObH8/GOQ1ek2jYAAABcSCZarVb30/AAevD888/H9ddfv+W55557Lg4fPjykipI5d64Vv/35evzLR/46Xnz5tZ7a+PkPvD3+9SePxntvvCbl6sZDq9WKL37tuXj4dC3+4LFn4kc9hPmdXHzwQPzTI++Ke49PxfHb3x4HDgj4AQAAGH3DzlsEy8DADXugS8vZV16L/+33/ib+7Z98PXoZOS8+eCD+h198X/zWP70jrr784vQLHEHPf/9H8Tufr8fDj9biye++nGrb77nxmrj3+FT82sdujcPXXJZq2wAAADBsw85bBMvAwA17oEvbXz11Nv7Fpx+LM7XebiI3eeUlMfPRd8fPvf+GuOOmXNx6/VVx8MCFs8bvuXOt+JPHn42HHq3FH1a/FW++ld5p6LKLD8avfPjmuOf4VPzMew9bfgQAAICxNey8RbAMDNywB7pBOHeuFZ/5fD3+5am/jrOv9LY8xrorLjkYt78rFx+4ORcfuCkXd9w0GXfclIvJKy9Jqdps+PbZH8Zvf64Wn/5cPZ5+4Qeptv3Bm3Nx7/Hb4u6P3hK5MdtvAAAA0M6w8xbBMjBwwx7oBunsK6/F/7ryN/H//Glvy2Ps5qZrr4g7bsrFB26ajA/cdD54nrrh6rjo4OjMbn7zrXPxx3/9nXjo9JNR+Ztn41yKO+mqyy6KmY/eEvfeORUfuvWQ2ckAAABcUIadtwiWgYEb9kC3H6r1F+O3Pn0mztR7Wx6jW5ddfDDe/863xR035eKDN58Pne+4KRfXXn3pQLeb1FPPvRIPP/pk/M7nn4rvNl9Nte1jU9fGPcdvi3/+0zfHVZdZqxoAAIAL07DzFsEyMHDDHuj2y7lzrfj052rxPz/y5b6Xx0jqxsnLz89q3jS7+T1vvyYuvmj/Zje/9sZb8Z/XvhUPnX4yTj/xvVTbnrzykvjVj90S99x5W9xxUy7VtgEAAGAUDTtvESwDAzfsgW6/vfjya/G/rHw5/t3pJ1NfHiOJSy46EO97x/nZzevrN3/w5sk4fM1lqW7n7779Ujx0+sn491/8RuqB+sfff33ce+dt8d8evSkuu+Rgqm0DAADAKBt23iJYBgZu2APdsFTrL8a/+PRjsVY/O+xStrj+bZf9+CaB54PmD9yUi/feeE1cenH3we0PX3szfv8vn46HT9fiz7/+fKr1Hb7msviNj98a99w5Fbe9/ZpU2wYAAIBxMey8RbAMDNywB7phOneuFb//l9+Mf/UfHo+vP/v9YZfT0UUHJ+K9N14TH7x58sc3DDz/eHvu8i03xfvyN87GQ6dr8ciffSO+/+obqW1/YiKi+MEb4547b4tf/NA793UJDwAAABhFw85bLtqXrQBcoA4cmIjSR26JX/nwzfH/ffnZ+C9//e34ytONeOKZZvzw9beGXd6GN99qxRPfeime+NZLW56/9upL433veFtERDz3/R+lHo6/89AV8amfy8cnf24qbrruylTbBgAAAAZHsAywDw4eOBC/8KF3xi986J0RcX4m81PPvxKPP92Ix59pxuPPNONvn2nGU8+9MuRKt3rx5dfii197LtU2Dx6YiF/80DvjnuNTUfzgjXHwgNnJAAAAMGoEywBDcODAREzdcHVM3XB1fOLYzRvPf//VN+KJb50Pmb/y49D5b59pxis/enOI1aYjf/1V8ak7p+I3P56PG3KXD7scAAAAoA+CZYAMuebyi+Mj7zkcH3nP36+HdO5cK55+8Qfxlacb8bc/nt38+NPNqD/3cmR9lfxLLjoQnzh6U9xzfCo+/r4b4sCBib3fBAAAAGSeYBkg4w4cmIhbDl8Vtxy+Kn7pyE0bz7/yozfiq99+KR5/+scznJ85Hzy/9MP0bqrXq/e9821x751T8asfuzWuvfrSYZcDAAAApEywDIydYd8Vdb9cddnFcWzqujg2dd3Gc61WK7714g9/vG5zIx5/+vwM5ye/+3KcG/D05isuORj/7KffHfcen4oP33ZdTEyYnQxcOC6Ucw8A2eL8AwyTYBlgjExMTMRN110ZN1135caNAiMifvjam/F3335pY83mr/w4dG784PW+t/mhWw7FvcenovTRW+Kayy/uuz0AAAAg+wTLABeAKy69KAr5a6OQv3bjuVarFc82Xo3Hf3yjwPX1m//rs9+Pt87tPrv5mssvjrs/ekvce3wqfuqWQ4MuHwAAAMgYwTLABWpiYiLeceiKeMehK+If/dQ7Np7/0etvxde+89KPl9M4P8P5xZdfi6suvyh+6t2T8Q/vuDGO33FDXH6JUwgAAABcqKQCAGxx2SUH46duOWQmMgAAANDRgWEXAAAAAADAaBEsAwAAAACQiGAZAAAAAIBEBMsAAAAAACTi5n3AULzwwgtdv/bw4cMDrAQAAAAgW55//vk9X5MkWxkEwTIwFLfffnvXr221WgOsBAAAACBbrr/++mGXsCdLYQAAAAAAkIhgGQAAAACARATLAOyr559/PiYmJrY8ulk7iv3h+GSXYwO98/OTbY5Ptjk+0Ds/P9nm+PTPGsvAUDzxxBNx3XXXDbsMAAAAgMx57rnn9nzNCy+8kOgeVmkTLANDcd1118Xhw4eHXQYAAABA5oxCZmIpDAAAAAAAEhEsAwAAAACQiGAZAAAAAIBEBMsAAAAAACQiWAYAAAAAIBHBMgAAAAAAiVw07AKA8Xfu3Lkdz73wwgsD2167tge5PZJxfLLN8ckuxybbHJ9sc3yyzfHJNscn2xyfbHN8sm0cjk+7ettlMIMy0Wq1Wvu2NeCC9NWvfjVuv/32YZcBAAAAMNaeeOKJeP/7378v27IUBgAAAAAAiQiWAQAAAABIRLAMAAAAAEAi1lgGBu7NN9+Mr3/961ueO3ToUBw44NoWAAAAQC/OnTsXZ8+e3fLce97znrjooov2ZfuCZQAAAAAAEjFdEAAAAACARATLAAAAAAAkIlgGAAAAACARwTIAAAAAAIkIlgEAAAAASESwDAAAAABAIoJlAAAAAAASESwDAAAAAJCIYBkAAAAAgEQEywAAAAAAJCJYBgAAAAAgEcEyAAAAAACJCJYBAAAAAEhEsAwAAAAAQCKCZQAAAAAAEhEsAwAAAACQiGAZAAAAAIBEBMsAAAAAACQiWAYAAAAAIBHBMgAAAAAAiQiWAQAAAABIRLAMAAAAAEAigmUAAAAAABIRLAMAAAAAkIhgGQAAAACARATLMMZWV1djbm4ujhw5EpOTkzExMRGTk5Nx5MiRmJmZiZWVlWGX2LUs9EUNAN0Zp7EqC30Zdg3VajXm5+fjyJEjMTU1tbH9qampmJ6ejqWlpajX6wOtAaAbwx4v05SFvmShhm5MT0/HxMRETExMxPz8/LDLgQtLCxg7i4uLrVwu14qIjUcul2sVCoW2zy8sLAy75I6y0Bc1AHRnnMaqLPRl2DVUKpVWPp/fsp3dHqVSqVWr1VKtAaAbwx4v05SFvmShhiS1bq6nXC4PrRa4EAmWYYw0Go1WsVjccmItFouttbW1Ha+bnZ3d8bpGozGcwtvIQl/UANCdcRqrstCXYdfQbvtJHlkObIDxMuzxMk1Z6EsWakiiVqvtOAcJlmF/CZZhTNRqtR1Xj/c6qS4vL++42pyFmUZZ6IsaALozTmNVFvoy7BpqtVqiWcqdHqVSqaftA3Rr2ONlmrLQlyzUkFShUBAsw5AJlmEMNBqNHX8EdvsHXblc3vHLwDCv3GehL2oA6M44jVVZ6Muwa2g0GjtChX4e/rgHBmXY42WastCXLNSQ1PbtOvfAcAiWYQy0+7pqkpP59l8iisXi4IrdQxb6ogaA7ozTWJWFvgy7hu0zv2ZnZ1uVSmXH7LO1tbVWuVzuKoSuVCqJagDoxrDHyzRloS9ZqCGJtbU1FzUhIwTLMOK236ygl5Pp9q8wRQxnfcQs9EUNAN0Zp7EqC30Zdg0LCwsb7ykUCl1/lXnz+9o9CoVCoj4A7GXY42WastCXLNSQ1G5LNgmWYX9NtFqtVgAja3JyMprN5pbnGo1G5HK5obTTjyz0RQ0A3RmnsSoLfRlmDc1mMyYnJyMiIp/Px9raWqLtrq6uxvT0dMf/X6lUolgsdt0ewG6yMGanJQt9yUINSczMzMTKykrk8/koFAqxsrKy5f+Xy+VYWFhIdZtAZweGXQDQu5WVlR0n72Kx2NPJ++67797x3AMPPNBjZclloS9qAOjOOI1VWejLsGtYWlra+O9KpZJ4u8ViMRYXFzv+/+Xl5UTtAXQy7PEyTVnoSxZqSGJlZWUjSF5eXo5Dhw6l2j7Qg2FPmQZ61+4uuIuLiz21ValU2n6VaL9uZJGFvqgBoDvjNFZloS/DrmH9K8W9bnNdu35EnL+RE0Aahj1epikLfclCDd3afIPZ9eUuZmdnLYUBQ2bGMoyoarUa1Wp1x/O9ftW00/s2z2IalCz0RQ0A3RmnsSoLfRl2DdVqNer1euTz+Zidne1pm+s6ffV4+2w4gF4Me7xMUxb6koUakpiZmYlmsxmFQsFSF5AhgmUYUZ2+VpTP53tus917T5061XN73cpCX9QA0J1xGquy0Jdh17C6uhoRnUPhJHYLI4TLQL+GPV6mKQt9yUIN3VpaWto4X1leCbJFsAwjav3EulmhUOirzXbvr1arA/9jMAt9UQNAd8ZprMpCX4Zdw6lTpyKXy0WpVOprm+s6hctuHAv0a9jjZZqy0Jcs1NCNer0ec3NzERGxuLjYV/ANpE+wDCOoXq+3PTkfPXq0r3aPHTvW9vlHHnmkr3Z3k4W+qAGgO+M0VmWhL1mo4f7770919le7AFmoDPQrC+NlWrLQlyzU0K2ZmZmIOH/hst8lm4D0CZZhBLW7uhwRMTU11Ve7na5QVyqVvtrdTRb6ogaA7ozTWJWFvmShhlKp1PN6mu0cOnRox3NmlwH9ysJ4mZYs9CULNXRjfn4+qtVq5HI5S2BARgmWYQR1OjH3+4dbuz8GI6LtTR3SkoW+qAGgO+M0VmWhL1moIW1nz57d8ZxgGejXOI2XWehLFmrYS7VajZMnT0ZExIMPPujbL5BRgmUYQZ1OzP2ebDv9IlGv1/tqdzdZ6IsaALozTmNVFvqShRrS1m4bJ06cGPh2gfE2TuNlFvqShRr2sr4ERqlUSu0+AED6BMswgjqdmPu9wrzbLxKD+uUqC31RA0B3xmmsykJfslBD2tqFFWkutQFcmMZpvMxCX7JQw25mZmaiXq9HLpeLBx98sK+agMESLMOI2e2Oup2+epREp18GBvF1sCz0RQ0A3RmnsSoLfclCDWlr1/bs7KyvLwN9GafxMgt9yUINu1lZWYmVlZWIiFheXnYOgYwTLMOIabd24bpRO+lmoS9qAOjOOI1VWehLFmpI26lTp3Y8Nz8/P4RKgHEyTuNlFvqShRo6aTabcd9990XE+QuTvvEC2SdYhhEzrOULdvsFpFdZ6IsaALozTmNVFvqShRrStj7DbN3s7Kwb9wF9G6fxMgt9yUINnczMzESz2Yx8Ph+Li4v7UBXQL8EyjJjdvrqUhk5ffxrEdrPQFzUAdGecxqos9CULNaRpdXV1S1iRy+ViYWFhINsCLizjNF5moS9ZqKGdpaWlWF1djYjzS2AAo0GwDCNmWLNMX3zxxdTbzEJf1ADQnXEaq7LQlyzUkKbtIfKDDz449K9UA+NhnMbLLPQlCzVsV6/XY25uLiLOn08KhcJ+lQX0SbAMIyaNGyrsZj//CMxCX9QA0J1xGquy0Jcs1JCWarW6McssIqJUKkWpVNq37QPjbZzGyyz0JQs1bDczMxMREYVCIcrlcsoVAYMkWIYRM+hffDp9Renaa69NfVtZ6IsaALozTmNVFvqShRrSsn6jpYiIfD7vK8xAqsZpvMxCX7JQw2bz8/NRrVYjwhIYMIoEyzBiBn2FuZNB/AKShb6oAaA74zRWZaEvWaghDUtLSxuBQC6Xi0qlkmr7AOMyXkZkoy9ZqGFdtVqNkydPRkTE4uKiG77CCBIsw4gZdBjYac2tQZzks9AXNQB0Z5zGqiz0JQs19KvZbG6siRkR8dnPfta5BUjdOIyX67LQlyzUsO6uu+6KiIhisRizs7MDrQsYDMEyjJjdrjAP8g6/g7iynYW+qAGgO+M0VmWhL1mooV/rgUDE+a8vu9kSMAjjMF520+aFdv6ZmZmJZrMZuVzOEhgwwgTLMGKGtSbWILabhb6oAaA74zRWZaEvWaihH3NzcxtLYCwuLrpZHzAwoz5eDrrNzUbl/LOyshIrKysREfHggw/6uwRGmGAZRlCnGUH1er2vdne7Qj2or7ZmoS9qAOjOOI1VWehLFmroxdLSUiwtLUXE+VDZ15eBQRvV8bKdLPRlmDU0m82Nm74WCoXI5/NRrVZ7erSrt16vd3z9IGdkw4XqomEXACRXLBY3Zglt1mk9q251ev8gv9qahb6oAaA74zRWZaEvWaghqdXV1Y11lRcWFoTKwL4YxfGykyz0ZZg11Ov1jYC3Wq3GkSNH+trmdptnQ29XqVSiWCymuj240JmxDCPo2LFjbZ/v9wpzp/cP8uSbhb6oAaA74zRWZaEvWaghabszMzMREVEul6NcLvfVHkC3Rm283E0W+pKFGoDxIFiGEdTpxFyr1fpqt9NXg6anp/tqdzdZ6IsaALozTmNVFvqShRqStHnkyJFoNpsxOzsbCwsLPbcFkNQojZd7yUJfslADMB4EyzCCcrlc2xsctPs6UxKPPfZY2+ePHj3aV7u7yUJf1ADQnXEaq7LQlyzU0I3NoXKpVIrFxcV+ygNIbFTGy25koS9ZqAEYD4JlGFHt1jQ8c+ZMX222+0WiUCgM/C69WeiLGgC6M05jVRb6koUadrMeKtfr9SiVSrG8vNxXbQC9yvp4mUQW+jKsGgqFQrRarVQe7ZZkKpfLHV9vSQ5In2AZRtT6jXM2azabfd3ptt0vEidOnOi5vW5loS9qAOjOOI1VWehLFmrYzV133RX1ej2KxWIqoXK1Wu2rb8CFK+vjZRJZ6EsWagBGn2AZRlQ+n297h9/V1dWe2tt8d97N9uNu71noixoAujNOY1UW+pKFGjqZnp6OarUaxWIxKpVKT/Vs1mw246677up7RhxwYcryeJlUFvqShRqA0SdYhhHW7irzqVOnemprZWVlx3Ozs7P7tmRCFvqiBoDujNNYlYW+ZKGG7aanp2N1dTUKhUIqoXJExH333ReHDh3yVWSgZ1kcL3uVhb5koQZgxLWAkZbL5VoRseXRi3w+v6OdWq2WqI1yubxRT7FYTPz+LPRFDQDdydJY5fyTTg3rSqVSKyJa+Xy+1Wg0eqpju9nZ2VZEtBYWFlJpD7hwZWm8dP5Jp4ZelcvlHdssl8sD3SawlRnLMOLuv//+Hc8tLS0laqNarUa9Xt/yXLlcjnw+33Ubc3NzcfLkyY2vP62urm7cQb5bWeiLGgC6k5WxyvknvRoizu/PlZWVyOfzsba21tdMs2azGaurqzE9Pb3RF1+JBvqVpfHS+SedGoARNuxkG+hfoVDYcpU2l8v19f58Pp/o/Y1GY8eV4ujxivGw+6IGgO4Ne6xy/km3hnYzv9J8lEqlRPUAdDLs8dL5J/0aemHGMgyfGcswBpaXl7fMKGo2mzE/P9/Ve5eWlqJarW55LulaituvTnf7/9oZdl/UANC9YY9Vzj/p1XDy5Mk4efJk16/vRbu1PAF6Mewx2/kn/RqAETXsZBtIR61W27E+1uLi4q7vqVQqO67wViqVxNtO84r9sPuiBoBknH9Gf+xfXFwc6Ezl2MfZa8CFw/ln9M8//TJjGYZPsAxjpFar7fgaUqlU2nHThEajsXETnc1/8PVzc4Xt7UWc/wpVrzf9GWZf1ACQjPPP6I79y8vLAw+VI9y0DxgM55/RPf+kQbAMwydYhjG0uLi442pzLpdrFQqFtnfrTevku7Cw0Mrn861cLtfTXZHbGVZf1ACQnPNPuvajhv0IlSOi56AFoBvOP+nKQg3dECzD8E20Wq1WAGNpdXU1lpeX48yZM1Gv16PZbEYul4tDhw5FoVCIEydORLFY7OuO7/slC31RA0B3xmmsykJfslADwCgYp/EyC33JQg1AtgmWAQAAAABI5MCwCwAAAAAAYLQIlgEAAAAASESwDAAAAABAIoJlAAAAAAASESwDAAAAAJCIYBkAAAAAgEQEywAAAAAAJCJYBgAAAAAgEcEyAAAAAACJCJYBAAAAAEhEsAwAAAAAQCKCZQAAAAAAEhEsAwAAAACQiGAZAAAAAIBEBMsAAAAAACQiWAYAAAAAIBHBMgAAAAAAiQiWAQAAAABIRLAMAAAAAEAigmUAAAAAABIRLAMAAAAAkIhgGQAAAACARATLAAAAAAAkIlgGAAAAACARwTIAAAAAAIkIlgEAAAAASESwDAAAAABAIoJlAAAAAAASESwDAAAAAJCIYBkAAAAAgEQEywAAAAAAJCJYBgAAAAAgEcEyAAAAAACJCJYBAAAAAEhEsAwAAAAAQCKCZQAAAAAAEhEsAwAAAACQiGAZAAAAAIBEBMsAAAAAACQiWAYAAAAAIBHBMgAAAAAAiQiWAQAAAABIRLAMAAAAAEAigmUAAAAAABIRLAMAQEY0m81YWVmJmZmZaDabwy4HAAA6EiwDAMAQNZvNWFpaiunp6ZicnIyZmZlYWVkZdllwwZmbm4uJiYmNx9TU1LBLAoBMEywDAJCqI0eObAln+nlMTk4OuzsDsbq6GvPz83HkyJGYnJyMubm5WF1dHXZZcEF75JFHtvy7VCrF9PR0KmPZ9PT0ntufmppKZVtzc3OD2kUAsMVFwy4AAIDx8uCDD8aZM2ei2WzGY489Fqurq4mWdSiVSnHs2LHI5/ORy+UGVuewTE5OWuYCMqZare74uTxx4kScOHEizpw5E2tra3HmzJmoVqtdt1koFKJYLMbU1FQcPXp0z9cvLi5GvV6PtbW1WF1djXq93tO2isVi1+8DgH5MtFqt1rCLAABgvM3NzcXS0tKurymVSrG8vLxPFQ3PeljUbDbj1KlTcfLkybavazQaYxmsQxZtH6NyuVw0Go0dr6tWq3HXXXftenEol8vFZz/72SgUCn3VtL7e+m7y+XxUKpXI5/N9bQsAeiFYBgBgX0xNTXWcgdcpxLkQTE9Pt10GQ7AM+2f7NwnK5XIsLCy0fe3S0tKuy00sLy9HqVRKpa75+fmOF58iItbW1voOsAGgV9ZYBgBgX+z29ey77757HyvJFqEQDFenZTA62Wu8SitU3quOXC5n/ABgqATLAADsi6mpqZ7+37i79tprh13CWEiy9i1sdurUqS3/3iuw3e2bBGl/y2C3JS4sfwHAsAmWAQDYF/sZxoySC7nvaWk2m3HXXXcJl+nJ9vXfZ2dn93xPp5/bQ4cOpVHSntsZxLYAICnBMgAAMNJmZmZ2vZkadJJ0GQwA4O8JlgEA2Bdm1zEIJ0+ebHvzQ+hG0mUwAIC/J1gGAABGUrVajfn5+WGXwQjbvgzGhXwjUQBISrAMAACMnPV1laFX7ZbBmJubG04xADCCBMsAAMDIueuuu6yrTF8sgwEA/REsAwAAI2V6ejqq1eqwy2DEraysbPm3ZTAAIBnBMgAAI63ZbMbS0lJMT0/HzMxMx9ecPHkyjhw5EpOTkzExMRGTk5MxMzOzI1xKQ71ej/n5+Zieno6pqamN7U1NTcX8/HzU6/XUt5lF68dmZmYmpqamtuz7I0eOxNzcXOIb701PTw/0Zn3rNc/NzW2peWJiIqampmJ6ejpOnjyZ2jHM4ud3EMetGysrKzv2+6C2Wa1WdxzDTvsfAOigBQAA+2B5ebkVEW0fi4uLidpqNBqt5eXlVrFY3NJOqVTa8dpyudxxu+uPYrHYajQaffexVqvtqCkiWrlcbsdzs7OzrVar1VpcXGxbU7t6Or12+6NSqXSsMZ/Pd9VGu32ZZD/Mzs52tZ2IaBUKhdby8vKuba6trXVde7v9303NpVJpR12lUqlVKpXabrtUKvX0ucny5zft47aXRqPRKpfLbX9G2j3y+fyun+9ubd+v3XxGNutUbz6f77u27XY77gAwTIJlAAD2Rb/Bcq1Way0uLrYNbtsFc7VarVUoFLoOyfoNhBYWFnaEPtsDsO3BXT6f7xjkdQoKG41Gq1Kp7Nq33YK3Wq3WqlQqrcXFxV3b6DVY3r4fSqVSq1KpbOnP2tpa220XCoWO/e4lUO42NNwe2BeLxVatVtvxunbhdi6Xa/va7Ubt85vWcdtNpVLZEtAWCoXW7Oxsa3FxsVUul1ulUqljgNvPhY9Wa+cFlvULPd0SLAOAYBkAgH3Sb7Ccy+X2nNW4HjZVKpUdwVexWNwzqEsaLq3bPtN1YWFh19evra3t2ZdugrpObSSZ0dkp2E4a3DUajS2haT6fb62tre36+nb15/P5tn1vNBobj+0h6PpjeXl5y+s2PzrZPnO1UCjs2c9ewsSsfn4Hfdw62XwMC4XCruF8Wp/RdWtra339zLRagmUAaLVaLWssAwAwEhqNRjQajWi1WlEulzu+bmVlJaanpyMiYnZ2NhqNRqytrUWlUom1tbVotVoxOzvb9r1LS0vRbDYT1bV9nduFhYVd64uIKBQKsba2lmg77dx///19t7GwsNB3GxERd91118YauPl8PtbW1qJQKHR8fS6Xa3sc6vV63HfffW1fv/7I5/Nt28zn81tet/nRzsrKSpw8eXLLc3vt01wut2Of1ev1He1sl9XP76CPWzsrKysxPz8fERHFYjHW1tY6HtOIiMXFxSiVSm3b2Wu/t3Pq1Kkt/87lclEsFhO3AwAXOsEyAAAjp1MYurq6GjMzM5HL5aJSqcTi4mLbUHFxcXHXcK5bJ0+e3BIqF4vFPUPldfl8PhYXF7veVqc2+tUpdE1iZmYmqtXqxr8rlUpX7Z44caLt8ysrK/tyg8P1cHOzbupuF0ImOZZZ+fwO47hVq9UtN8lbXl7uqtYHH3yw7fO93Axz+w0P77777kTvBwDOEywDADCS2s2qbDabG7Mu95qB2Cncq1QqXW2/Xq/vCCaTBsWzs7N9hcNphML9trM9XF9YWOi6T7vNjN0ceA5CvV5vG0h2E1K261+9Xk80W3jYn99hHbfNofLCwkLXn73dZhUnmXXf7rhvrgkA6J5gGQCAkXTo0KEdz+VyuT2/Vr/5te2CqjNnznS1/e1hVLFY7CkkHvWv4D/wwANb/t3tjO11nWbephWad9IpQK7Vanu+t1NtSWbODvvzO4zjtn1Gc7vlLXbTKQBOMku73cWfNH8G6/V6TE5OpvoAgKy6aNgFAABAWg4dOpQokGwX4HUz67Rare6YmTk3N9f1djebmprq6X1ZMD8/v2V/dQobd7OwsBCPPPLIlnby+fzAA/ejR4+2ff7YsWM9t1mv13edzbuX/fr8Duu4bZ7hn8/nE1+I2a3tarXa1b7fvgxG0nC7G0nXuQaAUWXGMgAAF6xOId5ewdD22Z4Rvc96HPTM3EHafuO09ZvOJbE+S3d9xvfs7GwqNzbsZrvbZ+kWi8WBBI2D0uvndxjHrVqtbpmt3EsAv1sQvX4Dwt20Wwaj1wtCAIAZywAAXMCuvfbaxO9pNps7Zj3mcrmRDoh70S7I6zVcz+fzXa8NnKaFhYWYnp6OSqUSx44d6ztUPnv2bEqVdaeXz++wjtv27a6srMTExERP222nmyVMBr0MRsT5fdJNLUmkuZ8AIE2CZQAALli9hMHtgrlOyyqMs+Xl5S3/HtVwvVgsJg4Xt19YGJZe9vewjtupU6cG2n43a0vvxzIYAHAhESwDAEAC7WZo9nLTvlG3PWBvdzO6cdJsNmNpaSkeeOCBkV5Dd1jHbfua5OVyOe6///592XZE+2UwTpw4sW/bB4BxJFgGAIAE2s1YHsWZuv3aHtKN6z6oVqvxwAMPbJntWigUdgSlo2IYx61TEL+fn5l2s8zNWAaA/rh5HwAAJLA9mIvoba3bUdZuH4yblZWVOHLkSBw5cmQjlCyXy1Gr1fbl5oKDMKzjtt9rT7ezfX1loTIA9M+MZQAA6FKnmZcvvvji/hYyZO32wygvD7HZ0tJSLCwsbISwuVwu7r///iiXy0OurH/DOm7tAu39DLktgwEAgyFYBgCALnWaeTkuoWq32u2HUZ/FvLq6GnNzc1v6US6XY2FhYYhVpWtYx63dz8d+fl4sgwEAg2EpDAAA6FKnADkLX/XPglENl+fn52N6enqj/nw+H2tra2MVKu9m0Met3VrK+7lGtWUwAGAwBMsAANClTjcbG9VAtVeHDh1q+/wo3tBueno6Tp48ufHv9VC5UCgMsarBGNZx67TddjfCTJtlMABgcATLAADQpXEKVPvRKWCvVCr7W0ifpqend4Sby8vLHfs36oZ13Dptd3l5eaDbjbAMBgAMkmAZAAC6tFvgeCHNWs7n822fX1pa2udKere0tLQjVC4Wi2M5U3ndsI5bp+0+8sgjqW2jWq3G9PT0judPnTq15d9CZQBIj2AZAAAS6BQ8bl/Hddx12g9phJT1ej0mJycHGta3Wz95ZmZmYNvLimEdt3bbbTabqS2H0e7Y1ev1Hd8msAwGAKRHsAwAAAkUi8W2z7f7yv0467Qf5ufnO97ksFszMzORz+c7znTtV7VabRt+Dmp7WTKs43b06NG275mbm+trm+tt1Ov1mJ+f3/K8ZTAAYLAEywAA7IuzZ88Ou4RUtPu6fcT52ZFphsv97K+kAWEvgWKnmZ/NZjPuu+++xO2tm5ubi2q1Gg8++GDi93a7z86cOdP2+X6D1VEwrOPWaTZ4u0A4iZWVlVhaWopCobAjNN++DEanUB0A6I1gGQCAC1YvQWKxWOw4s7WXgKyfMLPTzQQfe+yxrtvotBTBXnUVCoWOyyqsrKz0NBN1bm4ulpaWolQq9bTWcbf7slartX2+2/2WlQC6lzqGddyKxWLHNcpPnjzZ00WZ1dXVjcB6e6DdbhmMNGZHr+u079O+gLbbMR6Xi3UAjC7BMgAA+2K3gCQrQd26vQKbTgFyvV5PHF51Wpu5m/WF07gZW6d6u9n+/fff3/H/LS0txczMTNfHdmZmZqPuvWYrdwoouw2Gr7322rbPdxtudtq/Wfkc7/X5HdZxm52d7aqdbiwtLW18e6BdoN3uWI7ijGXhMQBZJlgGAGBfdJolutf/66Rd4JI0hOm03b1CtdnZ2V1vgtbtzOX1tWHbWV5e3vP9uVyubbjcbDb3DLir1WpMTU1FvV5v25d6vb7njdVKpdKua9aurKzErbfeGvPz82372Ww24+TJkzE5ObkRBC4uLnYMjtd1Wq93t2B4cw2dAvl6vb5nuDk/P9/x+Cb5HA/z8zus47awsLDrOtZzc3MxPT296+duZWUlpqamNj7f+Xy+7c9Ku2Uw9qqvW7tddGk2m6leYNhtW4O8uSUAdKUFAAD7IJ/PtyKi7SOXyyVuL5fLtW0rjZqWl5f3fG+tVuvYn4hoFYvFVq1Wa/veRqPRKpVKG33frY1yudxaWFhoVSqVtm0tLCwkqqFSqWxsOyJaa2trrdnZ2Y5tlEqlVrlc7rhPGo3Grn3Y/sjn8x33e6lU2nO/r+u0zcXFxR2vXe/v+r5oNBq71lgul1uNRmPj/Wtra61yubylznZ9yOVyW963234b9ud3WMetUql0tb1cLtcqFAqt2dnZVqlUahUKhbavafcz1u5ns93noleLi4u71p7mtjZ/7to9Oo0LALAfBMsAAAzcXuFI0nBqt2Cn21Bnt4CrWCz23cb6Yz0cW1hYaJXL5VaxWNyynd2C4c0B2m796iYgbPea9VBqt2B5cz86qdVqiULKfo//XjWv79dyubxR1/awtZvPZLs+rR+HzeH89sfmALZd8JeVz+8wjtte/e/20SlUbrXaX2zZHPj3Y21tbc99lsvlWmtra31vq5vxJZ/Pd9wPADBogmUAAFK1trbWWl5ebi0uLrZmZ2d3nancLpBZD2GXl5d3hDPbZ452eszOzrYqlUrbMGltba2rMLdQKHRsY7NKpdJTOLce1O4WspVKpa5mJK6trSUO5Tbv271mLC8uLu65H2q1WqJjvfmxsLCwZx+322vW8eZHp7A2Sb35fH7LPusmHC2XyzuOU9Y+v/t93JLsv06PYrG4a7+2z27uNmhvZ308W1hY2HJRqNuf8XK53FpcXOwqaK5UKq3l5eVWuVxuO0N7r32yPkNe0AzAfhEsAwCQqqSByG6PzUtk9NputwHqbo+9gppGo5Go7c2B3PaArVgsdrWUwXZra2tdBYSlUmlHKLe99vVgsxfdhJ6b+9rPzM7l5eU9Pz+79aPRaHQVFnYKUHfb39vD7Cx/flut/T1u62q1WqKwNp/P7/mz0e6CQz9LUyQNk3fbZ3vpNeDf/pidne25vwCQxESr1WoFAADQt2azGY888kgsLy9HvV7fcrO4fD4fMzMzcffdd2+5idjS0lIsLi7G3Nzcjv/Xi6WlpVheXo4zZ85Es9ncuMFfsViMubm5tjdPm5+fj2q1GnNzc7ve1C2JlZWVOHXqVFSr1Th79uyOWk6cONHxBohJ1Ov1mJ+fj9XV1Y1tHD16NGZmZmJ2drbrWhcXFzf22ebjtVsbzWYz7rvvvqhWq1Gv1yOXy8Xdd98d8/Pzu96kLsv267htVq/XY2VlJSqVypafm83bnZ6ejmKxuGdbJ0+e3HFzxUajkdqN+wCAvydYBgAAAAAgkQPDLgAAAAAAgNEiWAYAAAAAIBHBMgAAAAAAiQiWAQAAAABIRLAMAAAAAEAigmUAAAAAABIRLAMAAAAAkIhgGQAAAACARATLAAAAAAAkIlgGAAAAACARwTIAAAAAAIkIlgEAAAAASESwDAAAAABAIoJlAAAAAAASESwDAAAAAJCIYBkAAAAAgEQEywAAAAAAJCJYBgAAAAAgEcEyAAAAAACJCJYBAAAAAEhEsAwAAAAAQCKCZQAAAAAAEhEsAwAAAACQiGAZAAAAAIBEBMsAAAAAACQiWAYAAAAAIBHBMgAAAAAAiQiWAQAAAABIRLAMAAAAAEAigmUAAAAAABIRLAMAAAAAkIhgGQAAAACARATLAAAAAAAkIlgGAAAAACARwTIAAAAAAIkIlgEAAAAASESwDAAAAABAIoJlAAAAAAASESwDAAAAAJCIYBkAAAAAgEQEywAAAAAAJCJYBgAAAAAgEcEyAAAAAACJ/P9vMLYqOGUo2gAAAABJRU5ErkJggg==;" parent="1" vertex="1">
          <mxGeometry x="124" y="350" width="579.24" height="320" as="geometry" />
        </mxCell>
        <mxCell id="QOX_BqD7f4eXZDv9Mhv9-2" value="" style="ellipse;whiteSpace=wrap;html=1;aspect=fixed;fillColor=#f8cecc;strokeColor=#b85450;" parent="1" vertex="1">
          <mxGeometry x="279" y="570" width="10" height="10" as="geometry" />
        </mxCell>
        <mxCell id="QOX_BqD7f4eXZDv9Mhv9-3" value="" style="endArrow=classic;html=1;dashed=1;strokeWidth=3;fillColor=#dae8fc;strokeColor=#6c8ebf;dashPattern=1 2;" parent="1" edge="1">
          <mxGeometry width="50" height="50" relative="1" as="geometry">
            <mxPoint x="419" y="540" as="sourcePoint" />
            <mxPoint x="289" y="570" as="targetPoint" />
          </mxGeometry>
        </mxCell>
        <mxCell id="QOX_BqD7f4eXZDv9Mhv9-4" value="&lt;span style=&quot;color: rgb(51 , 51 , 51)&quot;&gt;&lt;font style=&quot;font-size: 16px&quot; face=&quot;Verdana&quot;&gt;(Inductance with least error)&lt;/font&gt;&lt;/span&gt;" style="text;html=1;strokeColor=none;fillColor=none;align=center;verticalAlign=middle;whiteSpace=wrap;rounded=0;fontStyle=0" parent="1" vertex="1">
          <mxGeometry x="409" y="540" width="260" height="30" as="geometry" />
        </mxCell>
        <mxCell id="QOX_BqD7f4eXZDv9Mhv9-5" value="&lt;b&gt;L = 0.00040H&lt;/b&gt;" style="text;html=1;strokeColor=none;fillColor=none;align=center;verticalAlign=middle;whiteSpace=wrap;rounded=0;fontFamily=Verdana;fontSize=16;" parent="1" vertex="1">
          <mxGeometry x="409" y="520" width="180" height="30" as="geometry" />
        </mxCell>
        <mxCell id="QOX_BqD7f4eXZDv9Mhv9-6" value="" style="line;strokeWidth=2;html=1;fontFamily=Verdana;fontSize=16;fillColor=#dae8fc;dashed=1;strokeColor=#6c8ebf;" parent="1" vertex="1">
          <mxGeometry x="239" y="570" width="40" height="10" as="geometry" />
        </mxCell>
        <mxCell id="QOX_BqD7f4eXZDv9Mhv9-7" value="&lt;font face=&quot;Lucida Console&quot; style=&quot;font-size: 21px&quot;&gt;249.37&lt;/font&gt;" style="text;html=1;strokeColor=none;fillColor=none;align=center;verticalAlign=middle;whiteSpace=wrap;rounded=0;dashed=1;fontFamily=Verdana;fontSize=21;fontStyle=0" parent="1" vertex="1">
          <mxGeometry x="159" y="550" width="90" height="50" as="geometry" />
        </mxCell>
      </root>
    </mxGraphModel>
  </diagram>
  <diagram id="ff-GaH7CEdG4xnVRDY_q" name="Page-2">
    <mxGraphModel dx="447" dy="704" grid="1" gridSize="10" guides="1" tooltips="1" connect="1" arrows="1" fold="1" page="1" pageScale="1" pageWidth="827" pageHeight="1169" math="0" shadow="0">
      <root>
        <mxCell id="7P3BtU3eOJ7ZP83Uyh86-0" />
        <mxCell id="7P3BtU3eOJ7ZP83Uyh86-1" parent="7P3BtU3eOJ7ZP83Uyh86-0" />
        <mxCell id="7P3BtU3eOJ7ZP83Uyh86-2" value="" style="shape=image;verticalLabelPosition=bottom;labelBackgroundColor=#ffffff;verticalAlign=top;aspect=fixed;imageAspect=0;image=data:image/png,iVBORw0KGgoAAAANSUhEUgAABukAAALRCAYAAABWNE5JAAAAOXRFWHRTb2Z0d2FyZQBNYXRwbG90bGliIHZlcnNpb24zLjQuMiwgaHR0cHM6Ly9tYXRwbG90bGliLm9yZy8rg+JYAAAACXBIWXMAAFxGAABcRgEUlENBAADu8ElEQVR4nOzde5ybdZ33/3faUk7auWbaouwNSydDW0VUJjMtiorCZCiuiys0meHWFe9bmERwH/tY17sZivrTXXU7mcLqunsvTVpcD+jSSVpc0VWbTBERVDpJi2IRaNKigNjDTKbKuW1+f/ROmEOOM8l1JZnX8/HIg2nyzfX9pO2U6zvv78GWTqfTAgAAAAAAAAAAAGCaeVYXAAAAAAAAAAAAAMw1hHQAAAAAAAAAAACAyQjpAAAAAAAAAAAAAJMR0gEAAAAAAAAAAAAmI6QDAAAAAAAAAAAATEZIBwAAAAAAAAAAAJiMkA4AAAAAAAAAAAAwGSEdAAAAAAAAAAAAYDJCOgAAAAAAAAAAAMBkhHQAAAAAAAAAAACAyQjpAAAAAAAAAAAAAJMR0gEAAAAAAAAAAAAmI6QDAAAAAAAAAAAATEZIBwAAAAAAAAAAAJiMkA4AAAAAAAAAAAAwGSEdAAAAAAAAAAAAYDJCOgAAAAAAAAAAAMBkhHQAAAAAAAAAAACAyQjpAAAAAAAAAAAAAJMR0gEAAAAAAAAAAAAmI6QDAAAAAAAAAAAATEZIBwAAAAAAAAAAAJiMkA4AAAAAAAAAAAAwGSEdAAAAAAAAAAAAYDJCOgAAAAAAAAAAAMBkhHQAAAAAAAAAAACAyQjpAAAAAAAAAAAAAJMtsLoAAAAwO6lUSpJkGIaldaDxJJNJhcNhHTlyRH6/3+pyAAAAAAAAGgohHQAAJkulUopGo9q6dauSyaSSyaRSqZQMw5Ddbs8+uru75XQ6C14rGo2qu7tbLpdLoVDIpE+ARpYJ5rZu3ap4PC5JRf8eAgAAAAAAoHyEdAAAmCSZTMrv9ysYDOZ8PZVKKR6PZ4ORwcFBSScDkkwQZ7fbJ70ns7ops5oOmIloNKpQKKRoNKpkMml1OQAAAJjjUqmUhoaGFIvFNDo6mp3YmLlXtdvtMgxDLS0t2a+7u7vV2dlZ0g4jTHYEANQKWzqdTltdBAAAja6/vz8bus2Gw+GQ0+nU4sWLFYlEFI1GJZ0cpCYSiVlfH3NDKpVSMBic9HeoEKfTqUgkYkJlAAAAmKui0agikYjC4fCsJo7Z7fbsREen05kztGtra1MymeQ+FwBgOUI6AACqKJVKqaurK7s6bqpM6LZq1SoZhpGdHZpIJDQ0NFTWCjn+l45ShcNhud3uktvzwwsAAABUSzgcVn9/f9V2dMiMudra2pRIJBQMBrPjLO5zAQBWI6QDAKBKUqmUOjo6cg42DcPQ5s2b5XK5Cl4jHo+rv7+/pNVO/C8dMxWNRuV2u/OGwvzwAgAAAJUWDAbl9/uLhnOGYainp0dtbW3Zc7xbWlombYNZ6g4RUzkcDsVisZl+BAAAZo2QDgCAKuno6Mi5gm4m5x5Eo1F5vd6CA9hEIjHtzDqgVIVW1xHSAQAAoFKSyaTcbnfe3Uakk8Gcx+NRb2+vHA5HydcOh8PasGFDwWtPxLEBAACrzbO6AAAAGlEwGMw5MHQ4HDM6mNzpdCoWixUcoFZrexjMDcVWdQIAAACzFQ6H1dbWVjBE8/l8Ghsbk9/vLyugk07e08ZiMUUiESYwAgDqAiEdAAAVlkql1N/fn/O1zZs3z/i6hmEoFovlDVPKOb8OAAAAAMzkdrsLnovscDiUSCTk9/tn3ZfT6VQikZDH4ynYbnR0dNZ9AQAwG4R0AABU2MSDyCey2+1lzwTNJRQK5bwOK+kAAAAA1KLu7m6Fw+G8r2d2Dqn06rdAIKBAIFDRawL1hMm8QO0jpAMAoMLynd3ldDor1sfw8LAMw5j03JEjRyp2fcxNU/9OAQAAALPldrsVjUbzvl7t8489Hk/eIwcIMNDoOjo6Sj6jEYA1COkAAKiwfAPQSgYghmFMG2iykg4AAABALenv7y+6gq6aAV2Gy+WqyDaaQD3p7+/n5wRAHSCkAwCgggrdAFd6lqbT6Zx0Ph033wAAAABqRTAY1ODgYME2+Va4VYPP56vo7iZALYtGo0W//wDUBkI6AAAqqFBQVo0Qbf369dmv2aoFAAAAQC2Ix+Pyer0F2wQCAdO3W88VCjKOQqNJpVJyu91WlwGgRIR0AABUUKEBXjQarfgA0OFwyOFwSGIlHQAAAIDa0NfXV/B1h8Mhj8djUjWvMgxDPp9v0nOjo6Om1wFUk9vtJnwG6gghHQAAFVRsJuiGDRsq3ufEGarciAMAAACwUjAYVDweL9hm8+bNJlUz3cTdSIBG09/fr2g0anUZAMpASAcAQAW1tLQUfH1wcLDogLVcPT092a+ZBQoAAADASn6/v+Drdrs9uxuIFQzDmHS2NxMd0SjC4TDn0AF1iJAOAIAKstvtRdt0dXVVdCBoGAZbXgIAAACwXDgcLjomKXZWnRkm1sBERzSCeDzOOXRAnSKkAwCgggzDKBrUpVIpdXR0VDSoi8ViSqfTcjqds75WOBxWd3d3wcFzKpXS4OCg3G63Ojo61NzcLJvNpra2NnV3d2twcNCUGampVErBYHBaHc3Nzero6JDb7VYwGJxztUgnB2ler1fd3d1qa2vL1tLW1ia3261wOGxKHQAAAJg7AoFA0TZWnEU3VSXGTUCtiMfj6ujosLoMADNkS6fTaauLAACgkQwODqq/v79oO8MwNDw8bOlWLxnxeFyBQEBDQ0PZEMnlcikUCk1ql0wm1d/fX3LA43K5tHnz5qJn9c2k3nL32nc6nQoEAiWtdqzXWqSTf/8CgUBJqyoNw5Df78/+oKS5uTlniOh0OhWJRCpdKgAAABpIKpVSc3NzwTa1dF+ZmbgWCoUmbX/ZKOLxePZM9KnjuoxgMKhQKKRkMqlkMimHw6He3l75fL6a7WuiVCqloaEhRSKR7HVTqVR28qzdbld3d7d6enoqPiaVTk5wDQQCGh0dVSwWy9suM94eGRmZVGNnZ6e6u7vl8XhmXF8pAV0sFquJnzsAyCMNAAAqamxsLC2p5EcgELCkzkQikfb5fGm73Z6zLpfLNal9KBQq63NlHoZhpEOhUEVqHhsbSzudzrz9lFKPz+druFrS6XQ6Fovl/LN0uVzpQCCQjkQi6Ugkkvb7/dPqdjqd6bGxsbx1O53OitUJAACAxuT3+4ve//r9fqvLLCoSiZQ13ik21gkEAmWPoRKJxIxqHxsbS/v9/knjglz38rFYLO1wOPL2X8r9v5l95bpmvrFYoX5m+vs6USgUSrtcrknXdjgceess9Nln+73h8/lmNEaf+ohEIrP9bQEwC4R0AABUQbk3y5UaMBRTLJibGu5keDyeWd/4zzaMjEQik0Ikh8ORDoVC6bGxsUntxsbG0oFAoGBQNjWArOda0uncf988Hs+0eiaaOmAsVCMhHQAAAIopJTSplzAgEomkA4FASQFLsZAukUikA4FA2ufzTQt38j3KHRuGQqG8v/9T7+VLDSHzfS4z+5rKiomSY2NjBT9zZjw41UwCNI/HU3Jd5YaUjfB9CTQqQjoAAKqklCBs6qOaM0vLnRGaCY/yBXR2u73kgVC5g6+ppq7iKzXwKzSonmk4Vku1pNO5B3/l/D6X8oMCQjoAAAAUU8rYoNAkslpVbIXgTMY4xe7BSwnpcq3oKnYvH4vFSh67TQyzzOwrH7MnSpYa0mZqmdh/qe/L9Sj1ZwJ+vz/t8/myj2LjzYltpz7MmDAMID9COgAAqiSRSJQdYkknw69qzGTLrJxyOp0lDRpcLtekgM4wjLTf7895Ax8KhUoeiJQ7MJ86uCtnRV6hLRxnMqCupVrS6dwB3UxWLBabhUlIBwAAgEISiURJ45x6VWgC5kzu44uNDQqFJuUeQ5C5ly/WZ67xoJl9FWLFREmXy5V9FJuAmwnpEonEpLaGYaQ9Hk/a7/en/X5/2uPxlDSZdyZhdqFtVWOxWNnXA2CeeQIAAFVht9s1PDxc9vuSyaS6u7vV3d2tZDJZsXocDodisZgikYhisZjGxsYKHh4dDocVDAYlSX6/X2NjY/L5fLLb7dPaulwuxWIx+f3+onW43e6Sa04mk+rq6sr+2ul0yuPxlPx+wzAK1tTX16dUKlV3tUgn/3wGBwcnPedyucqqKSPf4e4AAABAKeLxeNE2ucYR9cLlclX0eoZhyOl0zvi9fr9foVBIoVCo5Pv/rq4upVIpORwORSIRJRKJgu9dtWqVqX3lE4/HJ40hA4FAyXUMDw/LMIycr4XDYYXD4bzvzXzmUCikRCIhn89XsK94PK6Ojo7sGD4QCGhsbEyBQEA+n08+n0+BQECJREKBQKDgtTZs2FD4gwFoLFanhAAANLqps+nKfZS7Z345SpkZWe6su1KuWepKwakzH2cyA3BsbKxgLaVuJ1JLteSbmTqbbUoKnZnASjoAAAAUUmxLSJWwcqmWFfp8M93Sv9D9d7n39YXOEHc6ndm+cv0Z5Bu/5VvNZWZfU3enmcm4pNAKM8Mwylq1Vug6ma8dDkdJf36FjqMwDKOin5OVdEBtYyUdAABVZrfbFYvFZjxTcnBwUM3NzQVn+c1UsZoikUjB1Xa5uFyuorMMS1lxF41GJ83IdTgcZdciFZ+lWsosxVqqRcq96s7j8cxqdnJvb++M3wsAAIC5LZFIFG3T0tJiQiXVUeurAL1eb97XRkZGNDg4KJfLlXMHDZfLlV3pZrfb5XQ6lUgk8q5AM7Mvt9s9adxTyjhyqp6enryvpVKp7O4xpcg3BszUmNlhppS/L06nM+/YMJVKlbQ6FUBjIKQDAMAEhmEoEokU3dYin1QqJbfbPW2QUom68nE4HDMOFv1+f8GBSTQaLfo5+vv7J/16NiFSd3d33tdKGQDVUi3xeDxnYFtosFyKmYSOAAAAgCSNjo4WbVNo7DEXLV68uGLXKnQvn0qlZBiGNm/enLeN3W7PbsUYiUQKjuXM6qvWJkpKhYNmj8dT9jEChY6CGBkZKetaAOoXIR0AACbyeDxKJBIzDr/C4bBaW1sVjUYrXNl0s50tOjXYmqrQjMWpAzKp+Kq/Qoq9t9DvZy3VIuUeRBqGQcgGAAAAy5QykbCSoRTKs3nzZtNC0kr1VUsTJTMKfa6ZTMgtNDaMxWJlXw9AfSKkAwDAZHa7XZFIpOgMxXxSqZS6u7s1ODhYheoqx+PxFBzE7Nq1K+9ruWYgziaEKvbeSCRSF7WkUqmcq+hmExpOxOxmAAAAzEQpK+lgDcMw5HK56qqvWpsoWS2Ffh7A9xQwdyywugAAAOaqzP77g4OD2rBhQ9nbWPb39yuRSMx4C00z9PT05F0xV2ggNDQ0NO25YivzZiOZTNZFLfm2Ylm1alW1ygEAAACKKuW8uSNHjphQCaYy8zy9SvVlxUTJYueqm62Sx1wAqG2EdAAAWMzn88nj8ai/v7+sQ6ulV7eMrNWgzu125/1MqVQqe2bBRMlkMueApJorB/MFY7VUi5Q/2GSrSwAAAFiplB0ZCt3nonpKCVBrra9amigJANVGSAcAQA0wDEOBQED9/f1yu90l74kvnQzqDMOQ3++vYoUzU2xbkWQyOS1gsmqrkWQyOW3mZy3VIinv3wszZ8cCAAAAU5USzrAyCKWotYmS1WYYBt8bwBzHmXQAANQQu92uWCxW9lYbg4ODOc8qqwWFZtXm2mc/15lsTqdT6XS6qo9cQVct1VIoMDRzdiwAAAAwVSkr6ThjC6WwcqIkAFiBkA4AgBrk9/sVi8XKWiHV19dXkzPwOjs7876Wq95cz1k1oK+lWnIFhhml/FAEAAAAqJa2traibWpxrILaU0sTJQHADIR0AADUKIfDoVgsVvJ5Y6lUqqr79M9UocFOrsAr13NWDehrqRZ+qAEAAIBaVcrODqxUQilqaaIkAJiBkA4AgBpmGIZisVjRs90ygsFgzYU5hVZ55Qrwcg3erRrQ13otAAAAQC0odbxSztnbmJtqaaIkAJiBkA4AgDoQiURKHvgODQ1VuZryLF68OO9ruWbc5huAWTEwq6VaCs0eZdAKAAAAKxmGUdJ2gVadN4b6UUsTJQHADIR0AADUiVAoVNLANxQKmVBNZZRzllotDcysqKVQEMf2LwAAALBaKZMKd+3aZUIlqGe1NFESAMxASAcAQAV4vV7ZbDYFg8Gq9WEYRs5DtKcaGRmpWg0zceTIkbyv5Qod8wV3Vsy6rYdapNoKMAEAADA3dXd3F23DSjrMFGMeAI2KkA4AgApoa2uTJPn9/qr2Y7fb5XK5CraplxmG+VYF5jt0vpSAstLqoRaJsz0AAABgvVJW0qVSKcIWFFRLEyUBwAyEdAAAVIDD4ZB0cnZftQcPXq+3qtevtHyhYb5BfC0NyuqhFoltgwAAAGA9wzDk8XiKtgsEAiZUg3pVSxMlAcAMhHQAAFTAxFVh/f39pvVVD/Jtv5lvO5xCn6+a24m63W6Fw+G6rIVZpQAAAKgFpYyFqnkfjfpXSxMlAcAMhHQAAFTAxAAlHo9PC1iq1ddMXjdbvq0Y862kK3SWRbW2Ex0cHMz5Z1ZLtaxatSrve1KpFFteAgAAwHJ2u73otpepVIqgDnnV0kRJADADIR0AABUyccZftVfTFVJLIV2+8yZcLlfeGZKdnZ0Fr1fpgVk8Hld/f78Mw5h23l8t1VLshx1bt26taC0AAADATJQyFrJyvITaVksTJQHADIR0AABUyMRAJ5lManBwsCr95DvjLcPtdlel35nIN9BZv3593vdkzvfLx+v1Fv09KFUqlVJXV1femmqpFsMwLJtVCgAAAJTK6XROm3A2VSqVqtp4qRzxeLxi9/PlOnLkiCX91rpamijZKEZHR60uAUABhHQAAFTI1AClv7+/KlsQ5jvjLaOnp6fifc5UrtVdDoejaPhV7MD5SgWRXV1dSqVSstvt8vl8NV+L1+vN+/5UKlW1GckM6gAAAFCOzZs35905I6Na46VSRaNRdXR0qKOjY1ZB3Uzvla0KB2tdLU2UBAAzENIBAFAhbW1t057LBC+VFAqF8r5WaBtJsyWTyZyD7s2bNxd9b7GwKRqNFtwGpZhUKqWOjo5sfYFAoC5qKRYYDg4O5t1itJQ68v1d5QcIAAAAKIdhGAXHLRnVGC+VIhwOT7qHLzaGKvR6IpGYUQ2F7tvn+v13LU2UbARz/e8TUOsI6QAAqJBcWxFOnJlXCcUOWS8lACunr9nIterL4/EUnRkplXbgfGbma7l1RqNRtba2ZkMxl8tVsK9aqsUwjKID1u7u7hn92RUKI2ca/AEAAGDucjqdRYOPzIQ1M0MEr9ebDXkMw1AsFiv6npaWlryvRaPRsmuIx+MF3zfXd7KopYmS1Vapv/uF/o7O9b9PQK0jpAMAoELyhU/xeLxiA8++vr68r/n9/oquootGozMOZ6LR6LRBp91uL2vwU0rbeDyu5uZmeb3eorXG43G53e5JIZbdbi9phm8t1VLszzmZTJY9IzkYDBY924GD1AEAAFAuv99fNKhLJpNqbW2dUdhVjsy4LHPfmwnoShlDFZpoWCxwmyqVShVdCVbJSXJmBjSV6quWJkpapdzfy0J/jyORyCyrAVBNtnQ6nba6CAAAGoXNZsv7WiaEKWUlWS5erzdvkOLxeGY8+69YzaUOXDOSyeS0wVJmAJxrtWEhg4ODZZ2zZrfbsw/DMJRMJrOPqYO3cmuqpVpKmTlqGIY2b95c9PDz/v5+DQ4OltSvx+NRR0eHWlpaNDo6WnRVHwAAACCdnBRW6HzlDJ/PJ7/fX9G+U6mUNmzYMOmedybjnIkrr6YyDEP79+8ver1oNCq3261UKiWXy5V3Ipzdbi97G81847qZXKsW+komkzmPlMjF4/Gov7+/4HgqHo9rw4YNk37Py623u7s7byA7kx+xp1IpNTc353zN4XCUtMqzlGsVqy8ajSoQCJQ0aRRAFaQBAEDFGIaRllTw4fF40mNjYyVfM5FIpJ1OZ97ruVyuWdVcrF7DMNKRSKTkWu12+7T3JxKJGdfncrmK1ljuY6Y11VItfr+/pOvb7fa03+9PRyKRdCKRSCcSiXQkEkn7fL5Jf19DoVBJf38nPsr5ewwAAIC5LRKJlHS/aRhG2u/3z7q/sbGxtN/vn9an0+mc0X1sIBCY8bgpEomkHQ5Htq3P50uPjY0VvY8PBALpWCxWdLxQ7FqVZGZfpY55Jv6eOZ3OtMfjSft8vrTL5Uo7HI6cf+9mMg6bOtad+JjJmC4SiRT8+1SuQt9fHo+nYA0Oh6Ps/gBUBiEdAAAVNHHgVezhcrnSgUAg5wBxbGwsHQqFioZClRi8FhoUTPy1w+HIO+jMDIBzDZJisdisa6xkOGa322cVLtVSLeUOWov9PSrlhyYOhyPv31sAAACgkGITEKeORzweTzoUCpV871lsHBUIBGZVf6kho9PpzAZEU1/3+XzZWsu5Zy/0e+Dz+Qq+N9NnJZjZVzpdOxMlY7FYwWvO5O+Wx+MpeM1yx9LFrudyudKhUCg7cTPze2sYBuM7wEJsdwkAQAVN3JLSbrfL6/XqyJEjJZ1TkNkapZQ99We7deZE+bYqcblc8nq9ObdVdDgc6uzslCSNjIzk3PZlNltw5lLudpO5VGr7nFqqJRwOq6+vb8ZnHgYCgey2lc3NzTmvk/m77HK5yt6yFAAAAJgqHo+rr68v7/aRuUzcSj5zT5pKpbJbyo+Ojua9J/Z4PBU5wztzrt1MTRwDFNueMMMwDPX09OQdW5W6lWgkEpn12Wtm9jWR2+2u2BnZM9nqNJVKqaurq+Df13KPMCjl99LhcGh4eLjkWsvZInSiSv95ASiT1SkhAACNJLOyKd9MtEgkkvZ4PAW3ySj0KLSababy9ZXZRrOc2a7Sye1jKrF6LpexsbEZzaT0eDyz2nKz1mtJp9PTtq8s5e/S1Domvt8wjLTP56vanyUAAAAQiURmPDay6t47FArNqJapK60KraRzOBxpv9+fs/ZEIpEOBAJpl8tV9nb1Docj7fP50qFQKB2JRIqunjKzr2IqsYtIOav8EolEOhQKlT3Ocjqd6UAgkPMzx2KxdCAQKGt8nfl7nFkBV0yx1XQTH4ZhMN4DagAr6QAAqKDMqqbMTM1CksmkotGoYrGYRkdHlUwmszNBJWVniXZ2dqq7u1tOp3PWMz9zKbSSbuLB0dFoVKFQSNFoNDtLNTOL1W63a9WqVfJ4PFWpMZdwOKytW7cW/X1zuVxzqpbMn9PIyMi0Wux2uxwOh7xeb84Znm1tbXI6nXK73cykBAAAgGni8bi2bt2qcDicvX+dqcz9bGa3iGqIx+Nyu90l1epyueT3+6fdf09dSZe5T+/p6Sk4ppq4e8ts+f1++Xy+muirFKlUSn19fWWvqvN4POrv7y9rV5BKfPapK9Tyjb1LVepuNaWsPHQ6nQqFQqaN3wHkR0gHAMAcV2pIBwAAAADVlkqlFI1GtWvXLiWTScXj8WlbWRqGoZaWluxEtI6ODnV2dlbkOIBy5JrImKkpM0kvXzCUSqXU0dGRPWaAbeXLU0sTJWtRNBpVIBBQNBqdNMG2s7Oz7MASQHUR0gEAMMcR0gEAAAAAAADmm2d1AQAAAAAAAAAAAMBcQ0gHAAAAAAAAAAAAmIyQDgAAAAAAAAAAADAZIR0AAAAAAAAAAABgMkI6AAAAAAAAAAAAwGSEdAAAAAAAAAAAAIDJCOkAAAAAAAAAAAAAkxHSAQAAAAAAAAAAACYjpAMAYA5LpVIzeg0AAAAAAADA7BDSAQAwh42OjuZ9LZlMmlgJAAAAAAAAMLcQ0gEAMIeFw+G8ryWTSVbTAQAAAAAAAFVCSAcAwByVSqW0YcOGgm36+/tNqgYAAAAAAACYW2zpdDptdREAAMAcyWRSyWRSoVBIwWCwpPc4HA55vV51dnbKbrfLMIzqFgkAAAAAAADMAYR0AADMEV6vt+RgrhiXy6VQKFSRawEAAAAAAABzESEdAABzRGYVXSXY7XbZ7faKXAsAAAAAAACYiwjpAAAAAAAAAAAAAJPNs7oAAAAAAAAAAAAAYK4hpAMAAAAAAAAAAABMRkgHAAAAAAAAAAAAmIyQDgAAAAAAAAAAADAZIR0AAAAAAAAAAABgMkI6AAAAAAAAAAAAwGSEdAAAAAAAAAAAAIDJCOkAAAAAAAAAAAAAkxHSAQAAAAAAAAAAACYjpAMAAAAAAAAAAABMRkgHAAAAAAAAAAAAmIyQDgAAAAAAAAAAADAZIR0AAAAAAAAAAABgMkI6AAAAAAAAAAAAwGSEdAAAAAAAAAAAAIDJCOkAAAAAAAAAAAAAkxHSAQAAAAAAAAAAACYjpAMAAAAAYI5JpVLyer3q6Ogwpb9oNJrtr7m5WTabTc3Nzero6JDb7VY4HDalDgAAAKCW2NLpdNrqIgAAAAAAQPWlUin19/crGAxKkux2uxKJRNX6CwaD6u/vVyqVyj5nGIbsdruSyeS059evXy+fz1e1egAAAIBawko6AAAAAAAaXCaca25uzgZ01e6vu7tbXq83G8Q5nU7FYjGNjY1l/zs2NiaPxzOpxu7u7knhHQAAANCoWEkHAAAAAECDSqVS2rBhgwYHB3O+Xo2VdMlkUh0dHZOCNp/PJ7/fn/c94XBYbrc7+2vDMBSLxWS32ytaGwAAAFBLWEkHAAAAAECDmbhyLl9AV61+p66Ec7lcBQO6TJuJ21ymUqlpQR8AAADQaFhJBwAAAABAAxkcHFR/f7/sdrscDoekkyvVcqn0Srru7m5Fo9FJz42NjckwjJLe39bWpmQymf210+lUJBKpWH0AAABALWElHQAAAAAADaK/v19HjhxRIpFQIpFQKBTKPqotGAxOC+h8Pl/JAZ2kaSvuotGoqSsBAQAAADOxkg4AAAAAgDnAZrNNe66SK+mam5unbU9Zziq6Sl8HAAAAqHWspAMAAAAAYA6oZsgVDoenBWtOp3NGffb09Ex7bsOGDTOsDAAAAKhdhHQAAAAAAMwBLS0tVbt2rhDN7XbP6Fq53jc4ODgtBAQAAADqHSEdAAAAAACYsXg8rng8Pu15p9M5o+vle18wGJzR9QAAAIBaRUgHAAAAAABmLN9WlHa7fcbXzPXerVu3zvh6AAAAQC1aYHUBAKrr2LFjeuKJJyY919LSonnzyOgBAABq3YkTJzQ6OjrpueXLl2vBAoZyqB3RaHTacw6HY1bXdDgcSiaTk56Lx+NKpVJVPVuvXIy3AAAA6pvVYy5GdkCDe+KJJ3TBBRdYXQYAAAAqZO/evXrjG99odRmAJCmZTOY8K66zs3NW1121apXC4fC054eGhuTxeGZ17UpivAUAANB4zBxzMbULAAAAAADMSK5VdJLU1tY2q+vmW4kXiURmdV0AAACglhDSAQAAAACAGckXms3mPDrp5JaRucTj8VldFwAAAKglhHQAAAAAAGBG8oVmsz03Ll/IN/WcOgAAAKCecSYd0OByzUDdu3evlixZUpX+Dh8+PO1Mhmr2ZwU+Y2PgMzYGPmNj4DM2Bj6jeX3mW2EEWCFfaDbblXSFQr5kMjnr61eK2eMtiX9vGwWfsTHwGRsDn7Ex8Bkbw1wccxHSAQ1u3rzpC2aXLFmipUuXmlaD2f1Zgc/YGPiMjYHP2Bj4jI2Bz1gdue7vACukUqm8r1XiBxuGYeTsIx6P10xIVwvjLav6NBufsTHwGRsDn7Ex8BkbA5+xOswccxHSAQAAAACAso2OjuZ9bbbbXdazw4cPV+3ajf5DOAAAgHwOHTpUletW896tFIR0AAAAAACgbFadD1coHKwFU7dLqqR0Ol21awMAANSys846y+oSqoJ9UgAAAAAAQNkKbXdZCfm2zKx2vwAAAIBZCOkAAAAAAEDZrFrRduTIEUv6BQAAACqNkA4AAAAAAJQt30q3SpnL59oBAABgbuBMOgAAAAAAULZqh2j5trVcvHhxVfudrb1792rJkiVWlwEAANBQDh48WJXrHj58uKpnChdDSAcAAAAAAMpW7ZV0+dT6CrslS5Zo6dKlVpcBAADQUBr1/ortLgEAAAAAQNmqHZblO/PObrdXtV8AAADALKykAwAAqDPpdFonTpwo65FOpyc9Mtcp97lqvC/XD2F//vOfZ3/4W8q1c/0elfKcWW3Hx8envb5jxw41NTXVzWco1jbXZ/zOd76jRYsWlXyNWnf06NFpz919991atGiR3vnOd+qcc86xoCrAOoVW0qVSqaqFeFat4KsVL7744rTn3ve+9+kv/uIv9LnPfc78ggAAADBjhHQAUKalS5fW7Q8XS8VnRK1Ip9M6duyYXn755UmPV155Jfv1rl27Jj3/0EMP5W3/yiuv6NixYzp+/LiOHTuW9+tSnyv0+vHjxycFZOWGahMfCxcunHSN173udVb/0VTd+9//fqtLqLq//uu/trqEqvN4PFaXUHVer1fSyUCSkA5zjVVn0tX6dpfV8ulPf1rf+ta39OSTT057bdeuXQ21BdRcuFfnM6JezIU/Rz4j6sVc+HOcC59xKkI6AABQlhMnTui5557Tn/70p5yP5557Ti+88IJeeOEFvfjii5P+m+/rXM+99NJLeuWVV6z+uAAAoACHw6F4PD7t+WQyKYfDMePr5gvopLm73eXRo0d14MCBvK8/9thj5hUDAACAiiCkAwBgDhkfH9dzzz2nVCo16TE+Pj7p10ePHs0bwj3//PNWfwwAAFAjnE5nzpAu33lypcr3/tkEf/VuxYoVBV/fv3+/Xn75ZS1cuNCkigAAADBbhHQAANShV155RUeOHNGhQ4d0+PDh7GPir59++ulp71u+fLkF1QIAgEa1atWqnM8nk8lZXTff+51O56yuW8+KhXQnTpxQMpnUG97wBpMqAgAAwGwR0gEAUEP+9Kc/6ZlnntHvf//77H8nfv3MM8/o2Wef1fj4uNWlAgAA5A3NEonErK6bb7vL7u7uWV23nq1cubJom8cee4yQDgAAoI4Q0gEAYJJjx47p6aef1pNPPqknn3xSv/3tb7NfP/nkk3r66af1pz/9yeoyAQAASmYYhgzDmBaq5doCsxy7du3K+XxnZ+esrlvPzj33XJ122ml68cUX87Z5/PHHTawIAAAAs0VIBwBABT3//PPat2+fHn/8cT3xxBN64oknlEgkdODAAT399NM6fvy41SUCAABUlMfj0eDg4KTnRkZGZnXNXCGfw+GQYRizum49mzdvnpYvX65f/epXeds89thjJlYEAACA2SKkAwCgTOl0Wk8//bQeeeQR/frXv9bjjz+eDeVynQMHAJjOZrM1VD/AXOb1eqeFdKlUSqlUasahWq6Qr7e3d0bXaiQrVqwoGNKxkg4AAKC+ENIBAFDA4cOH9cgjj0x7cCZcfVi4cKFOOeUULVy4MPv1ggULtGDBAs2fP3/Sf/N9XepzU1+fN29e9r/FHjabraR2s2mf7yGpYZ6bqhLPV+rahw8f1rJlyyY99+STT2rp0qVV6bOWfk8AND673S6HwzFt9Vs0GpXL5Sr7eslkMueZdB6PZ6YlNoxi59IR0gEAANQXQjoAAP6fQ4cOKRaLaWRkJPvfp556yuqy6s6pp56q008/Pfs47bTTJv0339dTnzv11FN16qmnTgrYMl9PfeR6bcGCBYQGqBnPP//8tOcyf98BoBF4vV55vd5Jz23dunVGIV04HJ72nMfjmdNbXWasWLGi4Ot/+MMfND4+rqamJpMqAgAAwGwQ0gEA5qQXX3xRu3bt0gMPPKCHHnpIIyMj+t3vfmd1WZY45ZRTZBjGpEdTU5Ne+9rX6jWvec2kx5lnnjntuamvL1jA7QUAALVodHS0atf2eDzq7++ftAIuV9hWikAgMO25/v7+mZbWUIqFdNLJ1XSrVq0yoRoAAADMFj9FAwDMCYcOHdKDDz6on/70p3rggQcUi8X08ssvW11WRb3mNa/R0qVLtWTJEi1ZskSvfe1rNTQ0NKnNf/7nf+q8886bFMadfvrprDgDAACztn79+mlhWjAYLGubyng8rmQyOek5n88nu91ekRrrXbHtLiXpscceI6QDAACoE7Z0Op22ugjUlng8rq1btyoajSqVSimZTMowDLW0tMhut8vtdsvpdFZ9kBSNRhUKhTQyMpI9k8AwDNntdtntdvX29s5o65R6q2G2Dh06pLPOOmvScwcPHsx5Bg7QSMbHx3XfffcpGo0qGo3q0UcftbqkGTEMQ3/2Z3+ms88+O/vfs88+W6973euygdzSpUu1ePFinXbaaVaXCwCoMO7lUEm5JuUYhqGxsbGK9dHR0THpbLpyrz/1/Xa7XYlEomL1VZoV36NLlizRkSNH8r7+mc98Rv/4j/9Ytf4BAAAaidVjLlbSISsajcrr9U6btShJqVQqG9hFo1FJksvlkt/vr3hYFwwGp22TYhiGHA6Hksmk4vG44vG4wuGwDMPQ+vXr5fP5Gq4GAOV55ZVX9POf/1zRaFSRSEQPPfSQjh8/bnVZBS1ZskTnnXde9vHnf/7nOuecc7KB3Otf/3rOqwIAABWRGcdNNXHMUwmhUEgdHR3Z66ZSKfX398vv9xd9bzAYnBTQSVIkEqlofY1g5cqVevDBB/O+/thjj5lYDQAAAGaDlXRQKpWS2+3OO2grxu/3VySgylWH0+mU3++Xw+GY1K6/v1/BYHBSu1AoNOuDxGuhhkqzeiYAUE1jY2P6wQ9+oHvuuUc/+MEPND4+bnVJk5x55plasWKFli9frra2Ni1btkx//ud/ng3kzjzzTKtLBADUOO7lUClTV6hNVKkxXUYymZwU1Eknz5krtO1lNBpVd3f3pOcikYicTmfF6qoGK75H//f//t/62te+lvf1iy66SLt3765a/wAAAI3E6jEXId0cl0wm1d3dnXP1XDlcLpdCodCs6pg6iPP5fAVnW4bDYbnd7uyvDcNQLBab8cq+WqihGqz+RwaotGQyqe985zu65557dP/991u+Wm7BggVasWKFVq5cqeXLl2dDueXLl+v1r389Z70BAGaFeznMRjKZVDgcViAQKDrm8/l86u7uVmdnZ0UmHiaTSbnd7knBYK7dWHJNgLTb7YpEIjU1rsrHiu/RgYEBrV+/Pu/rZ5xxhv70pz9xHwoAAFACq8dchHRzWCqVUmtra8W2NykWaBWqo6OjY9KgsdTQr7+/X4ODg9lfG4ah/fv3lz2orIUaqsXqf2SASvjd736noaEh3XXXXRoZGbGsDrvdrgsvvDD7ePOb36wVK1Zo4cKFltUEAGhs3MuhXMlkUm1tbRW5ViKRmHVQlu8oAbvdnj1SYaKZjiutYsX36Pbt27V27dqCbX73u9/pnHPOqVoNAAAAjcLqMRch3Rw2dbsTj8cjt9stu90+aSAWj8e1detWBYPBooHeTLYj6e7unrbV5tjYWMkhV1tb26SBndPpLPvcglqooVqs/kcGmKk//OEP2rp1q7Zu3VrwzI1qmD9/vi644AJ1dHSos7NTHR0duvDCC/Wa17zG1DoAAOBeDo0iGo0qFAppZGREyWRSqVRKhmGopaVFDodDvb29cjqdNTPZsVRWfI8+8sgjevOb31ywzfDwsC6//PKq1QAAANAorB5zLTClF9ScwcHBbEDncDgUCoXyzpB0OBxyOBzy+/0aHBxUf39/3uv29/crFouVXEcwGJwWjvl8vrIGZn6/f9KWk9FoVIODgyWfqVALNQA46ZVXXtF///d/66tf/aq+//3vm7aVZVtbmy655BKtXr1aHR0deutb36ozzjjDlL4BAADmAqfTWfPny9WL888/XzabTYXmXD/22GOEdAAAAHWAlXRzUCqVUnNzs6STW7fFYrGyAqlcB3pPVM5quubm5mmr88pZwVaJ69RCDdVk9UwAoBR79+7VV7/6VX3zm9/UwYMHq9rXggUL5HA49I53vEPvfOc7dckll+j1r399VfsEAGCmuJcDaptV36Otra06cOBA3tf/7u/+Tl/60peqWgMAAEAjsHrMNc+UXlBTJh7IHYlEyg6RnE6nAoFA3tdLOcdNksLh8LRQa6bbm/T09Ex7bsOGDXVRAzBXHTt2TOFwWO9+97v1pje9SbfddltVAjqbzaZVq1Zp/fr1ikajGh8f1y9+8Qv98z//s6655hoCOgAAANSdlStXFnz98ccfN6kSAAAAzEbDrKTbs2ePRkZGlEgklEqlNDo6mj2EenR0VC0tLbLb7dk97w3D0KpVq+R0OrVo0SKryzdV5vy0QCAgj8cz4+tMPdMuwzAMjY2Nzej9M60p3+q+YivZaqGGarN6JgAw1aFDh7R582bdfvvteuqpp6rSx/nnn6/u7m45nU5ddtll2dXDAADUG+7lgNpm1ffo3/7t3+pf//Vf877e1tamffv2VbUGAACARmD1mKtuz6Q7evSogsGgtm7dmjMoyshkkGNjY0omkznb2O12OZ3O7A90Gzm0i8fjSiaTstvtswropJPnsOUKpaauTMtXR64/t5meUZDvfcFgMO+5cLVQAzCXPP7449q4caO++c1v6qWXXqrotefNm6d3vvOdev/736+rrrpKK1asqOj1AQAAgFpSbCXd/v379fLLL2vhwoUmVQQAAICZqLvtLnfu3Kk1a9aoublZ/f39isViSqfTeR82my37yNcmkUgoGAzK7XarublZN910U8G93etZNBqVdDJgm61CYVaxoC7fNpB2u33G9eR679atW2u6BmAu2L17t3p6evSGN7xBW7ZsqVhAd8YZZ8jtduvOO+/UoUOHdN999+mTn/wkAR0AAAAaXrF73hMnTiiRSJhUDQAAAGaqblbS7dy5U16vN7sabuIunTabraRrFGo38XqBQECBQEDd3d3q7+/XZZddNsOqa8/WrVtlGIZcLldFrud0OrPB30TFtnfM9R6HwzGrWhwOx7TVkvF4XKlUKmc9tVAD0Mjuv/9+ffGLX9SPfvSjil3z1FNP1fve9z719vbqfe97n84888yKXRsAANQ+jjkATiplYtrjjz+uN77xjSZUAwAAgJmq+ZDuwIED8nq9ikajMwrmJGVX1BUy8fVMP5FIRJFIRN3d3RoaGmqIQd369esrGhblulax6yeTyZwr7To7O2dVy6pVqxQOh6c9PzQ0NG1rz1qoAWhUIyMj+vSnP12xcG7evHlas2aNPvjBD+r9739/Q/xbDAAASsMxB0Bu5557rk477TS9+OKLeds89thjJlYEAACAmajpkG7jxo26+eabJU0P2iYGdlNlQqKWlpbsrzOBzOjoqKTC2zFO7WfHjh1qbW3Vli1bdPXVV8/ko9SMSq2gy8j8Hk9UbLvIXCvYpJMHW89GvlVwkUhkWkBWCzUAjebXv/61/r//7//T9u3bK3K9FStW6KMf/ag+/OEP68/+7M8qck0AAFAfdu7cKb/fn71vLzT+k3JPupwqkUgomUwqGAxKkrxer3w+n5YtW1aZogETzZs3T8uXL9evfvWrvG1+85vfmFgRAAAAZqImQ7qjR4+qq6tL8Xh80rlyEwdbDodDnZ2d6ujokN1uz25r0tTUVHI/4+PjGh0dVTKZVDKZVCwW08jIyKQZmpnB3tjYmFwul9xut4LBILMu/59M6DlRsZAuEonkfH42Z8FJuQNDSTln3NZCDUCjeOaZZ3TLLbfoG9/4RtEfoBVz+umn69prr9X111+vSy65pKxV0wAAoP5xzAFQupUrVxYM6R599FETqwEAAMBM1FxIt2fPHnV1dU1a6ZZOp2W32+VyudTb26v29vaK9NXU1KSmpia1traqq6tLfX192dd2796trVu3KhwOT9ouJRQKKRqNanh4WG9961srUkc9y7WVTG9vb8H35AusZrsNZ76ALVeNtVADUO9eeOEF/fM//7M2bNig5557blbXOu+88/Txj39c119/fd6wGwAANC6OOQDKV+y8uUcffbSk7wsAAABYZ57VBUy0bds2dXR0KJVKKZ1OK51Oy+PxKJFIaN++fRoYGKhYQFdMe3u7BgYGtG/fPsViMa1duzZb0+joqBwOh+69915TaqllucIup9NZ8D2FzoiYjUIB29Q+a6EGoF6l02mFQiG98Y1v1Kc//elZBXSXX365vvOd7yiRSGjdunUEdAAAzEEbN25UW1tbNqDL7KSS2U0l32PipMvW1lY5HI7s15nXCr0/04c0+ZiDu+++2+LfEaA0F1xwQcHXx8fH9eyzz5pUDQAAAGaiZlbSZc6fy8xm9Pv98ng8ZW1fWS3t7e0KhUJKJpPq7+/Xtm3blE6n5XQ6FY1G5+y2KLkCOo/HUzCoKnQWYCV+OD/x/MGJ4vF4NoCrhRqAevXEE0/oYx/7mHbu3Dnja9hsNq1du1Y333yzOjo6KlgdAACoJxxzAMxOsZV00snVdGeffbYJ1QAAAGAmaiKkW79+vQYHB5VOp+VyubR58+aaCOemstvt2e0ue3p6lEql5HQ6FY/H5+TWl1u3bp32XH9/f8H35DrDLmO2W02WqhZqAOrNyy+/rI0bN+rzn/+8XnrppRld45RTTtF1110nn8+nFStWVLhCAABQTzjmAJi9FStWTAu2p9q7d68uv/xyE6sCAABAOSwP6W699Vb5/X5JUjgc1jXXXGNxRcU5nU4lk0m53W4NDw+rq6tLsVhM5513ntWlmSocDk/6tcfjKbpSzKotHycGc7VQg9UOHz5ctWsvXbq0ateGNR588EF5PB79+te/ntH7FyxYoOuvv16f+tSndO6551a4OgAAasOhQ4eqct1q3rdZZdu2berp6ZH06rlwHo9H/f39am1tNbWW9vb27FEHu3fv1j/90z9p27ZtkpQ95mAu756C2nb66aertbW14Bj30UcfNbEiAAAAlMvSkG779u3y+XySpGg0WlezuwzDUCQSkdvt1rZt2+R2u/XQQw9ZXZZpotHopIGAYRjZsLWQQltNVkJLS0vOPiY+Vws1WK3Y2QWzUWgWJ+rLCy+8oE996lP68pe/PKM/V5vNpg996EP63Oc+p7a2tipUCABA7TjrrLOsLqEucMwBUFlvfOMbCekAAADq2DyrOt6/f79cLpdsNptisVhdBXQThUIh9fX1aWRkRDfddJPV5ZhmaiC3efPmkraKtGo12ZEjR2qqBqDWxeNxdXZ26ktf+tKMArqrrrpKv/zlL/XNb36TgA4AAEg6ecxBJqBzuVwaGxvTunXraiKgmyhzzMGOHTtkGEY2qHv44YetLg2YptgETEI6AACA2mZZSOd2uyVJkUikYmcNWCUQCGjt2rUKBAK69957rS6n6uLxuKLRaPbXLpdLLperpPe2tLRUqyxJpZ0pVws1ALXq2LFj+sIXvqCLL75Ye/fuLfv9F154oaLRqL773e/qwgsvrEKFAACgHmWOOUin0wqHwxoaGqq5cG6qzDEHXV1dSqfT6urq0pNPPml1WcAkb3zjGwu+/uyzz9bUri4AAACYzJKQbuPGjYrH4wqHw3W7gm6qUCikiy66KBs+NrKJB61nZpmWqtoBVr7Bx+LFi2uqBqAW/fa3v9Wll16qz3zmMzp27FhZ7128eLFuv/127d69W11dXVWqEAAA1KOpxxzUwznkGZljDtauXavR0dE5Md5DfSkW0kmspgMAAKhllpxJt2vXLvl8vroanJVieHhYnZ2d2r59e8N9toxgMKh4PC7p1QFrOaq9ii2ficFcLdRgtb1792rJkiVWl4Ea8v3vf1/XXXfdjLaDvfHGG/XFL35Rzc3NVagMAID6cPDgwapc9/Dhw1U9T7jaJh5zMDIyUre7qIRCIXm9Xm3evFk33XST/v3f/93qkgBJpYV0e/fu1dvf/nYTqgEAAEC5LAnphoaGrOi26gzD0L59+6wuo2pSqZS8Xm/218PDw7Lb7WVdo9pBVb6AYWKdtVCD1ZYsWaKlS5daXQZqwCuvvKJPf/rTGhwcLPu9b3rTmxQMBnXJJZdUoTIAAOoL91a5NdoxB6OjowoEAnK73brsssusLglQU1OTzj77bP3+97/P24aVdAAAALXLsjPpUH8mbmEXCoXkcDjKvkahVWzV3Cd/Yr+1UANQC5555hlddtllZQd0p556qr7whS8oHo8T0AEAgLw45gAwR7HVdIR0AAAAtYuQDiXxer3ZbS4DgYBcLteMrmPVeXAT+62FGgCr7dq1S6tWrdIDDzxQ1vs6Ojq0e/dufepTn9LChQurVB0AAGgEjXzMgWEY2r59u9WlAJJUdEtcQjoAAIDaRUiHooLBoILBoKSTAZ3H45nV9fKtwEsmk7O6bqFVcFO3mqyFGgCrfPvb39all16qZ555puT3zJ8/X5/97Gf1s5/9rKRzLwAAAIaGhjQwMGB1GRWXOeag0cJH1K9i9+cHDhzQCy+8YFI1AAAAKAchHQqKRqPZc+j8fv+sAzpJcjqdOZ/Pd5ZbqfK9P1cgVws1AGY7ceKEbrnlFn3oQx/Siy++WPL7VqxYoQcffFCf+9zndMopp1SxQgAAAADlKhbSpdNpPfbYYyZVAwAAgHLM2ZDu6NGjWr9+vZYvX6758+dnH2vWrNEdd9xhdXk1IZlMZs9a8Pl88vl8FbnuqlWr8vY3G/nenyuQq4UaADO98MILcrvd2rBhQ1nvu+666xSPx7V69eoqVQYAAABgNkrZ6WLv3r0mVAIAAIByzcmQbuPGjWpubtbg4KASiYTS6XT2EY1G5fF4tGLFCj388MNWl2qZVCqljo4OpVIpeTwe+f3+il07X2CVSCRmdd18W012d3fXZA2AWUZHR3XFFVeUdW7KaaedpjvuuENf+9rXdOaZZ1axOgAAAOsNDw9r+fLlVpcBzMjrXve6omegcy4dAABAbVpgdQHl6u3tlfRqGJLZXnBiOPLEE0/kff/69es1ODiodDotSbLZbNPapNNp7du3Tw6HQ9FoVJdddlmFqq8PEwM6l8ulQCBQ0esbhiHDMKYFWvF4fFbX3bVrV87nOzs7a7IGwAy//e1vdeWVV5Y1KF+xYoVCoZDe8pa3VLEyAACA2hGPx2e9qwZgFZvNpgsuuEAPPvhg3jaEdAAAALWp7lbSpdNphUIhRaNRRaNRxWIxxWIxNTU1yePxaGhoKO97N2/eLL/fr3Q6LZvNNi2gy6ymk07e5KbTablcLh04cKCaH6mmZAK6ZDIpl8ulUChUlX5ynW03MjIyq2vmCtgcDkfeGYW1UANQTb/61a90ySWXlDUg/6u/+iuNjIwQ0AEAgDml0hMTAbMV2/KSkA4AAKA21V1Il9k2MBOoeTweJRIJjYyMaN26dWpvb8/5vv3798vr9WbDuYmBXOZrp9Mpj8cjp9OppqYmSSdDq4997GPmfLga0NXVpWQyKafTWZGALh6P59wC0uv1TnsulUrl3S6yFLkCtszKy1xqoQagWnbt2qVLL71UTz/9dMnv+fSnP63t27frta99bRUrAwAAqC3r169nFR3qXrGQ7vHHH9fLL79sUjUAAAAoVd2FdJFIRNLJ1UmJREKbNm1Sa2tr0fdNPBMss5Iu87XL5dLY2Jh27NihTZs2aceOHRodHdW6deuUTqcViUS0Z8+eqnyeWtLd3a14PC6n05n9fZ6NVCqlrq6unMGV3W6Xw+GY9nw0Gp1RX8lkMme4lmu1XC3VAFTDAw88oK6urpID59NPP1133XWXPv/5z2vevLr73wIAAMCMHDhwQGvWrNHg4KDVpQCzdsEFFxR8/dixYwWPBgEAAIA16uqnsePj4wqHw+ro6NDIyEhJ4Zwkbdy4UclkMruCbuJ/vV6vhoaGsivnJvL7/dmgLhgMVvrj1JTu7m5Fo1E5HI6KBHSS1NfXp5aWFjmdzpyv51rJtnXr1hn1FQ6Hpz3n8XiKbjNZCzUAlfTjH/9Ya9as0R//+MeS2p999tm6//77WfEJAADmjAMHDujGG29UW1ubotFodocVoJ696U1vKtrmkUceMaESAAAAlKOuQrpgMCibzVbWNozj4+Pq7++fFMxl2O123X777QXf7/f7ZRhGxYKrWuR2uxWNRmW32zU8PFyRa3q9XoXD4ZwhWEauACtX0FWKXGdI9Pf3F31fLdQAVMqOHTv03ve+V88991xJ7VeuXKmf/exn6ujoqHJlAAAA1tuzZ496e3vV1tamYDCYPfZg6lnlQD0699xztWjRooJtCOkAAABqT12FdFu3bpXdbteyZctKfk9fX9+05zIDsVLDPqfTqdHR0ZL7rCeZMM1utysWi81q1VcqlVI0GlV3d3d25WGxrR7Xr18/7blyVy3G4/FpZ0j4fD7Z7faS3l8LNQCztXPnTr3//e/Xiy++WFL7t7/97XrggQd03nnnVbkyAAAAa23fvl2rVq1SR0eHwuHwpHCOgA6Nwmaz6cILLyzYhpAOAACg9tRVSJdMJnOeIZbP8PCwwuFwzm0uPR6PLrroopKuY7fbSz7bqZ709/dnw6hkMqnm5ubsQHUmj+bm5uy2mZLkcrmKhn4+n2/an2m5q8+mBrF2u11+v7/k99dCDcBs/OxnP9P73/9+vfTSSyW1f//7369oNKrFixdXuTIAAABrHD16VLfeeqsWL14st9utWCw2LZzL/BpoFIR0AAAA9aeuQrpUKlXWyqRCWy2WE6AsXry44c4VGxwcrPoB6YV+/ycKhUKTfn9TqVTJIVkwGFQ8Hp/03Ey2Jq2FGoCZ2L17d1lbXH74wx/Wtm3bdMYZZ1S5MgAAAPNlzptrbm5Wf3+/xsbGskEc4RwaXbGQLpFIlDxuAAAAgDnqKqQzDGPaloL5rF+/XslkMucquoGBgaJ7tU+USCTU2dk507JrTjAYrPpZaXa7XU6ns+S2U7faHBwcLLrlZDQanRYERiKRGW0xWQs1AOV69NFHdcUVV2h8fLyk9tdff73+4z/+QwsWLKhyZQAAAObauXOn1qxZk/O8uVzh3MTngUZRLKRLp9N69NFHTaoGAAAApairkK6lpWXaiqVc9u/fL7/fPymYy7Db7Vq3bl1Z/WbOWWsE4XC45BVus1FuH5mQbOK2k16vV263e1owm0ql5PV6J/2Z2O12JRKJkoPBWq0BKNVTTz2l7u5uHT58uKT2N910k4LBoObPn1/lygAAAMyzZcsWLV++PLvtfq7z5nIFdhOfZ1UdGkWxkE5iy0sAAIBaU1chXVdXl5LJpO64446C7XIFaplBWSgUKqvP3bt3a//+/XK5XGW9r1a53W5T+vF4PGW/JxOSBQKB7Iq2cDistrY2NTc3q6OjI/v1xBVuPp9PiUSiIqvXaqEGoJjx8XG9973v1dNPP11S+0984hP6t3/7N82bV1f/5AMAAOSU2dJy/vz58nq9SiQSec+byxfYtba2yuPxyO/3M8kODWPp0qU666yzCrYhpAMAAKgttnQdTRvcvXu3Ojo6ZLPZFAwGdf311096/cCBA9lDwXNtc+nz+bRhw4ay+uzs7NT+/ft15MiRSn4UlCAajSoUCmlkZETJZFKpVEqGYailpUUOh0O9vb1yOp1VPS+wFmqYrUOHDk0bqB08eFBLly61qCLMxssvv6wrr7xS9957b0ntP/7xj+tf//Vf2coJAIA6xb3cq3bu3Cm/369oNCpJk7auzJg4vJ0YzEknj0/weDzyer1qbW2ddO2Ojg7t2bNHx48fr+pnQOOpte/Rrq4u7dy5M+/ra9as0Q9/+EMTKwIAAKhtVt/P1dXBRO3t7Wpvb9fu3bvl8Xg0MDCQDUji8Xh2sCZp0jaXNptNDoej7IDuiiuu0O7du5lZaRGn02n5730t1ABkpNNpXX/99SUHdP/rf/0vfeUrXyGgAwAAdW3Lli3y+/3ZLejLDeccDofWr1+vtWvX5u2jt7dXe/bsqXTpgOne/OY3FwzpWEkHAABQW+oqpJOkUCik888/X5KUSCQmnRWWb7DW1tam4eHhkvvYuXOnvF7vtHPIAMBKn/nMZ3TnnXeW1Nbtdmvz5s1scQkAAOrS0aNHtWHDBgWDQaVSqYIh3MQtLjP/lSSXy6X169ervb29aH9tbW1V+BSA+YqdS/f0009rbGxMzc3NJlUEAACAQuoupLPb7RoZGZHT6VQqlZr02tTVIul0Wg6HQ8PDw1q0aFHB6x44cEDhcFhbt25VPB6f9BphHQCrffvb39YXv/jFktr+xV/8he68804tWFB3/8QDAIA5bs+ePdqwYYPC4bCkwqvmpj6XCeja2to0MjKipqamkvs1DEN1dBIEkFexkE46uZruXe96lwnVAAAAoJi6XGLhcDgUi8W0du3aSQeCT3309/cXHZz19PRo+fLlamtrU39/v2Kx2LTrJJNJbd++3cRPCACvisVi087gzGf16tUKhUJauHBhlasCAAConO3bt2vVqlXq6OhQOBzOjsUyq+QkTXsu8+umpib5fL7sa3a7vayATjp5jtfY2Fg1PhpgqgsuuKBoG7a8BAAAqB11u8yitbVVoVBI4+PjGhoaUiKRUCqVUltbmxwOhzo7O0samNntdtntdhMqBoDyPfvss/rABz6gF198sWhbu92ue+65R2eccYYJlQEAAMzO0aNHFQwGtWHDhrxbWkrKGdZJJydver1e9fX1SZIGBwdnVU+5wR6Qz+HDh0tuu3Tp0or2vWjRIp133nl68skn87YhpAMAAHPFoUOHirYp596tGuo2pMtoamrKDspmYmBgoILVAEDlvPTSS1q7dq2eeuqpom0XL16sH/7whzrrrLNMqAwAAGDmDhw4IL/fr2AwKEklnTc38blyzpoDrFDKaraMamyzeuGFFxLSAQAASHXxs9K63O4SAOaCv/3bv9WDDz5YtN1pp52m733ve1q+fLkJVQEAAMzMzp07tWbNGrW1tSkYDE7bvjKzhaWknFta+v1+jY2NaWhoiIAOKKDYuXSPPPIIZzACAADUCEtCuuXLl+uWW27Rnj17rOgeAGrenXfemZ1dXszXv/51ve1tb6tyRQAAADOzZcsWLV++XN3d3YpGo3nPm5M07fw5p9OpSCSi0dFRrVu3ji0pgRIUC+lGR0f17LPPmlQNAAAACrEkpEskEvL7/ero6NDixYsJ7ABggkcffVRer7ektp/61KfU09NT5YoAAADKt379es2fP19er1eJRGJaOJf5taRpq+Z8Pp8SiYR27Nihrq4uiz8JUF/e/OY3F23DlpcAAAC1wdIz6dLptMbGxuT3++X3+2UYhrxer3p6enTRRRdZWRoAWOK5556T2+3W888/X7TtVVddpX/8x380oSoAAIDy+f1+SZPPlZOmn0GX+bXD4ZDX653VmeNALdi7d6+WLFliWf8rV67U/Pnzdfz48bxtHn74YXV3d5tYFQAAgPkOHjxYtM3hw4fLOlO40iwN6aZubTI1sOvt7ZXH4yGwAzBn/M3f/I1+/etfF213wQUX6M4779S8eRwtCgAAatPIyIgCgYA2b94s6dXx39RxoNvt1s0338w5c2gYS5Ys0dKlSy3r/7TTTtPy5cv1m9/8Jm+bhx9+2MSKAAAArGHlPVmpLPnpbl9fn5qamvIeFJ5ZYRcIBLJbYt54443auXOnFeUCgCm+/vWv62tf+1rRdk1NTfqv//ovLVq0qPpFAQAAzJDD4VAgENDY2JgGBgbU2to6bYtLwzBkt9vV3NxscbVAY3nrW99a8HVCOgAAgNpgSUgXCAQ0OjqqWCxWcmAXDAbV3d1NYAegISWTSf3N3/xNSW3/4z/+Q+eff36VKwIAAKiMzBlz+/bty54xlxnrpVIpDQ4Oqq2tTVdeeaXuvfdeq8sFGkKxkO7RRx/VSy+9ZFI1AAAAyMfSfdLa29snBXbr1q0jsAMw5xw7dkwf/vCH9ac//alo20984hO6+uqrTagKAACg8pxOpyKRiBKJxLTxXyQSkdPp1OLFi3Xbbbfp6NGjVpcL1K1iId2xY8f06KOPmlQNAAAA8qmZw4za29vl9/tnHNjNnz9f1157LYEdgLrj9/v14IMPFm138cUXa2BgwISKAAAAqqu1tTU7/tu0aZMcDsek1XU+n0/Nzc269tprtWfPHqvLBerORRddVLQN31sAAADWq5mQbqKpgZ3P55t0fkGuwC6dTisUCmUDu97eXm3fvt3qjwIABY2MjOhzn/tc0XbNzc3aunWrFi5cWP2iAAAATOTxeDQyMqJYLKa1a9dOG+N1dHRo+fLluuOOO6wuFagbZ599tpYsWVKwDefSAQAAWK8mQ7qJ2tvbNTAwoH379pUV2IXDYbndbgI7ADXr+eef11//9V/r2LFjRdt+/etf13nnnWdCVQAAANZob29XKBTS2NiYBgYGZBhGdnyXTCbl8Xg0f/583XTTTTpw4IDV5QI1zWazFd3ykpAOAADAejUf0k1EYAegkXz605/WY489VrSd1+vVVVddZUJFAAAA1mtqapLP59Po6KiGhobkdDonje8CgYDa2tq0atUq3X333VaXC9SsUkK6dDptUjUAAADIpa5CuokmBnaZQ8cJ7ADUi5///Of68pe/XLTd8uXLddttt1W/IAAAgBrkcrm0Y8cOJRIJ9fX1SVJ2bBePx+VyubRkyRKtX79+1n0dPXp01tcAakmxc+lGR0f11FNPmVMMAAAAcqrbkG6izKHjswnsrrzySm3fvp2BGYCqe+mll3T99dcXnbU6f/583XnnnTrzzDNNqgwAAKA2tba2KhAI6MSJE9q0aZPsdnt2XDc6OqrBwUFJyv66XMPDw2pubq502YCliq2kk9jyEgAAwGoNEdJNNDWwGxgYKCmwi0Qicrvdam5u1po1a7RlyxYCOwBV8cUvflF79+4t2u6zn/2sVq9ebUJFAAAA9cPj8Wjfvn2KRCJau3atJE0a68XjcS1evFi33XZbyWO6ZDJZzZIBS7zhDW/QKaecUrANIR0AAIC1Gi6km6i1tVU+ny9vYCcpO5CTXt02JRqNyuv1EtgBqLiHH35YGzZsKNru4osvrsi2TQAAAI2qq6tLoVBIY2NjWrdunZqamrJjurGxMfl8PjU3N+vKK6/UvffeW/BasVjMpKoB8yxcuFAXXHBBwTaEdAAAANZq6JBuoqmBnd/vl8PhmLSarlBg19LSYvEnAFDvjh8/ruuvv17Hjh0r2G7hwoX66le/qgULFphUGQAAQP1qamqS3+/X6OiohoaG5HA4JGnSrilOp1OLFy/WLbfcogMHDkx6/4EDBxQMBi2oHKi+YufS7dmzx5Q6AAAAkNucCekmam1t1bp16zQyMlJWYAcAs7Fp06aSZml/5jOfKTrjFQAAANO5XC6NjIwoFoupr69PkiatrvP7/Wpra9Py5cvV29urNWvWqK2tzeKqgeopdi7dvn379Nxzz5lUDQAAAKaypUmfsvbv369wOKytW7cqHo9LUvbsOpvNpuPHj1tcIVC+Q4cO6ayzzpr03MGDB7V06VKLKpqb/vCHP2jlypUaHx8v2O4tb3mLRkZGip4dAQAA5gbu5WZnfHxcgUBAAwMDSqVSk16bOCkz82vGfChXrX+P7ty5U11dXQXb/OxnP9Pb3vY2kyoCAACoLVbfz83JlXT55Fph197ebnVZABqAz+crGtDNnz9fX/3qVwnoAAAAKqSpqUk+n0+jo6PatGmT7Ha7pMkBXeZroBEVW0kncS4dAACAlQjp8pgY2H3pS1/SwMCA1SUBqFP333+/vvGNbxRt98lPflIdHR0mVAQAADD3eDwe7du3T0NDQ2ptbSWgw5ywePFinXPOOQXbcC4dAACAdQjpSvD3f//3WrdundVlAKhDr7zyim666aai7ZYtW6bPfvazJlQEAAAwt7lcLu3bt0+bNm1SU1OT1eUAVVdsNR0hHQAAgHUI6YrYv3+/1SUAqGP/9m//pkceeaRou6985Ss644wzTKgIAAAA0smVdclkUhdddJHVpQBVVSyke/jhhzmPEQAAwCKEdEWEw2GrSwBQpw4dOqTPfe5zRdtdddVVuuqqq6pfEAAAACYxDEPDw8MyDMPqUoCqaW9vL/j6Cy+8oN/85jcmVQMAAICJCOkK2LJli/r7+60uA0Cd+od/+AcdPXq0YJvTTjtN//Iv/2JSRQAAAJjKMAz19fVZXQZQNaWcex2LxUyoBAAAAFMtsLqASti5c6fi8bgSiYSSyaRGR0eVSqVmfL3Zvh8AHn30UW3atKlou0996lNqbW01oSIAAADks2rVKqXTaavLAKpi2bJlam5u1tjYWN428Xhc1113nYlVAQAAQKrjkO7AgQPq7+/PuR0lgysAVlu3bl3Rcx3OP/98rVu3zqSKAAAAkI/L5dKJEyesLgOoCpvNJofDoeHh4bxtWEkHAABgjbrc7nLjxo1qa2tTOBxWOp2e9pBO3oRW4gEA5YpEIvr+979ftN2XvvQlnXrqqSZUBAAAAGAuK7bl5e7du4tOMgQAAEDl1V1It379et18883ZQI5wDUAtOX78uD75yU8WbdfV1aX3ve99JlQEAAAAYK5zOBwFX3/uuef0xBNPmFQNAAAAMuoqpNu9e7f8fr8k5Q3jcq2sm8kDAGbim9/8pn71q18VbGOz2XTbbbcxoQAAADS0K664Qtdee63VZVTc+Pi4Fi9erO3bt1tdClCyYivpJLa8BAAAsEJdnUkXCASyX2dW0U0M1Ox2uwzDUEtLy6z6GR0dVTKZVCqVmtV1AMwtL730kj73uc8VbffRj35Ub33rW6tfEAAAgIV8Pp+uuOIKrVq1qqSdBupFV1eXUqmUnE6n1aUAJWtra1NTU5PGx8fztonH4/rQhz5kYlUAAACoq5AuGo1OWnmSTqfl8Xjk9XrV3t5e8f7C4bB6enoqfl0AjSkYDOrJJ58s2ObMM8/U5z//eZMqAgAAsI7T6VRfX598Pp/sdruuvvpqq0uatZ6eHu3evVuBQECLFi2yuhygZDabTe3t7frxj3+ctw0r6QAAAMxXV9tdJpNJSa+uouvv79emTZuqEtBJksvlUl9fX1WuDaCxPPfcc/rCF75QtN3NN9+ss88+24SKAAAArBcIBLRs2TK5XC7dfffdVpczKx/72Me0bds2uVwu3XDDDVaXA5St2JaX8XhcJ06cMKkaAAAASHUW0hmGkf3abrdrw4YNVe/T6/VWvQ8A9e8rX/mKDh48WLDN61//ev393/+9SRUBAADUhlAopHQ6LZfLpTvuuMPqcmakt7dXmzdvlt1u19atW60uB5iRYiHdH//4RyUSCZOqAQAAgFRnIZ3dbs+uonM4HKb02dbWNuncOwCYamxsTIODg0XbfeYzn9EZZ5xhQkUAAAC1w+FwaGhoKHtcwS233GJ1SSU7evSo1qxZo1AoJMMwFIlErC4JmLFSfo7ClpcAAADmqruQLmPVqlWm9NnU1KSxsTFT+gJQn2699ValUqmCbZYtW8a2SAAAYM5yuVxat26d0um0/H6/Vq9eXfQsX6tt375dra2tikajMgxDIyMjWrZsmdVlATO2fPlyvfa1ry3YhpAOAADAXHUV0vX09GS/PnLkiGn9NjU1mdYXgPpy+PBh/cu//EvRdv/wD/+ghQsXmlARAABAbfL7/err61M6nVYsFpPdbtctt9yio0ePWl3aJHv27NGaNWvkdrs1Njam1tZWxWIxtba2Wl0aMCvz5s1Te3t7wTbxeNykagAAACDVWUjncrmyXyeTSQsrAYCTvvzlL+u5554r2OaCCy7Qhz70IZMqAgAAqF2BQCC7ok46Gdw1Nzfrlltu0YEDByytbcuWLVq1apU6OjoUjUaVTqflcDgI6NBQip1LF4/HOfIDAADARHUV0knKDuii0ahpfS5fvty0vgDUj1QqpX/9138t2u4LX/iC5s+fb0JFAAAAtc/v92vTpk1Kp9PZh9/vV1tbm1atWqVbb71Ve/bsqXodBw4c0JYtW7RmzRrNnz9fXq83G1Ck02l5vV6NjIywswoaSrFz6VKpFJOiAQAATLTA6gLK5ff7FQ6HdeDAAd199926+uqrq9rf/v37uUEFkNNXvvKVotszdXZ26gMf+IA5BQEAANQJj8cjp9Mpt9ut3bt3S1J2G8yJ2+05HA51dnaqra1Ndrs9+1i0aFFJ/Rw9elTJZFKjo6NKJpOKxWIaGRmZtqXf1JVDwWCQ84TRkIqtpJOkXbt2qa2tzYRqAAAAUHchnSSFQiF1dnaqr69PTqez6MHHs8F+7AByOXr0qL785S8XbffZz35WNput+gUBAADUGbvdrlgspv7+fm3cuDF7zzQxMJsa2uViGMakX6dSqYLtpwZyNptNNpstu71lKBRie0s0rBUrVujMM88suGX/Qw89pGuvvdbEqgAAAOauutvuUjo5m3LTpk0aHR1VV1dXVQ8a7+/vr9q1AdSv22+/XWNjYwXbtLe3633ve59JFQEAANQnv9+vkZERLVu2TOl0OhuaTQztCj3GxsYmPYq1lzSpj3Q6raampmwdBHRoZPPnz1dnZ2fBNg899JBJ1QAAAKAuQzrp5PYoAwMDGhkZUWdnpx5++OFZX/Po0aM6evRo9myC5cuXs9UlgGmee+453XbbbUXbffrTn2YVHQAAQAkcDocSiYSGhobU3t6eDdQmhmmVfEivhn8ej0f79+/XunXrLP5dAMxx8cUXF3w9FovplVdeMakaAACAua0ut7vM8Pl8ikajikajRQ8/nomp26AAgCRt2bJFhw4dKtjmwgsv5Cw6AACAMrlcLrlcLkWjUfn9fg0PD2dfq8Tkp8wYzzAMrV+/Xh6PR01NTbO+LlBPVq9eXfD1F198UY888oja29tNqggAAGDuqtuVdJmVbsPDw9ktSir9YAUMgKmOHTumL33pS0XbfepTn9K8eXX7TywAAIClnE6nIpGIxsbGFAgE5HK51NTUNKvxXWtrq3w+n2KxmEZHR7Vu3ToCOsxJxUI6iS0vAQAAzFKXK+l6e3sVDoennScAoDSHDx8uue3SpUurWEn9CYfDevLJJwu2Wblypdxut0kVAQCAelVsZb5U3n1bI2pqalJfX5/6+vokSfv371c8HlcymdSRI0eUSqWUTCY1OjoqSWppaZFhGLLb7Vq8eHH2687OTgI54P8555xz9PrXv17PPvts3ja/+MUv5PV6TawKAABgbqq7kG7NmjWKRqOTVrqx6g0ozwUXXFByW7Z9fVU6ndbGjRuLtlu/fr3mz59vQkUAAKCenXXWWVaXUHdaW1vV2tpqdRlAXbPZbFq9erW++93v5m3DSjoAAABz1NVebMPDw4pEIpImn0cw9eDvSj0AYKIf//jHisfjBducc845+uAHP2hSRQAAAABQvosvvrjg63v37tUf//hHk6oBAACYu+pqJV0gEMh+nVk9lwnT7HZ79mEYxqz6yWyZEo1GZ3UdAI3l1ltvLdrm7/7u73TKKaeYUA0AAEBtW758udxut3p6enTRRRdZXQ6ACYqdS5dOpxWLxfSe97zHnIIAAADmqLoK6eLx+KQVdOl0Wj6fT16vtypbniSTSXV2dmp8fLzi1wZQX37961/rv//7vwu2WbRoUfa8FAAAgLkukUjI7/fL7/fLMAx5vV4CO6BGdHZ2Fm3zi1/8gpAOAACgyuoqpEsmk9nVczabTUNDQ1q7dm3V+rPb7br55pu1fv36qvUBWGHv3r1asmSJ1WXUldtuu61oG6/Xq0WLFplQDQAAaAQHDx4s2ubw4cNlnSdci9LptMbGxgjsgBpiGIZWrlypxx57LG8bzqUDAACoPlu6jg5fa2lp0fj4uNLptDo6OrRr166q95lMJrV8+XIdP3686n0B1XDo0CGdddZZk547ePCgli5dalFF9efgwYM699xz9fLLL+dts2DBAu3fv1/nnHOOiZUBAIBGV8/3cvPmzZu2E0pG5nnDMNTb2yuPx0Ngh7pUz9+j1113nb75zW/mff2cc87R7373OxMrAgAAMJ/V93PzTOmlQux2e3YVndPpNLVPAHNXMBgsGNBJ0gc/+EECOgAAgAn6+vrU1NSkdDqdHcdlHpnnxsbGFAgE1NHRocWLF+vGG2/Uzp07rS4dmBMuvvjigq8/9dRTeuaZZ0yqBgAAYG6qq5DOrGBuqhMnTljSLwDrvfLKK9q0aVPRdp/85CdNqAYAAKB+BAIBjY6OKhaLlRzYBYNBdXd3E9gBJli9enXRNmx5CQAAUF11FdJ5vd7s18lk0sJKAMwV//Vf/6Wnn366YJvu7m695S1vMakiAACA+tLe3j4psFu3bh2BHVAD3vKWt2jhwoUF2/ziF78wqRoAAIC5qa5CutbWVvX19SmdTisajVpdDoA54N/+7d+Ktvnbv/1bEyoBAACof+3t7fL7/TMO7ObPn69rr72WwA6ogFNPPbXoWZA///nPzSkGAABgjqqrkE6SBgcH1dTUpFQqpYcfftiUPletWmVKPwBqyy9/+Uvdd999Bdu0trbqve99r0kVAQAANI6pgZ3P51Nra2vBwC6dTisUCmUDu97eXm3fvt3qjwLUrWLn0j300EN65ZVXTKoGAABg7qm7kK6pqUl+v1/pdFr9/f1V7298fFzxeLzq/QCoPf/3//7fom1uuukmzZ8/34RqAAAAGld7e7sGBga0b9++sgK7cDgst9tNYAfM0Nvf/vaCrz///PP65S9/aVI1AAAAc0/dhXSS5PF41NXVpUgkUvXVdCMjI1W9PoDaNDY2pjvvvLNgm9NPP10f/ehHTaoIAABgbiCwA8zzjne8o2ibBx54wIRKAAAA5qa6DOkkKRQKadGiRerq6tIf//jHqvXj9/urdm0AtetrX/uann/++YJtPvShD6mlpcWkigAAAOaeiYFdIpHQunXrCOyACjr33HP1P/7H/yjY5sEHHzSpGgAAgLnHlk6n01YXMVPDw8Pq7u5WS0uLNm/erKampopdO5lMKhQKKRKJyGaz6fjx4xW7NmCmQ4cO6ayzzpr03MGDB7V06VKLKqp96XRab3zjG/XYY48VbLd79+6iB60DAADMBvdyue3fv1+bNm3Stm3blEwmJUk2my37+sRh7sTnu7u75fF45HQ6tWjRIvMKRsNqhO/Rnp4ehUKhvK+fe+65+u1vf2tiRQAAAOax+n6urkK6lpYWjY+PT3s+M4OyGjLXJqRDvbL6H5l6dP/99+vSSy8t2Oad73yn7r//fpMqAgAAcxX3csXt379foVBIwWCwrMDO6XTK7Xarp6eHwA4z1gjfo1/+8pf1iU98omCb3/72tzr33HNNqggAAMA8Vt/P1dV2l263e9IWJpnB1tStTSr1ADA3bd68uWibj3/84yZUAgAAgGJaW1vl8/myW2IODAxM2hJTUnZLTEnZ56PRqLxer5qbm7VmzRpt2bJFR48etfKjAJa45JJLirb52c9+ZkIlAAAAc09dhXQ9PT2SNO3cganPVeoBYO4ZGxsruNWLJC1dulTXXHONSRUBAACgVFMDO7/fL4fDMWkyZqHAjvOGMRdddNFFOu200wq2eeCBB0yqBgAAYG6pq5Cuq6tLhmFkf13NbS4BzE3f+ta39OKLLxZs85GPfEQLFy40qSIAAADMRGtrq9atW6eRkZGyAjtgrlm4cKFWr15dsM2DDz5oUjUAAABzS12FdNKrW15K1dvmksEZMDel0+mStrq84YYbTKgGAAAAlVIssAPmumJbXu7evVvPPfecSdUAAADMHQusLqBcH/vYx7I/RE+n0/J4POro6FBLS8ukVXYzlUqlNDo6qkQioWAwqFQqNetrAqgPu3bt0i9/+cuCbS699FKtXLnSpIoAAABQaZnAbt26ddq/f79CoZCGhoYUj8etLg2wTLGQ7vjx4xoZGdG73/1ukyoCAACYG+oupGtvb5dhGBofH1csFlN7e3vV+hoYGFBbW5sOHDhQtT4A1I5SVtH19fWZUAkAAACq7cCBA7LZbPL5fPL5fEqlUiXdDwKN6O1vf3vRNg8++CAhHQAAQIXVXUgnnTybbufOnVUN6DL8fr96e3ur3g8Aa/3pT3/SXXfdVbCNYRhau3atSRUBAACgmjZt2qSNGzcqHA7r6quvlmEYWrdundVloQEcPny45LZLly6tYiWlW7JkiVasWKHHH388bxvOpQMAAPXm0KFDRduUc+9WDXUZ0vX29mr79u2m9NXR0WFKPwCsdffdd+tPf/pTwTYf/vCHdfrpp5tUEQAAwNzV0tKiefPmKZlMatGiRVXpY2BgQIlEQi6XS8FgUNdff31V+sHcc8EFF5TctpbORHzHO95RNKQ7ceKE5s2bZ2JVAAAAM3fWWWdZXUJRdXln1d3dra6uLh09erTqfbW2ttbUTTOA6vjGN75RtA1bXQIAAJgjlUppbGys6v2EQiEtWrRIHo9H9957b9X7A2pZsXPpRkdH9eijj5pUDQAAwNxQlyFdU1OTduzYUbUZlVOdOHHClH4AWOOpp57S8PBwwTarV6/Wm9/8ZpMqAgAAgFm8Xq/S6bTcbrfVpQCWKhbSSdJPfvITEyoBAACYO+oypAOASvrWt75VdMXsRz7yEZOqAQAAgJkWL14sSRobG9Mdd9xhcTWAdd7whjdkvx/yIaQDAACorLo8kw4AKiWdTuvrX/96wTannHKKent7TaoIAAAAZopEItmvh4aGOJsOs7Z3714tWbLE6jLKNm/ePF166aW6++6787b5yU9+onQ6LZvNZmJlAAAAM3Pw4MGibQ4fPlzWmcKVRkgHYE6LxWJFz1W46qqris4oBQAAQP3ZvHmzotGobDab0um0RkZGrC4JDWDJkiVaunSp1WXMSLGQ7plnnlEikdD5559vYlUAAAAzUw/3ZJaEdFdccYVaWlp01113WdF91YyPj8tut2vz5s265pprrC4HQAm+8Y1vFG1z3XXXmVAJAADA3LFnz56S2g0PD6u1tbVi/Y6OjiqVSmnXrl0Kh8NKJpOTXk+lUhXrC6hHl156adE2P/nJTwjpAAAAKsSSkM7n8+mKK67QqlWr9MlPftKKEqqiq6tLqVRKTqfT6lIAlODll1/Wf/7nfxZss3jxYr33ve81qSIAAIDGt3v3bnV1dWl8fLxgu3Q6LZfLVbU6MmcST9y2zzCMqvUH1IO3vvWtWrRokY4ePZq3zU9+8hN99KMfNbEqAACAxjXPik6dTqf6+vrk8/kKbqNQT3p6erR7924FAgEtWrTI6nIAlOCHP/yhDh8+XLDNBz/4QS1cuNCkigAAABpfe3u7ksmkLr/88mxQlk6nJz0ypj5fyYfNZssGdJlfM+ESc938+fP1zne+s2Cbn/zkJyZVAwAA0PgsCekkKRAIaNmyZXK5XHUf1H3sYx/Ttm3b5HK5dMMNN1hdDoASffvb3y7ahq0uAQAAKs8wDEUiEQ0MDEwKzCYGZ5KmPV/JRy5+v9+s3wKgZhXb8nL//v363e9+Z1I1AAAAjc2ykE6SQqFQdguTO+64w8pSZqy3t1ebN2+W3W7X1q1brS4HQImee+453XPPPQXbvPGNb1RHR4dJFQEAAMw9Pp9PIyMjk3YjmbiSzgyZ/oaGhrRs2TJT+wZqUann0gEAAGD2LA3pHA6HhoaGlE6n5fF4dMstt1hZTlmOHj2qNWvWKBQKZWeBAqgf99xzj55//vmCba677rq8s6wBAABQGQ6HQ/v379dFF12UXVWXUc3tLtPptJqamuTxeDQ2Nqa1a9da+LsA1I6Ojg6dccYZBdsQ0gEAAFTGAqsLcLlcWrdunTZu3Ci/369oNKpQKKTzzjvP6tLy2r59u/r6+pRKpWQYhkZGRphxCdSZu+66q2iba6+91oRKAAAAYBiGYrGYuru7NTw8LOnkVpcDAwOy2+1V6a+zs1NNTU0VvzZQ7xYuXKi3v/3t2e/FXAjpAAAAKsPykE46ue9/KpXS5s2bFYvFZLfb1d/fr5tvvnnStidW27Nnj/r7+xWNRpVOp2W32xWJRNTa2mp1aQDKkEql9IMf/KBgm7e97W2E7wAAACaLRCKTgjqv11tTY0Jgrrj00ksLhnS/+c1v9Ic//EGve93rTKwKAACg8Vi63eVEgUBA69aty54H4Pf71dzcrFtuuUUHDhywtLYtW7Zo1apV6ujoyAZ0DodDsViMgA6oQ9/5znf08ssvF2zDKjoAAABrMBESsN673/3uom1YTQcAADB7NRPSSSeDuU2bNk06I8Dv96utrU2rVq3Srbfeqj179lS9jgMHDmjLli1as2aN5s+fL6/Xq3g8nq3J6/VqZGSErVGAOlVsq0ubzSa3221SNQAAAJgqFAplJ3ACMN/q1au1cOHCgm3uvfdek6oBAABoXDWx3eVEHo9HTqdTbrdbu3fvlnTysPBYLKZ4PJ5t53A41NnZqba2Ntnt9uyj1K1Qjh49qmQyqdHRUSWTScViMY2MjEzqI9P3RMFgUDfccMMsPyUAqxw6dEjRaLRgm3e/+936sz/7M5MqAgAAwFQOh0MnTpywugxgzjr99NO1evVq/fSnP83bZufOnSZWBAAA0JhqLqSTJLvdrlgspv7+fm3cuFE2m03S5MBsamiXi2EYk36dSqUKtp8ayNlsNtlstuz2lqFQiG1XgDoXDod1/Pjxgm3Y6hIAAGDuOXDgAGcSAxNcdtllBUO6xx57TE8//bT+x//4HyZWBQAA0FhqarvLqfx+v0ZGRrRs2TKl0+lsaDYxtCv0GBsbm/Qo1l7SpD7S6bSampqydRDQAfWv2FaX8+fP19q1a02qBgAAALVgfHxcbW1tVpcB1JSurq6ibYaHh02oBAAAoHHVdEgnndzmJJFIaGhoSO3t7dlAbWKYVsmH9Gr45/F4tH//fq1bt87i3wUAlfDss8/q/vvvL9imu7tbS5YsMakiAAAA1IKRkRGrSwBqztve9jadfvrpBdsQ0gEAAMxOzYd0GS6XSyMjI9qxY4e6urqmrYCbrcy1MivnxsbGtGnTJjU1NVXk+gCs91//9V9F/81gq0sAAIC5p7+/3+oSgJpz6qmn6p3vfGfBNsPDwxX7uQwAAMBcVJNn0hXidDrldDo1Pj6uoaEhRSIRRaPRoufNFWK32+VyudTb26v29vbKFQugpmzfvr3g66eccor+6q/+yqRqAAAAMFNHjx6d1ftHR0eVSqWUTCYVCAQUj8ezO6sAeFVXV5cikUje159++mk98cQTWrFihYlVAQAANI66C+kympqa1NfXp76+PknS/v37FY/HlUwmdeTIkeyAa3R0VJLU0tIiwzBkt9u1ePHi7NednZ2slgPmgLGxMe3cubNgG6fTKcMwzCkIAAAAJTl69KiCwaAikYhGRkZmNUETQHlKPZeOkA4AAGBm6jakm6q1tVWtra1WlwGgRn3ve9/TsWPHCra55pprTKoGAAAApbjxxhsVDAazv67GtnqsoAPya29vl2EYBcPx4eFh3XjjjeYVBQAA0EDq5kw6AJiNYltdzps3j60uAQAAasT4+LiWL1+uYDA46Txym81W8QeA/ObPn6/3vOc9Bdvce++9OnHihDkFAQAANBhLQrrly5frlltu0Z49e6zoHsAc89xzz+mHP/xhwTaXXnqpli5dalJFAAAAKMTtdiuRSEwL5gCYr9iWl6Ojo/x8BwAAYIYsCekSiYT8fr86Ojq0ePFiAjsAVfXDH/5QL774YsE2bHUJAABQG7Zt26ZoNJoN5iZucTlxVV0lHgCKK+VcumLnfwMAACA3S8+kS6fTGhsbk9/vl9/vl2EY8nq96unp0UUXXWRlaQAaSLGtLiXpAx/4QPULAQAAQFFbt27Nfp1ZSZcJ1JxOp+x2uwzD0OLFi2UYRtnXz5ytlUgkFI1GlUwmK1E20LDe8IY36Oyzz9bvf//7vG2Gh4f1f/7P/zGxKgAAgMZgaUiX2a4kM+CaGtj19vbK4/EQ2AGYsZdeeknf+973CrZZvXq1zj33XJMqAgAAQCGZVXQZ6XRaHo9Hfr9fTU1NVenviiuuqPh1gUZhs9l0+eWX61vf+lbeNvfdd59efPFFnXbaaSZWBgAAUP8s2e6yr69PTU1NOQ//zjw3NjamQCCQ3RLzxhtvZPsEAGXbuXOnjh49WrANW10CAADUjsxKt8xY0ev1atOmTVUJ6KSTq/MGBgaqcm2gURTb8vKFF17QT3/6U5OqAQAAaByWhHSBQECjo6OKxWIlB3bBYFDd3d0EdgDK8t3vfrdom6uvvtqESgAAAFCKqVtY3n777VXv0+l0Vr0PoJ51d3cXbfPDH/7QhEoAAAAaiyUhXUZ7e/ukwG7dunUEdgAqJp1OF93q8sILL9SKFStMqggAAADF2O327HjQ4XCY0qfD4VBfX58pfQH16JxzztGb3vSmgm1+9KMfmVQNAABA47A0pJuovb1dfr9/xoHd/Pnzde211xLYAch6+OGH9dRTTxVs81d/9VcmVQMAAIBS9PT0ZL9uaWkxrd9NmzaZ1hdQj9asWVPw9UceeaTo+AsAAACT1UxIN9HUwM7n86m1tbVgYJdOpxUKhbKBXW9vr7Zv3271RwFgoXvuuadom6uuusqESgAAAFAqr9eb/Xp0dNTCSgBMdOWVVxZts2PHDhMqAQAAaBw1GdJN1N7eroGBAe3bt6+swC4cDsvtdhPYAXNYsa0uzzrrLK1atcqkagAAAFCKpqYmrVu3Tul0WvF4XEePHjWl3z179pjSD1Cv3vWud+n0008v2IZz6QAAAMpT8yHdRAR2AEr17LPP6qGHHirY5n3ve5/mzaurfwYBAADmBL/fr/b2dknSzTffXPX+xsfH1dHRUfV+gHp22mmn6T3veU/BNtFoVMePHzenIAAAgAZQtz+dnhjYJRIJrVu3jsAOQNb3v//9om3Y6hIAAKB2hUIhpdNpBQIB3XvvvVXta2RkpKrXBxpFsXPpxsbGtGvXLpOqAQAAqH91G9JN1NraKr/fP6vA7sorr9T27dtN20oFQHUV2+py4cKF6u7uNqkaAAAAlMtut2vHjh1Kp9Nyu9168sknq9ZXKBSq2rWBRlLKuXRseQkAAFC6hgjpJpoa2A0MDJQU2EUiEbndbjU3N2vNmjXasmULgR1Qp1588cWiB5Zfdtlles1rXmNSRQAAAJgJp9OpUCik0dFRdXd3649//GPF+9iyZYuCwWDFrws0ohUrVui8884r2OZHP/qRSdUAAADUvwVWF1BNra2t8vl88vl82r9/v0KhkILBoJLJZLaNzWbLfp1OpyWd3EM9Go3K6/XK6XTK7Xarp6dHixYtMv0zACjfj3/8Yz3//PMF2/zlX/6lSdUAAACgHL29vdOeMwxD+/bt07Jly9TS0lKRfkZHR5VKpSpyLWCusNlsuvLKKxUIBPK2eeihhzQ6Olqx71UAAIBGZktnkqk5ZP/+/QqHw9q6davi8Xj2+VyBXeY5m82mY8eOmVsoUAGHDh3SWWedNem5gwcPaunSpRZVVH0f//jH9e///u8F2xw4cKDoDFAAAACrzcV7uSuuuELDw8PTnq/20NVms+n48eNV7QONZy5+j95999265pprCrb59re/rf/5P/+nSRUBAADMnNX3cw233WUpWltbtW7dOo2MjCiRSMjv98vhcEza/jKzJaak7HMAal86ndZ///d/F2zz5je/mYAOAACgRrlcruz4K9cYrRoPAKW7/PLLtWBB4Y2Zip0RDgAAgJPmZEg3UbHADkB9efzxx3XgwIGCbdjqEgAAoHZN3O6SIA2oPU1NTbrkkksKtvnBD37AbkQAAAAlmPMh3US5Arv29narywJQhh/+8IdF27zvfe8zoRIAAADMRFNTk5xO57RJkxNX1VXqAWBmrrrqqoKvj42N6YEHHjCpGgAAgPpVeH+COWz//v1qbm7WyMiIUqmUNm/ebHVJAErwox/9qODrhmHo4osvNqkaAAAAzITX61U0GpX06ll0DodDLS0tFetjdHRUyWRSqVSqYtcE5oq//Mu/1Lp16wq2+d73vqd3v/vdJlUEAABQnwjp8ojFYhoYGNANN9wgwzCK3nwCsN6LL76oH//4xwXbdHd3Fz0/AQAAANZyOp3Zr/v7+7Vhw4aq9RUMBvWxj32satcHGtHKlSt1/vnna9++fXnb3HPPPdq4caOJVQEAANQftrvM48iRI0qlUrr33nutLgVAie6//3698MILBdusWbPGpGoAAAAwU01NTerq6pKkqgZ0kuTxeJiUCZTJZrMV3fLyscce0xNPPGFSRQAAAPWJkC6PeDwuSQoEAhZXAqBUpZxHR0gHAABQH9xutwzDMKWv3t5eU/oBGslf/uVfFm3zve99z4RKAAAA6pfpe74dPXrU7C5LMjo6KklKJpMKhULZ8w9CoZDuuusuK0sDUKJi59G96U1v0jnnnGNSNQAAAJiN7u5u3Xzzzab05XA41N7ebkpfQKN417vepaamJo2Pj+dtc8899+gTn/iEiVUBAADUF9NDuhtuuEHbtm0zu9tZufvuu3X11VdbXQaAAn73u9/p17/+dcE2V155pUnVAAAAYLZaW1uzkynNMDIyYlpfQCM45ZRTdOWVV2rr1q1529x///1KpVKmrYoFAACoN6Zvd9nT06N0Ol3zD5vNlq1506ZNZv82ASjTjh07irZhq0sAAAAAqJxiW14eO3as6I4nAAAAc5npIV13d7ekk4cM1/IjE9Sl02lFo9Ga3aYTwEnFzqM7/fTT9a53vcukagAAAFArrrjiCl155ZW69957rS4FaDjvfe97NW9e4R8tffe73zWpGgAAgPpjekjX1NQkp9OpdDotSdn/lmviqrdKm7qSTjp5Nh2A2nTs2LHsOZL5vOc979Fpp51mUkUAAAColj179ujWW2/VjTfeqFWrVhWdUDkwMKAnnnhCTqdTq1ev1sMPP2xSpUDjW7x4sd7xjncUbPO9731PL7/8skkVAQAA1BfTQzpJcrvd2a8zq9XKfUx8v6QZXSPfdSfWlLk2W14CtWvXrl1KpVIF23AeHQAAQP06cOCAbrzxRs2fP18dHR3q7+9XIBBQPB4v+l6Hw6FEIqEbbrhBIyMjcjgcuvbaa02oGpgbim15efToUQ0PD5tUDQAAQH1ZYEWnPT098nq9kk4GYE6nUw6HQ4sXLy7pMOFYLKZgMJgN0+x2u5xOp9ra2mZ1GHEqlVIgEFAymVRzc7PWr1+vpqamGV8PqFWHDx8uue3SpUurWElllDLgI6QDAAC15tChQ0XblHPf1qg2btyom2++WdLMd2KRpEAgoO7ubvX09CgUCikejysSiei8886rVKnAnPSBD3xA/f39Bdts375d733ve02qCAAAoH7Y0tXYL7IEnZ2d2r17t3w+nzZs2FDWe88//3wlk0lJJwdafX19Fa3N6/Vq8+bNuuKKK4qecwXUukOHDumss86a8fst+ieiLJdddpl+/OMf5339vPPO0/79+6dtYwsAAGClmd6bHDx4sC4mUlVCb2+vwuHwpF1PMjLHFIyNjWnRokUlXzMajeqKK66QJLW0tCgWixHUYcZyjbfm0vdoxpvf/GY98sgjeV9fsmSJnn32Wc2fP9/EqgAAAIqz+n7Oku0uJamrq0vSyUFXOW688cbsSrdEIlHxgE46GfytXbtWkUhEq1evrvj1AVTO888/rwcffLBgG6fTSUAHAABQZ3p7exUKhbJh3NRjCWbK6XRmjzMYHR1VR0dH0XPtABR2zTXXFHz98OHD+ulPf2pSNQAAAPXDspCuu7tbksrannL//v0KBAKy2WwaHh5Wa2trlaqTtmzZonQ6rVgspttuu61q/QCYnQcffLDoIeSZSQEAAACoD8PDwwqFQpPCOUnZX8+Wx+OR3W6XzWbT6Oioenp6Zn1NYC4rFtJJJ7e8BAAAwGSWhXROp7Ps894CgYCkkwOqiy66qApVvaqpqUlOp1PpdFo+n4+ZlUCNKuU8ussuu8yESgAAAFApmTPMMyauoqvEajpJGhgYyF4nEono7rvvnvU1gbnqLW95i+x2e8E227dvr4vjFAAAAMxkWUgnndxaZNmyZSW3D4fDstlsRQ8krhSHw5H9OhQKmdInYIa9e/fq4MGDJT1qXbGQ7k1vepNe//rXm1QNAABA6Uq5F9u7d6/VZZpueHhYyWQyu2IuE8o5nU4FAgElEgmdOHFi1v24XC5JrwaAZo0zgUZks9mKrqZ76qmnNDIyYlJFAAAA9WGB1QWUY3R0VJLKCvZmY/Hixdmvh4aGdP3115vSL1BtS5YsaYiDzFOplGKxWME2bHUJAABqVSPcj1XDxAmS6XRaLpdLmzdvLnsnllI4HA7t3r1bkpRIJLRz505dfvnlFe8HmAuuueYa3XrrrQXbbNu2TatWrTKpIgAAgNpn6Uq6cqVSqbLOsJutRCIh6eTAMJlMmtYvgNLcd999RWdRE9IBAADUl4krbbxer4aGhqoS0EmS3W6ftP1eJBKpSj/AXHDxxRfr7LPPLthm27ZtbHkJAAAwQV2FdHa7XalUyrT+RkZGslusENIBtafYVpfz5s3TpZdealI1AAAAqITM2MswDN1+++1V7aulpUXSq1teRqPRqvYHNLJ58+bp6quvLthm3759+uUvf2lSRQAAALWv7kI6Sbr33nur3tf+/fsVj8er3g+AmSsW0nV2dpq6+hYAAACzl0qlZLPZ5HQ6q97X1POxmJwJzE6xc+kk6a677jKhEgAAgPpQVyGdw+FQOp2W3++vel9er3fSrzMBIYDa8Oyzz2rv3r0F27DVJQAAQP3JTLIyYwyWTCazu6dIMnXnFqARXXrppVq8eHHBNnfddRdbXgIAAPw/dRXSZYKzSCSi2267rWr9rF+/XtFoNLvlic1mI6QDaszOnTuLtrn88stNqAQAAACVlNmCsq2trar9DA8PE8oBFXbKKado7dq1BdscOHBADz30kEkVAQAA1La6CulaW1vV1dWldDotn89XlaDuxhtv1ODg4KTZlJLkdrsr3heAmSsW0p166ql6xzveYVI1AAAAqBSn06l0Oq1YLFbVfnLt0MLkTGD2rr322qJt2PISAADgpLoK6SQpEAhkv/b5fLryyiv15JNPzvq627dv1/LlyxUMBnNuu9DT0zPrPgBUzn333Vfw9UsuuUSnn366SdUAAACgUrq7uyVNPy+ukjZv3pzdPUUSO6gAFXTppZfq9a9/fcE2W7du1fHjx02qCAAAoHbVXUhnt9s1MDCQDdIikYjsdruuvPJKbd++XUePHi35WgcOHND69eu1fPlyud1uJRKJ7OBMenWg5vF4tGjRoqp8HgDle+aZZ7Rv376CbdjqEgAAoD6tXbtWhmEoHo9XZELmVNu2bZPX680ebzBRJiAEMHPz588vOtH597//vX7605+aVBEAAEDtWmB1ATPh8/m0a9cubdu2LTuwikQiikQikk4eNN7Z2Sm73S7DMLR48WIdOXJEqVRKo6OjSiaTisfj2etlBmZTt7jMXCvXNigArPOTn/ykaJv3vOc91S8EAAAAVdHX16eNGzfK7XZX9Oyq9evXa3BwMO/rLperYn1h7jp8+HDJbZcuXVrFSqzT29urr3zlKwXbbN26Ve9+97tNqggAAMxFhw4dKtqmnHu3arClc+3tWCfcbnc2qJM0aRZkrsAtY+pHntg2s3ou899IJMKKHNS1Q4cO6ayzzpr03MGDB+t6MHjTTTfp9ttvz/v6qaeeqvHxcZ166qkmVgUAAFB5jXgvV4rx8XG1trZqfHxc3d3dCoVCeu1rXzupzbx582Sz2TQ2NlZ055OdO3fK6/UqmUxOG/Nl/ut0OvWjH/2omh8LDSjX92g56vhHMgWdOHFCra2t+u1vf5u3zZIlS/T73/9eCxbU5fxxAABQBwrlRIWYOeaqu+0uJwqFQpO2vrTZbNlHOp3O+5jaVpq8mi7z9Y4dOwjogBpUbCXd2972NgI6AACAOtbU1KShoaHsrimGYei2227TgQMHSr7Gzp07deONN2rx4sXq7u6edLxBrmBk4vnnAGZn3rx56u3tLdjm8OHDGh4eNqkiAACA2lTXIZ10cuvLffv26aKLLsobwuV6TGybaS+dDOscDocSiYS6uros+UwA8jt8+LB+/etfF2zDlikAAAD1z+l0TpqU6fP51NbWpuXLl0/64f+GDRu0fv16rV+/Xr29vVq1apXmz5+v7u5uBYNBjY2NZcO5iQHdxFm1mzZt0rJly0z9fECju/baa4u2ufPOO02oBAAAoHbV9XaXU+3evVv/9E//pG3btmWfK7acceLHt9vt6u/vV19fX9VqBMzWaFsk3X333brmmmsKtolGo4TsAACgITTavdxMhMNh9fT0TAvY8p0tXsrxBhPbBQIBxoCYMba7zC+dTmvlypV64okn8rY544wz9Oyzz07bzhYAAKAS6mG7y4ba+Lu9vV2hUEjj4+OKRqOKRCKKRqNKJpN53+NwOOR0OtXd3c0P9YE6UGyrywULFuhtb3ubSdUAAACg2lwul0ZGRuR2u7V///7sQDvX2eQZ+QbjE99jt9sVCAQYB6Li9u7dqyVLllhdhuVsNpuuvfZaff7zn8/b5vnnn9f27dv1kY98xMTKAADAXHHw4MGibQ4fPqwLLrjAhGpya6iVdIWMj49rdHRUqVRKhmGopaVFTU1NVpcFVF2jzb52OBzavXt33tff9ra36Wc/+5mJFQEAAFRPo93LzVY4HNbNN988aSJmKbNjJw57DcOQx+PRwMBAVWrE3ML3aGGPP/64Vq5cWbDN5Zdfztl0AADAMlbfzzXUSrpCmpqaCOWAOjc+Pq49e/YUbMN5dAAAAI3L5XLJ5XJp9+7dikaj2rp1q+LxeNH3ORwOdXZ2yu12s3IOMNGKFSv09re/veBEynvvvVe//e1v9ed//ucmVgYAAFAb5kxIB6D+PfDAA0XPbLj00ktNqgYAAABWaW9vV3t7u9atWyfp1Z1TksnkpN1TDMNQa2urxdUCc9t1111XMKRLp9O68847dcstt5hYFQAAQG2YZ3UBVrriiit05ZVX6t5777W6FAAluO+++wq+Pm/ePL3jHe8wqRoAAABU24EDB3T06NGi7ZqamtTa2qquri6tXbtWXV1dam9vJ6ADakBPT48WLlxYsM03vvGNohMyAQAAGlFDhXR79uzRrbfeqhtvvFGrVq0qOpgbGBjQE088IafTqdWrV+vhhx82qVIAM/GTn/yk4OsXXXQR29oCAAA0gBtvvFHz589XW1ubmpubde2111pdEoAZamlp0VVXXVWwzWOPPaZdu3aZVBEAAEDtqPuQ7sCBA9kBXEdHh/r7+xUIBEo+lyCRSOiGG27QyMiIHA4Hgz+gRj333HMaGRkp2IatLgEAAOrfzTffrEAgoHQ6nX2EQiFt2bLF6tIAzNBHPvKRom2+/vWvm1AJAABAbanrkG7jxo1qa2tTMBicNIArVyAQ0NDQUHbwt2LFCj355JNVqBjATO3atUvHjh0r2IaQDgAAoP6Fw2FJks1mk81myz6fSCSsKgnALF155ZVasmRJwTbf/va39cILL5hUEQAAQG2o25Cut7dXN998czaYywzgJg7iyuFyubRjxw6l02nt27dPHR0dBHVADXnwwQeLtnnXu95lQiUAAACopmQyKZvNNm0CZnd3t0UVAZitU045RR/84AcLtkmlUtq+fbtJFQEAANSGugzpent7FQqFJoVzM11FN5HT6dSmTZskSaOjo+ro6CjpkHIA1VcspFu5cmXRmZkAAACofXa7XZKy4zybzSaXy6XLL7/c4soAzMZ1111XtM3mzZtNqAQAAKB21F1INzw8rFAoNCmck6ZvhTJTHo9HdrtdNptNo6Oj6unpmfU1AczOiRMn9LOf/axgm0suucSkagAAAFBNXV1dkyZg2u12bd26ter97tmzp+p9AHOZw+HQW97yloJt7rvvPj3++OMmVQQAAGC9ugvpvF7vpF9PXEVXidV0kjQwMJC9TiQS0d133z3rawKYuccee0yjo6MF27zjHe8wqRoAAABU0+DgYPZrm80mv99vSr8dHR2m9APMVTabTX19fUXbbdmyxYRqAAAAakNdhXTDw8PZ8wkkZUM5p9OpQCCgRCKhEydOzLofl8sl6dUAsL+/f9bXBDBzpZxHx0o6AACAxtDU1KShoaHsxMn9+/dXvc/9+/dXZMIngMI+9KEP6bTTTivY5mtf+5pefvllkyoCAACwVl2FdKFQKPt1Op2Wy+XS2NiYduzYob6+PrW2tlasL4fDkf06kUho586dFbs2gPIUC+mam5u1cuVKk6oBAABAtblcrmxQt2HDBj355JNV7S8ej1fk+AQAhTU3N8vtdhdsc+jQIX33u981qSIAAABr1VVINzIykv3a6/VqaGhITU1NVenLbrdPmkkZiUSq0g+A4oqFdG9/+9s1b15d/XMGAACAIlwul3bs2KHR0VF1d3frj3/8Y9X62rBhQ9WuDWCyUra83Lx5swmVAAAAWK+ufqqdTCYlSYZh6Pbbb69qXy0tLZJe3fIyGo1WtT8AuR05ckS/+c1vCrZhq0sAAIDG5HQ6lUgktGjRIhmGoTvuuKPifaxfv17xeLzi1wWQ2zvf+U694Q1vKNgmEomYstUtAACA1RZYXUA5UqmUbDabnE5n1fuauGpPejUgBGCun//850XbvOMd7zChEgAAAJjhxhtvnPac3W5XPB6Xx+ORz+fT/9/evce5ddZ3Hv/KlzghJXM8dq4EsDV2ICYhtsbmDi0ZDcnSLTSJ5MmWVwIbYgmnXNNG48mWlFvX1iSULeFVrHFCy2UBW3LCFuhCJNvdBuiSjBQDcSAk0ji0JN3YHskOudqZs3+4UkYzul/OOZI+79dLL0tHj57zO+M5kn7ze87zeL3ewsDKRkxPTyuTySiTySiXyzURLYB6uVwuXX/99frzP//zsm1M09T27dsVDoctjAwAAMB6HVWkMwxDR48eldvtbvu+MplM0ZoEJG6APapNdblw4UJt2LDBomgAAADQbkeOHNHu3bvnbc/PcpLNZhWLxZrez+zlDQBY69prr9XY2JiOHz9ets0dd9yhT33qUzrttNMsjAwAAMBaHTXdZX6k5MDAQFv3s2fPHopygENUK9KtXbtWp59+ukXRAAAAoN0CgUChgGaaZtHN5XIVinXN3iQV+gNgrTPPPFNXXnllxTbT09P61re+ZVFEAAAA9uioIp3X65Vpmkomk23dT6npFKy4eg9AsePHj+u+++6r2Ib16AAAALqL1+st5F/5Ilq+kDa3uNbsDYB9brjhhqptbr/9dq56BQAAXa2jinTDw8OS5q8X10o7duxQIpEoSgJdLhdFOsAGP/vZz/TMM89UbEORDgAAoPvMvZpO4qo3oNu8/e1v18UXX1yxzf79+/Uv//IvFkUEAABgvY4q0l111VUyDEOpVEqPPfZYy/vfvXu3gsFgYfqU2fIFQgDWqTbVpUSRDgAAoBsFg8HC/VZNb1lt6ksA1nK5XPrwhz9ctd3tt99uQTQAAAD26KginSRt2rRJpmnK7/e3tN+xsTFt3Lix7PM+n6+l+wNQ3U9/+tOKz59//vl61ateZVE0AAAAsEpfX588Hk+hgBYOh5VOpzUzM9PS2+TkpIaGhmw+WqB3ve9975NhGBXbxGIxPfHEE9YEBAAAYLGOK9LdfPPNMgxDyWRSl19+uZ566qmm+tu7d69Wr16t8fHxwtSWc//1er1asWJFaw4AQM2qFene/OY3WxQJAAAArBYIBAr/3nTTTVq5cmXL9+HxeBSPx9vSN4DqTj/9dF133XUV25w4cUKRSMSiiAAAAKzVcUW6vr4+7dq1S6ZpKh6PyzAMff7zn9fBgwdr7mPv3r3avHmzli1bpuHhYaXT6aLC3Fx8GQSsd+TIEaXT6Ypt3vjGN1oUDQAAAKw2MjIiSRoYGGj7vmZPrwnAWps3b6663uTf/u3f6rnnnrMoIgAAAOt0XJFOkrxer7Zt21YoqIVCIQ0MDGj16tWFRE6Stm7dqrGxMY2NjWlkZEQbNmzQwoULNTw8rImJCWWz2UJxbnaBbvaXw+3bt3MVHWCD+++/v2obinQAAADdq6+vT16vt+rArVbwer1t3weA0latWqX/9J/+U8U2hw4d0te//nWLIgIAALDOIrsDaFQoFJLb7dbGjRsLBbZ0Oq1MJiNJMk1T4+PjRa+Ze5Xc7GJcvlg3u10kEtGmTZvaeRgAyrjvvvsqPr9w4UKtW7fOomgAAABgh2uuuabkbCet5vF4dNVVV7V9PwBK+/CHP6x//Md/rNjm85//vD74wQ9qwYKOHG8OAABQUkd/s/H5fJqcnCxc6ZYvss2+Mm72bfZzc6dSmF2gc7vdisfjFOgAG1Vbj+6iiy7S6aefblE0AAAAsNLmzZu1cOFCfeADH9B//a//VVdffXXb97lr16627wNAaZdddpkuuOCCim0efvhhfe9737MoIgAAAGt0dJFOOjniMZ1Oa9euXVq5cmVRUW52Qa5UYU5SUfu+vj6FQiE9+uijGhoasuFoAEgnz8tqV9K94Q1vsCgaAAAAWGnLli2KRCJFuVo0GtUdd9xhd2gA2mTBggX6sz/7s6rtbrvtNguiAQAAsE7HF+nyfD6fHn30USWTSYXDYXk8nnlX0pW6eTweBQIBxeNxTU9Pa9u2bXYfCtDzDh48qMOHD1dsw3p0AAAA3SkWi0nSvIGWVqxNB8A+1157rc4666yKbe69996qs64AAAB0ko5dk66cdevWad26dbrpppskSUePHtX09LQymYxyuZwMw1B/f78Mw9DKlSttjhZAKdWuopO4kg4AAKBbZTKZwvIFs4t0w8PDNkYFoN1OPfVUffjDH9Ytt9xSsd1tt92maDRqUVQAAADt1XVFurn6+vrU19dHQQ7oINVGRp5++ulas2aNRdEAAADASm63W1NTU0WFOp/Pp0svvdTu0AC02ebNm7V161Y9++yzZdvcddddevTRR7Vq1SoLIwMAAGiPrpnuEkD3qHYl3eDgoBYuXGhRNAAAALDS0NCQTNMsPHa73dq5c2fb97t///627wNAZcuXL9d1111Xsc3MzAxLlQAAgK7R00W6d73rXbr88su1b98+u0MB8B+OHz+uVCpVsQ1TXQIAAHSv8fHxwn2Xy6VwOGzJfgcHBy3ZD4DKPvGJTxRNdVvKV7/6VT322GMWRQQAANA+XVWk279/v2677TZt3rxZGzZs0LFjxyq237Ztmx555BF5vV694Q1v0M9+9jOLIgVQzoEDBypObSJJb3zjGy2KBgAAAFbr6+vTrl27ClfTTU1NtX2fU1NTRVfvAbDPwMCArrzyyoptTpw4UVTQBwAA6FQdX6Q7ePCgNm/erIULF2pwcFCjo6OKRCJVr8SRJI/Ho3Q6reuvv16Tk5PyeDy6+uqrLYgaQDnV1qOTuJIOAACg2/l8vkKhbuvWrW2/YiaVSlW9cgeAdbZs2VK1zZ133qnHH3/cgmgAAADap6OLdLfeeqsGBgY0MTEh0zQLt3pFIpFCAhiNRnXBBRcwbQJgk2rr0Z199tl65StfaVE0AAAAsIvP59M999yj6elpDQ8P66mnnmrbvrZu3dq2vgHUb/369br88ssrtnn++ed16623WhQRAABAe3RskW5kZERbtmwpFOZcLlfh1oh8Amiaph599FENDg5SqANsUK1I94Y3vIFRzgAAAD3C6/UqnU7rjDPOkGEYuvPOO1u+j7GxsZpmYgFgrU9+8pNV20QiET355JMWRAMAANAei+wOoBEjIyOKRqOSVPhjff4Kumb+eO/1erV9+3Z96EMf0vT0tAYHB5XJZHTGGWc0HzSAqp5++mk99NBDFduwHh0AAEB327x587xtbrdbqVRKgUBAoVBIXq9X/f39De9jenpamUxGmUxGuVyuiWgBtMtb3vIWvfOd79S+ffvKtnn22Wd12223sT4dAADoWB1XpNuzZ4+i0WhRca6ZK+jmCgQCGh8f19TUlKanp7Vx40b94Ac/aEnfACrbv3+/ZmZmKrbZsGGDRdEAAADADkeOHNHu3bvnbXe5XDJNU9lsVrFYrOn9NLJUAgBrffKTn6xYpJOkL33pS7rxxht1zjnnWBQVAABA63TcdJfBYLDocT5Ra2ZNurm2bdtW6Ccej+vuu+9uuk8A1dUyzdDg4KAFkQAAAMAugUCgkI/NzfXyAzTnbm/kJqmlAz4BtN4f/MEf6K1vfWvFNs8++6z+6q/+yqKIAAAAWqujinR79uxRJpMpuorONE15vV5FIhGl0+mqV+HUwufzSXqpADg6Otp0nwCqSyaTFZ9fsWKFli1bZlE0AAAAsIPX65Xb7ZakeWuPzy2uNXsD4Gwul6vmtemmpqYsiAgAAKC1OqpIl1+HTjqZnPl8PmWzWd1zzz3atGmTVq5c2bJ9eTyewv10Oq29e/e2rG8ApVUr0s0+LwEAANC95l5NJ3HVG9Cr3vWud1Vdm/z48eP69Kc/bVFEAAAArdNRRbrJycnC/WAwqF27dqmvr68t+3K73UVTZ8bj8bbsB8BJzzzzjB566KGKbZjqEgAAoDfMXuagVdNbVpv6EoAzuVyumqaz/PrXv141pwQAAHCajirSZTIZSZJhGPryl7/c1n319/dLeikhTCQSbd0f0Ot+/vOfV52uliIdAABAb+jr65PH4ykU0MLhcGF5g1beJicnNTQ0ZPPRAqhmaGhIl156acU2MzMzuuWWWyyKCAAAoDU6qkiXy+Xkcrnk9Xrbvq/ZV+1JLxUIAbRHtakuJaa7BAAA6CWBQKDw70033dTS5Q3yPB6P4vF4W/oG0Fq1XE23e/du3XfffRZEAwAA0BodVaQzDEOSCouIt1Mmkyla7yCXy7V9n0AvS6VSFZ9/5StfqTPPPNOiaAAAAGC3kZERSdLAwEDb9zV7ek0AzvSmN71J733ve6u2u/HGG5nGFgAAdIyOKtLlp6Bsd5K2Z88einKAxapdScdVdAAAAL2lr69PXq9X6XS67fuyYrYWAM377Gc/WzSgupQf//jH2r17t0URAQAANKejinRer1emadY0LV4zwuHwvG1WXL0H9KrnnntOBw4cqNiG9egAAAB6z+joqCUFNI/Ho6uuuqrt+wHQnIsvvlh/8id/UrVdKBTS888/b0FEAAAAzemoIt3w8LCk+evFtdKOHTuUSCQKI7NM05TL5aJIB7TRL37xC504caJiG4p0AAAAvWdoaMiy4tmuXbss2Q+A5nzmM5/R4sWLK7aZmprSF7/4RYsiAgAAaFxHFemuuuoqGYahVCqlxx57rOX97969W8FgUC6Xa9785fkCIYDWq+XqWKa7BAAAQKvt3r1bGzZs0LFjx+wOBUCN3G63PvrRj1Zt97nPfU6HDh2yICIAAIDGdVSRTpI2bdok0zTl9/tb2u/Y2Jg2btxY9nmfz9fS/QF4SbUi3XnnnadzzjnHomgAAADQK+6//36lUilFo1G7QwFQh7/4i7/QsmXLKrY5duyYbrnlFosiAgAAaEzHFeluvvlmGYahZDKpyy+/XE899VRT/e3du1erV6/W+Ph4YWrLuf96vV6tWLGiNQcAYJ5qRTqmugQAAEA7ZDIZmaape+65x+5QANTBMAx96lOfqtouEonUNHMLAACAXTquSNfX16ddu3bJNE3F43EZhqHPf/7zOnjwYM197N27V5s3b9ayZcs0PDysdDpdVJibKxKJtPAIAMz2/PPP68EHH6zYhqkuAQAA0Gp79uxRLBaTpMK/ADpHMBjUa1/72optTNPUDTfcoJmZGYuiAgAAqM8iuwNohNfr1bZt27Rlyxa5XC6FQiGFQiG53e6iP+Zv3bq1cD+TySiTySiVShW25QtyLper5GNJ2r59O1fRAW304IMP6vjx4xXbcCUdAABAbxkZGWlb37lcrpAfzrZ3715deumlbdsvgNZavHixbrvtNv3n//yfK7a77777dOedd2rTpk0WRQYAAFC7jizSSSoU5TZu3Fi4Ai6dThcSLdM0NT4+XvSauVfJzS7G5a+km90uEonwJQ5os9mF83Io0gEAAPSWaDRalK+12uwBmvn7sViMIh3QYd797nfL6/UqkUhUbLdlyxZdccUVWr58uUWRAQAA1KbjpruczefzaXJysnClWz6Jc7lchWRr9m32c3MTvtkFOrfbrXg8ToEOsMDPfvazis+fffbZOvfccy2KBgAAAE4yN6dr1W12zpj/l2UOgM7jcrn0xS9+UYsXL67Ybnp6WmNjYxZFBQAAULuOLtJJJ9eqSqfT2rVrl1auXFky8SpXmJOKk76+vj6FQiE9+uijGhoasuFogN6zf//+is+vW7euraOoAQAA4FylcrpW3Gb3P9vdd99t9SECaNKFF16oG2+8sWq7O+64Qz/5yU8siAgAAKB2HTvd5Vw+n08+n08PPPCAEomEdu7cWdM0eh6PR+vXr5ff76cwh55x+PDhmtueeeaZbYtjZmZGP//5zyu2ueSSS9q2fwAAADsdOnSoapt6vrehPnOXQzBNU9u3b9cVV1xhU0QAGvXJT35S3/zmN/Wv//qvFdt98IMf1AMPPKBTTz3VosgAAAAq65oiXd66deu0bt063XTTTZKko0ePanp6WplMRrlcToZhqL+/X4ZhaOXKlTZHC9hjzZo1Nbed+8eLVjp48KCeeuqpim3Wrl3btv0DAADY6ayzzrI7BMeb/V3UMIym+8vlcpJOXkE3ODg4b+3jVuwDgPVOP/10feELX5DP56vY7le/+pU+97nP6XOf+5xFkQEAAFTWdUW6ufr6+tTX10dBDnCgauvRSVxJBwAA0MsCgYDC4bD6+vpa1mcikVAwGFQqldKOHTsYFAZ0iSuvvFKXXXaZfvjDH1Zst23bNvl8Ps59AADgCB2/Jh2AzlVtPbpTTz1Vq1evtiYYAAAAOIrH49H27dtbWqCTJK/Xq3Q6rRUrVmj9+vXat29fS/sHYA+Xy6Xbb79dS5YsqdjuxRdf1HXXXafjx49bFBkAAEB5XV+kO3bsmA4ePKhjx47ZHQqAOapdSXfRRRdp0aKuv+AXAAAAJQSDwbb2H41GNTMzI6/XW9MMDwCcb/Xq1brllluqtnvggQd02223WRARAABAZV311++9e/cqHo8rkUgolUqVbefxeLR+/XoNDw/L6/XqjDPOsDBKwH4PPfSQli9fbncYVf8YwvQjAACgmz355JNV2xw+fLiu9YS7idvtbmv/Ho9HPp9PsVhMQ0NDymQy5IZAF7jpppsUjUarztzyqU99Sn/4h3+o17/+9dYEBgAAUEJXFOnGxsY0MTFRWAR89uLipSSTSaVSKU1MTEiS/H6/tmzZQkEAPWP58uU688wzbY0hl8vp4MGDFduwHh0AAOhmdn8fczK32932Ip108mq9WCymbDarQCCgb3/7223fJ4D2Wrx4sb7yla9ow4YNevHFF8u2e+GFF/S+971P999/v0499VQLIwQAAHhJR093edddd2nZsmUaHx9XNpuVaZqFAp3L5Sp7k1Roa5qmotGoBgcHdfnll+uxxx6z85CAnvHzn/+8ahuKdAAAAL3p0Ucf1YoVK9q+n6GhIUkq5IXVBpEBtTh8+LAOHTpU0w3tsW7dOoVCoartHnzwQd18880WRAQAAOxQy/exw4cP2xqjy6x22ZlDjY2NaXx8vKgoN1u57aXM/hG4XC6Nj4/rz/7sz1oYLWCfQ4cO6ayzzira9uSTT9o+cvv222/XRz/60Yptcrmc+vr6LIoIAADAeZz6Xa6b9Pf36+jRo5Kk0dFR/ff//t9tjgidpNQ5Wo8O/ZNMR3juuee0du1aPfzww1XbJhKJQtEeAAB0j1rqQ6VYmXN15JV0Y2NjCofDMk1z3tVxeeWumpt7m93W5XLJNE2FQiHdcMMN1h8Y0EOqrUe3cuVKCnQAAABou9nLJsTjcXuDAdAyp556qr7yla/U9Me597///cpmsxZEBQAAUKzj1qTbs2ePwuFw0ZesSsU6t9stj8ej/v5+SZJhGMrlcpqenlYmk1EqlSq0nV2oi0Qimp6eZk0CoE2qFemY6hIAAADtNjU1VfQ4k8nYFAmAdnjLW96iLVu2aOvWrRXb/fa3v9UHP/hB7d69u+ER9wAAAI3ouCKd3++fV4yb/djtdsvn82lkZETr1q2rqc+pqSlFo1FNTEwok8kUCnXRaFQbNmxg6kugxU6cOKFf/OIXFdusXbvWmmAAAADQs4LBYNHj/FV1ALrHpz71Kf3whz8sGqRdyt13362/+Zu/0cc//nFrAgMAAFCHrUm3e/fuQpEuf/Wc9FJxLhwO66qrrmpqH4lEQsFgsDCi0uVyKZPJ6NWvfnXT8QN2cOI6Jg899JBe97rXVWxz991364//+I+tCQgAAMChnPhdrlts3rxZkUikKK9cunSpjhw5YnNk6CSlztGHHnpIy5cvr+n1nMvW+OUvfymPx6PnnnuuYrtFixbp3nvv1Zve9CaLIgMAAO106NChqm0OHz6sNWvWFG2zMufqqCvpdu7cWbifL9RJJ0c/fvnLX27JPrxer9LptPx+v3bv3l3o/wc/+EFL+gdQfapLiekuAQAAetnevXvb0m8ul9P999+viYmJoqvm8oNA169f35b9orcsX76c4pvDXHjhhbr11lv1kY98pGK7EydOaGRkRA888EBh2RQAANC5OuE7WUcV6VKpVNEoR5fLpUAg0LIC3WzRaLRQqIvH4zp48KBWrFjR8v0Avahake6MM87gfAMAAOhhXq+3retCzV06Ic/v97dtnwDs9ad/+qf6/ve/X3UQ9m9+8xtde+21+od/+ActWLDAougAAECv6qhvG3MX8Xa73W0p0OVFo1EZhiFJikQibdsP0Gv2799f8flLLrmExboBAAAg0zTbcnO5XEXfN10ul9xut66//nobjxZAO7lcLv393/+9zjnnnKptv//97+szn/mMBVEBAIBe11FFunzBLJ9UjY6Otn2fW7ZskWmaVRcYBlC7X/ziFxWfZ6pLAAAASCoU01p9my1/VV00GrXjEAFY6Oyzz9a3v/3tmq6Q+/SnP6277rrLgqgAAEAv66gindvtLnrs9Xrbvs/BwUFJ86/iA9CY6elpPf744xXbUKQDAACAFUzTlGEYmpyc1Nq1a+0OB4AFfv/3f1+f/exna2p77bXXVh1kCgAA0IyOK9LlRzlKsmTNqnxhkCId0BoHDhyo2ubiiy+2IBIAAAB0gnZNebly5UqFw2FNT09r3bp1dh8mAAtt2bJFl19+edV2Tz/9tN7znvfo8OHDFkQFAAB60SK7A6hHIBBQLBYrPD548GDbC3XNFOeOHj2qaDTKugbALA8++GDVNmvWrLEgEgAAADhdX1+fxsbG5Ha7C8sfNKu/v19ut1t9fX0t6Q9A51mwYIG+/vWva926dfq3f/u3im0PHjwon8+nH/7wh1qyZIlFEQIAgF7RUUU6r9crwzB09OhRSScLaO0u0uXXops71WYtMpmMgsEgRTpglmpFuhUrVujlL3+5RdEAAADAqTwej+6//367wwDQpZYvX67du3frHe94h55//vmKbf/P//k/uu666/T1r3+9pvXsAAAAatVx3ywmJiYKU15OTEy0fX87d+6Uy+VqaP276enpNkQEdLZqRbqLLrrIokgAAADgZOFw2O4QAHS5N7zhDTX/bemb3/ym/tt/+29tjggAAPSajivS+Xw+bdq0SaZpKhqN6rHHHmvbvvbs2VO4ks7v99f9etaxA4qZpll10W2KdAAAAJCk9evX2x0CgB5w7bXX6sYbb6yp7bZt2/TlL3+5zREBAIBe0nFFOkmKRCIaGhqSaZoKBoNt20++b6/Xq0svvbTu18fj8VaHBHS0J554QtlstmIbinQAAACIRCI644wz7A4DQI8Ih8N617veVVPbD3/4w/pf/+t/tTkiAADQKzqySCedLIB5vV7F43FdffXVLe//sssuUyaT0cDAgKLRaN2vv+OOOxSLxVoeF9DJqk11KVGkAwAAgLRp0ya7QwDQQxYtWqRvf/vbWr16ddW2MzMzGhkZUSKRsCAyAADQ7RbZHUA9xsbGih673W4lEglFo1Elk0l5vV4ZhtHUPnK5nHbt2qVcLieXyyW3262tW7fW/Nrp6WmlUimmugRKqFakW7hwoV772tdaFA0AAAAAACctXbpU//iP/6g3v/nNOnz4cMW2zz//vN773vfqnnvu0Vvf+laLIgQAAN2oo4p0yWRSe/bsKdrmcrlkmqbS6XTLCmOmaRb6TiQSdY+Oyr8eQLFqRboLLrhAS5YssSgaAAAAOM2xY8ckqS1TXR49elQbN27UxMSEXv3qV7e8fwCdb9WqVfre976nd77znXr22Wcrtn3mmWf07ne/W/v27ZPH47EoQgAA0G06qkgXCASUSCQKhbk8l8slqXXFsWb7a3U8QLeoVqRjqksAAIDuMTY2VphtRNK8+5I0PT1duJ/ncrl04sSJlseTSCQUj8c1ODioZDJJoQ5ASW984xv17W9/W1dccYVmZmYqtj127Jje9a53ad++fbr44ostihAAAHSTjirS+Xy+wv3ZhTDTNOVyuQrbWmH21XQAmjczM6MDBw5UbEORDgAAoHuEw+F5+VS1gYyGYWjjxo1tieeqq67Stm3btGXLFg0ODmrPnj265JJL2rIvAJ3tPe95j770pS/phhtuqNr2yJEjeuc736l4PK5169ZZEB0AAOgmC+wOoF6bNm0qJHbtLKS1uugH9LqDBw/qmWeeqdiGIh0AAED3mJ6e1tq1awsDK+fOhjI73/L5fEomk5qentb27dvbFlMoFNJVV12l6elpDQ4O6rHHHmvbvgB0ts2bN+sv/uIvamp75MgRXXrppbrvvvvaHBUAAOg2HVek+9CHPlT0OD/1pdNuAIr94he/qNqGIh0AAED3MAyjsKZ4vig3uzhnmqYCgYCy2ax27dpl2RUo0WhU69at08zMjPx+vyX7BNCZPvOZz+hjH/tYTW1zuZy8Xq9+/OMftzkqAADQTTquSLdu3ToZhlG0LRwOK51OK5vNamZmxtZbOp3WPffco7Vr19ry8wGcqtp6dEuWLNHAwIBF0QAAAMAKhmHI7XYXbTNNU319fYrH49q+fbv6+vosj2vHjh2SpGQyqTvvvNPy/QPoDC6XS1/4whd0/fXX19T+qaee0mWXXaZ4PN7myAAAQLfouCKd9NKUly6XSz6fTzfddJNWrlxpS3I318qVK+X1epVMJh0RD+AU1Yp0a9as0cKFCy2KBgAAAFaZnp4u3DdNU0uXLlUymdTQ0JBtMXk8nkJeGQqFdOzYMdtiAeBsLpdL27dv13/5L/+lpvZPP/203v3ud+sb3/hGmyMDAADdoCOLdFdffXXh/txRmU4yNjZmdwiAY1Qr0jHVJQAAQPeZmppSLpeTpMJAy2QyqZUrV9obmKTx8XEZhqFcLqdAIGB3OAAcbOHChfrqV7+qK664oqb2J06c0DXXXKNbb72VJVEAAEBFHVmkW7duXeEqtWXLltkcTXmDg4N2hwA4wgsvvKBf/epXFdtcfPHFFkUDAAAAq8RiMUkvFeh27dqlFStW2BvUf+jr69OWLVtkmqai0ShX0wGoaPHixdq5c6dGRkZqfk0oFNInPvEJzczMtDEyAADQyTqySCedTPa2b99u6xQp1axfv15XXXWV3WEAtnvkkUd04sSJim24kg4AAKD75Ndlyi9V4LT8yO/3F+7n16kDgHIWL16sb3zjG7rmmmtqfs3f/M3f6I//+I8ZCAAAAErq2CLd0NCQNm3apHXr1tkdSll9fX3atWuX3WEAtjtw4EDVNhTpAAAAuk8ikSjcD4fDNkZS2sqVK+XxeGSaprZv3253OAA6wKJFi/R3f/d3uv7662t+zXe/+1295S1vUSaTaWNkAACgE3VskQ5A5/jlL39Z8fmXv/zlOv/88y2KBgAAAFZ44IEHJL10FZ1TprmcKz91XSaT4UoXADVZuHChIpGIPvrRj9b8mgMHDmjDhg3at29fGyMDAACdhiIdgLarVqS78MIL5XK5LIoGAAAAVph9FV09azhZzev1Fu4zEwqAWi1YsED/43/8D23btq3m10xPT2t4eFhf+MIXZJpmG6MDAACdgiIdgLarpUgHAACA7nL//fcX7l955ZU2RlKZYRiF+8lk0r5AAHQcl8ul0dFRfe1rX9OiRYtqes2LL76oG2+8UVdeeaWy2WybIwQAAE5X2zeILrJ3716lUikdOXJEkjQwMKD169dr7dq19gYGdKkXX3xRDz/8cMU2FOkAAAC6Ty6XkyS53W57A6li5cqVhfusFwWgEddcc43OOussXXXVVXr66adres13vvMd7d+/X9FoVOvXr29zhAAAwKl6okh38OBBjY6OKhaLlW1jGIZGRka0bds2nXHGGRZGB3S3qakpPf/88xXbrFmzxqJoAAAAYJXp6WlJxVeqOR1FOgCNuuyyy/TP//zPeu9736t/+7d/q+k1Bw8e1Fve8haFw2F97GMf04IFTHgFAECvccSn/7Fjx7R//37ddddduuOOOzQ2NqbNmzfrsssu0+rVq7Vs2TItWrRI+/fvr7vvsbExDQwMKBaLyTTNsrdsNqtIJKKlS5fqzjvvbP1BAj2q2lSXElfSAQAAdKNMJiOXy+X4K+lmyxcWAaARHo9H999/v9785jfX/Jrjx4/rxhtvlNfr1W9+85s2RgcAAJzIlivpRkZGlMlklMlkClOglJNfSNfj8dSd3F122WVKJBKFPlwuV037CgQCSiaT+tu//du69gdgvmpFuiVLlhRNMQQAAIDukMvl5HK5quZ8TmGaZsfECsC5zjnnHO3bt08f+tCH9Pd///c1v27fvn26+OKLdfvtt+uaa66p+jcsAADQHWy5ku7RRx9VMplUNputeHXbypUrFYlElM1mNTk5WfM0lEePHtWGDRsKBTqXyyWXy1VxX5KK2kUiEd1www3t/DEAPaFake6CCy7QwoULLYoGAAAAVnP6FJJHjx61OwQAXWbJkiX6yle+or/+67+uawrLY8eO6f3vf7+uvPJKPf74422MEAAAOIUtRbpkMqldu3ZJeqkwlr9JJxcWj8fjevTRR7Vp0yb19fXV1f/Q0JCSyWSh/9mFuFL7nDs6aXah7u67727mUIGeV61Ix1SXAAAA3cntdss0TccX6SYnJyWp46bmBOBsLpdLn/jEJ7Rv3z6de+65db32O9/5ji688EJ9+ctf1szMTJsiBAAATmDbmnQ+n09er7eoeGaapvx+vx599FENDQ011O/mzZuVSqUKhbfZ/Usq2l7uirp8O9M05fP5dOzYsYZiAXqdaZp66KGHKrahSAcAANCdDMMo3D948KBtcVQTj8cL92fHDACt8I53vEP79++X1+ut63XHjh3TDTfcoLe//e06cOBAm6IDAAB2s61IJ720KHe+ODY6OqqdO3c23N/u3bsViURKFuhmT2XZ19enUCikeDyuZDKpdDqteDyum266SX19ffMKe9u2bWs4JqCXPf7443rqqacqtlmzZo1F0QAAAMBKs69K2717t42RVJZIJAr3uZIOQDucddZZ+sEPfqBPf/rTda8195Of/ERr167VTTfdxPS8AAB0IVuLdPkr3lwulwKBgLZu3dpwX0ePHtWmTZvKFujy2/x+v6anp7Vt2zYNDQ1p3bp1WrlypYaGhhQOhzU9Pa2bbrqpsJadaZoKh8PNHSjQo6pNdSlxJR0AAEC32rBhQ+H+9u3bbYykvAceeKBoJpb+/n6bIwLQrRYuXKhbbrlF+/bt06te9aq6XnvixAnddtttuuCCC7Rjxw69+OKLbYoSAABYzbYi3eyRlB6PR1/+8peb6s/v9yuXy0maX6DLPw6HwzVdqRcOh7Vt27aifvbu3dtUfEAvqlakW7BggS644AKLogEAAICV8lO75del27dvn80RzZcfKJrP/QYHB+0MB0AP+P3f/339/Oc/1wc+8IG6X/vkk08qEAho/fr1+qd/+qeWxwYAAKxnW5EuEokU7u/YsaOpvnbv3q1EIlFUkJNeKtC5XC6FQiHddNNNNfcZCoW0bt26wuNoNNpUjEAvqlakc7vdWrJkiUXRAAAAwErr1q2TYRiFvCwYDNodUpGpqSnFYrGiqec2btxoY0QAekVfX5/+7u/+TnfddZeWL19e9+v379+vd77znbr88ss1OTnZhggBAIBVbCvS5YtqPp9Pa9eubaqv0dHReXN6zy7QNTqV5uziIV96gPo99NBDFZ9nqksAAIDuNjQ0VBhImU6ndfPNN9sc0UuGh4eLHns8Hp1xxhk2RQOgF11xxRV68MEH5ff7G3r9D3/4Q23YsEFXXXWVDhw40OLoAACAFWwp0s2e6rLZ0ZS33nqrMpmMpJemKMkX7Fwul9xud8NTaXo8Hnk8HpmmWZhKE0Dtql1JR5EOAACgu42NjUlS0Xrfd955p81RSZs3b1Ymkyka3DkyMmJ3WAB60Nlnn61du3bpe9/7Xt1r1eXddddduvjii/Unf/In+sUvftHiCAEAQDvZUqSLx+OF+5deemnD/Rw9erRwFd3saS6llwp2s/fViPw6CvlCIIDaTE9P68knn6zYZs2aNRZFAwAAADt4PJ7CMgL5vC0QCNhaqBsZGdHExMS82Vh8Pp9NEQGA9Id/+Ic6cOCAPvGJT2jBgvr/XGeapr71rW/p9a9/vf7oj/5IP/7xj9sQJQAAaDVbinT5gpfb7W6qn02bNs3bNnsk5Pbt27VixYqm9jEwMNDU64FeVe0qOokr6QAAAHpBOBwumvUkX6i74YYbLI3j2LFj2rBhg2KxWCGefO7o8/mazh0BoFm/93u/p7/+67/W/fffr7e85S0N9/O9731Pb3vb2/SOd7xD3/3ud/Xiiy+2MEoAANBKthXpXC6XDMNouI8HHnigsMj33GkupZMFwFJFvEY1W1AEek0tRbrXvva1FkQCAAAAO3m93sLVdNJLhbpIJKLly5dr3759bY/htttu08qVK5VKpQqFudlmr0cOAHbzeDz60Y9+pG9961t65Stf2XA/9957r97znvdo9erV+vznP69sNtvCKAEAQCvYeiVdM+u8lVtUN59wRaPRhvueLR9jMwVFoBc99NBDFZ9/xSteoTPOOMOiaAAAAGCnaDQ67+o10zQ1PT0tr9erDRs2tHwKzGPHjmlsbEzLli3T6OiostlsUYEufz8UCvG9FIDjuFwuXX311frVr36lT3/60zrttNMa7mtqakp//ud/rle84hUKBALav39/6wIFAABNsaVIZxiGTNNseJ23uYt8S8XTXPp8Pq1du7YlsabTaUlcSQfU61e/+lXF55nqEgAAoHe43W7t2rWrqEDncrkK95PJpAKBgBYuXKiRkRHdcccddf8R+dixY7rrrru0efNmbdiwQUuXLtX4+HhRcW7uFXSGYWhsbKyFRwoArfWyl71Mt9xyix555BF96EMf0qJFixru69lnn9WOHTu0bt06DQ4O6ktf+pKmp6dbGC0AAKiXy8xXuSy0atWqQpEtlUrpkksuqfm1u3fvlt/vLyrQScVFumw227KRkKtWrdLU1JQikYiuv/76lvSJzpFIJBSNRjU5OalMJqNcLifDMOR2u+V2uzUyMuL4BeYPHTqks846q2jbk08+qTPPPLOt+121alWhyF3KRz7yEX3xi19sawwAAACdzq7vcu0SDAa1Y8eOovxN0rzcbrb8d2/DMNTf31/YPj09XfiOPj09XTRTS7n+5hYJ0+k0a9HZrNNzrm47R+F86XRan/rUp/Q//+f/VCv+pHfKKafoiiuu0Ac+8AF5vd6mioAAAHQiu7/P2VKk27hxY2E9ucHBQd133301ve6BBx7Q4ODgvERudpIVCoW0devWlsQ5NTWlgYGBlhf+4HwTExMaHR0tSvTziWI+cZy9fWxsTKFQyPpAa2DHm8wLL7yg0047TTMzM2XbfOlLX9Kf/umfti0GAACAbmB3wtgOfr9fu3fvLru+eKkUdW7hrlLbUq8plTvec889GhoaaugY0Lxuybm68RxFZ3jwwQf1l3/5l7rrrrta1ueZZ56pq666SldffbXe9ra3aeHChS3rGwAAp7L7+5wt011u3LhRkgrTmtSy9sCePXu0fv36wuNSyZxhGC0r0ElSOByWdHLBXgp0vSGXy2l4eFjBYLCQFHq9XiWTSWWz2cK/2WxWgUCg8JrR0VENDw83tc5iN0mn0xULdJJ0wQUXWBQNAAAAnCQajeqmm26aN+Vl/pbfNvs2+/nZN0kl2899Tb5d/v727dsp0NmEnAtojYsuuki7d+/WgQMHdO2117akoHbo0CFt375df/AHf6BXvvKV+tjHPqYf/ehHevHFF1sQMQAAKMWWIp3P55NhGIUkKRAI6Oabby7b/tZbb9W73vWuoqlJZstvj0ajLYtxampKExMTcrlcGhkZaVm/cK5MJqOVK1cqkUgUtoVCIcXjcXk8nqK2hmEoEokU/c4lEgmtXLmy4bUWu8mvf/3rqm1e85rXWBAJAAAAnCgcDmvbtm3zCm2S6irEzb1abu7rZr/WNE0ZhqF4PK5NmzZZeLTII+cCWm/NmjX66le/qnQ6rQ9/+MM69dRTW9LvE088oS9+8Yt6+9vfrnPOOUfvf//7FYvF9NRTT7WkfwAAcJItRTpJ2rJlS1HRLRwOa9myZbrssst022236bbbbtPmzZu1bNmyeW3zZk9VEggEdOmll7YsvuHh4cJ9r9fbsn7hTPnRnLNHZfp8vsLVlOX4fL6iKVdyuZwGBwd7fnTnww8/XPH50047Teeff75F0QAAAMCJQqGQJicntXbt2pLFuLxyV9GVK8rN7Sf/vM/n09TUFFfQ2YScC2ivV7/61br99tv12GOP6bOf/azOO++8lvV9+PBhfe1rX5Pf79fy5ct12WWX6Ytf/KJ++ctftmRdPAAAepkta9LlDQwM6ODBg5JKT185d3u5xb89Ho/uv//+lsV12WWXKR6PS5KWLl2qI0eOtKxvONPw8HDRaE5JymazMgyjptcPDAwUjeb0er2F3yG72TGn7vXXX19xGtvXv/71+tnPfta2/QMAAHQLu9dHsEoikVAwGNTU1JSk+tagq9bW6/VqdHSU4pzNujXn6pVzFJ3n+PHj+s53vqPbb79d9957b9v2c95558nr9crr9WpoaKilxUEAAKxg9/c5266kk6R4PD5vxOTc0ZCzt+fNngbF7XZrz549LYnn2LFj2rBhgxKJRGG/s9fBQ3eamJiYlyyGQqGak0VJ80Z/JhIJjY+PtyK8jlTtSjrWowMAAMBsXq9X6XRau3btks/nU19fX8WpK6tdcdfX16dAIKB0Oq177rmHAp3NyLkA6y1evFh+v1///M//rP379ysYDOqMM85o+X4ef/xxfe1rX9O1116rV7ziFXrd616nD33oQ/r617+uqakprrQDAKAKW6+kk6RUKiWv16tcLld1BOTcBMzj8WjPnj3q6+trOo69e/fK7/crl8sVTa05MDCgRx55pOn+4VxLly6dN1VKPSM6W91Pq9kxEuDss8/Wk08+Wfb5m2++WX/1V3/Vtv0DAAB0C7tHddrpgQce0M6dO5VKpZTJZDQ9PV1yikPDMNTf3y+Px6Ph4WF5vV6tXLnS+oBRVjfnXL18jqLzPPPMM7r77rv1la98RXv37rVkn+eee67e9ra36a1vfave+ta36uKLL9aSJUss2TcAALWw+/ucrVfSSSenqpycnNTQ0FDJtQSk0ouIj46OanJysukC3bFjxzQyMqLh4WFls9lCgS6/30wmoze84Q0Vp+5D54rFYvOSPK/X21CSt3Hjxnnbtm7d2mBknSuXy1Us0EnSa17zGouiAQAAQKdat26dtm3bpnvuuUePPvqopqenNTMzo2w2q3Q6rWw2q5mZGU1PT+vRRx/Vrl27tGnTJgp0DkPOBTjHy172Mr3vfe/Tnj17lMlk9Jd/+ZdatWpVW/f5xBNPKBqN6uMf/7g2bNigl7/85Vq/fr2CwaAmJiaUSqX0wgsvtDUGAACczPYr6WZLJBKFaTDKjZAMBAIKBoNNJ17Hjh3T1q1bC9NjzC7O5c3+0bA2XXcaHBxUKpUq2haJRBQIBOruK5FIaHh4eN72XhvZed999+mNb3xjxTb/8i//oje96U1t2T8AAEA3sXtUJ9Csbs+5OEfR6UzTLFy5vHPnTj322GOWx3DKKafo4osv1iWXXKKLLrqocDvnnHPKzroFAECr2P19zlFFutmmpqaUy+U0PT2t/v5+ud3ulkxrefToUW3ZskUTExOSSi88Lklut7twGxwclNvtZh2DLpNKpTQ4ODhvezqdltvtbqjPUl8ew+GwQqFQQ/21gtVvMt/4xjd0zTXXVGxz5MgR9ff3t2X/AAAA3cTuhBFoRi/kXJyj6CamaeqnP/2pdu7cqe985zs6ePCgrfH09/cXCnave93r9JrXvEarV6/W+eefrwULbJ8cDADQJez+PufYIl27TE1NaWBgQNJLhTiPx6OBgYHCY6ZH6Q1+v1+xWGze9mZOiYGBAWUymaJtHo9HyWSy4T6bZfWbzCc/+Ul97nOfK/v88uXLdejQobbsGwAAoNvYnTACzeiFnItzFN3KNE0dOHBA//AP/6Dvfve7+ulPf9rUudtKp556qlatWqXVq1cX3VatWqVzzz2XAh4AoC52f59bZMleHGTlypXKZrMtuSoPnS2RSMzb5vF4murT4/HMSxhTqZRyuZytU15a6de//nXF51mPDgAAAOgN5FxA53K5XIWr2G6++Wb9v//3//T9739f//t//2/t3btX09PTtsX23HPP6cEHH9SDDz4477nFixfrla98pV796lfPu61YsULnn3++TjnlFBuiBgCgtJ4r0kmiQAdlMpmS6x6uX7++qX43bNhQcqTorl27GlpzoRM9/PDDFZ+/4IILLIoEAAAAgF3IuYDucvbZZ+u6667Tddddp5mZGe3fv1+JREKJREL33nuvnnvuObtDlCQdP35cmUxmXjE/z+Vy6cwzz9S5556rc889V+edd968++edd57OOeccinkAAEv0ZJEOKDWiU1JhKtRGlRsVGo/HeyJhnJmZ0SOPPFKxDUU6AAAAoPuRcwHda8GCBfJ4PPJ4PAqFQnruuef0k5/8RPfee69+9KMf6f/+3/+r3/3ud3aHWZJpmnryySf15JNP6mc/+1nFtoZh6Mwzz9Ty5cu1fPnyiveXLVumM844g6k2AQB1o0iHnhSPx0tub3Tx8rz+/v6S21OpVFP9dorf/va3euaZZyq2YbpLwDp2z6kN4CWcjwB6DTlX+/CZAqc59dRTdemll+rSSy+VJJ04cUI///nP9eMf/1g/+tGP9OMf/1i//e1vbY6yfrlcTrlcrupg5Lle9apXqb+/X319fTIMo+Str69PfX19evnLX67f+73fK7otXry4TUcEdDc+H9GpKNKhJ5VL4Jpdw6BcwllumoVuU209Ookr6QAAAIBeQM4F9K5FixYVrrT7yEc+Ikl6/PHHlUwmlUwmNTk5qWQyqX//93+3OdL2+M1vfqPf/OY3Db/+lFNOmVe4K3U77bTTdOqpp+q0004re7/S8wsXLmzhUQMAGkWRDj2pXALX7KjOSglnJpNpun+nq1akc7lcWrVqlUXRAAAAALALOReA2c477zydd955+qM/+iNJJ6edzBfuUqmUDhw4oAcffFC//vWvNTMzY3O09nrhhRc0PT2t6enptu5n8eLFWrJkiU455ZTCbfHixUWPK20vt23x4sVatGiRFi1apIULF867X2pbM8+7XC4tWLCg5pvL5WrrzxUA6kWRDj2n1OLleeWmTqmHYRgl95FKpbo+YXz44YcrPr9ixQotWbLEomgAAAAA2IGcC0A1LpdLr3jFK/SKV7xC73nPewrbn3vuOT388MN68MEHi26PPfaYTNO0MeLuc/z4cR0/ftzuMGxRrnhXT7GvUgHQ5XIVbnMf17rNia8rpdR2K9vO3vbcc8/Ne/4jH/mITj31VMvjcnLbTvaRj3ykK5dSokiHnlNpJFKzU6/0umpX0jHVJQAAAND9yLkANOrUU0/VJZdcoksuuaRo+/PPP69MJqNf//rXeuSRRwq3X//61x253h3sNTMz0/NXbPaKnTt32h0CWuiKK66gSAd0A7vWKmj3NAX1OHz4cFv6feihhyo+341vogAAANLJherboV3f24B26vWcq53n7Zlnntm2vgEnW7JkiS688EJdeOGF8557+umnNTU1pccee6zk7YknnrAhYgBAq+VyubbkXXbnXBTp0HMqTb3SCv39/SX30e791mPNmjW27Jcr6QAAQLc666yz7A4BcIxez7namW8x3R8w3+mnn66LLrpIF110Ucnnn3/+ef3rv/6rHnvsMT3++ON6/PHH9cQTT+iJJ54o3H/88cf17LPPWhw5AKAePp/P7hDagiIdeo5doyuPHDliy36dhCvpAAAAgO5HzgXASZYsWaJVq1Zp1apVZduYpqljx44VCnb//u//rsOHD+vw4cM6dOhQyfsvvviihUcBAOhWFOnQc1qxUHklrLFQHlfSAQAAAN2PnAtAp3G5XOrr61NfX59e+9rXVm1vmqaOHj2qhx9+WG9605uKnrv55pt1/Phx5XK5srfjx4+361AAAB2GIh16TrsTunJTrCxbtqyt+3W60047Teeff77dYQAAAABoM3IuAN3O5XLJMAy53e55z3384x+vuH6kaZp69tlndfToUT399NP63e9+p9/97ndF96vdnn76aT333HN69tln9eyzzxbdZ1pcAOgsFOnQc9o9qrMcJ432fOihh7R8+fKW9vnxj39c3/zmN8s+v3r1ai1YsKCl+wQAAHCKJ598si39Hj582Lb1hIFG9XrO1Y58C0D3cLlcetnLXqaXvexlLe/bNE0dP358XuGu3P0XXnhBL7zwgo4fP164P/vW6PYXX3xRJ06cmPfv7PszMzMtP34A3S0Wi+kd73hHy/u1O+eiSIee0+7Erdz6C6VGV9ll+fLlFUd1NeLWW2/V+9//fqVSKY2Njc17nqkuAQBAN2v1dyugk/V6ztWOfAsAauFyuXTKKafolFNOUV9fn93hVGSaZsUiXqltc+/PzMzMu5mmWXJ7PbdG+sivUWiaZtHNSduaeX25/8Nat7eij2p9v/DCC0okEkXPDQ0N6ZRTTmnbPtuxvZ19t4OVV++uWLGiK79jUaRDz6k0qjOXy7UtobRrNKlVzjvvPJ133nlat27dvCLdP/3TPzGSFAAAAOgR5FwAgGpcLpcWLVqkRYv48zRa49ChQzrrrLOKtn3rW9/qyqIOugtzz6Hn2LU+glOmXrHDmjVr9LrXvc7uMFrm0KFDcrlcRbdDhw7ZHVZLcYzoFL3w/8gxolP0wv9jLxwj0ArkXGhWL7zfcozoFL3w/8gxolP0wv9jLxzjXBTp0JM8Hk/J7ZlMpql+yyWLknOmXgEAAACAdiPnAgAAAKqjSIee5PV6S24vt7ZBrcq9vlyCCgAAAADdiJwLAAAAqI4iHXrShg0bSm5vdlRnudeXS1ABAAAAoBuRcwEAAADVUaRDTyqXwKXT6ab6LTf1yvDwcFP9AgAAAEAnIecCAAAAqqNIh55kGEbJRcVTqVRT/d5///0lt69fv76pfgEAAACgk5BzAQAAANVRpEPPCgQC87ZNTk421WephNPj8ZRMTgEAAACgm5FzAQAAAJVRpEPPCgaD87blcrmy06fUolTCOTIy0nB/AAAAANCpyLkAAACAyijSoWe53W55PJ552xOJREP9ZTKZkslmqdGjAAAAANDtyLkAAACAyhbZHQBgp2AwOG90586dO+Xz+eruKxaLzdsWCARsn3ZlZmZm3rbDhw+3bX+l+m7n/uzAMXYHjrE7cIzdgWPsDhyjdfss9f0OcKpuz7mszrfK9c/7befhGLsDx9gdOMbuwDF2h17MuVymaZqW7Q1woKVLl84bjdnIaTEwMKBMJlO0LZ1Oy+12NxNe0375y19qzZo1tsYAAACA1nnooYd04YUX2h0GULNuzrnItwAAALqPlTkX012i542Njc3bNjExUVcfqVRqXrIYCoVsL9ABAAAAgN3IuQAAAIDSuJIOkDQ4OKhUKlV4bBiGstlsw693u91Kp9MtjbFRjOwEAADoLlxJh07UrTkX+RYAAED34Uo6wGLRaLRoHYNcLqfR0dGaXjsxMVGULEpSPB5vZXgAAAAA0NHIuQAAAID5uJIO+A+ZTEaDg4NFayVEIhEFAoGyr0kkEhoeHi7aFo/H5fV62xVm3U6cOKFHHnmkaFt/f78WLKBGDwAA4HQzMzOanp4u2rZ69WotWrTIpoiAxnVjzkW+BQAA0Nnszrko0gGzZDIZ+f3+olGaPp9P4XC4aK2D/KjP2esouN1uxeNx1kQAAAAAgDLIuQAAAICXUKQDSpiYmNDo6GjRCE/DMOR2u5XL5UouWB4Ohy2OEgAAAAA6EzkXAAAAQJEOqCiRSCgajWpyclKZTEa5XE6GYai/v18ej0cjIyPyer1FaysAAAAAAGpDzgUAAIBeRpEOAAAAAAAAAAAAsBgrGQMAAAAAAAAAAAAWo0gHAAAAAAAAAAAAWIwiHQAAAAAAAAAAAGAxinQAAAAAAAAAAACAxSjSAQAAAAAAAAAAABajSAcAAAAAAAAAAABYjCIdAAAAAAAAAAAAYDGKdAAAAAAAAAAAAIDFKNIBAAAAAAAAAAAAFqNIBwAAAAAAAAAAAFiMIh0AAAAAAAAAAABgMYp0AAAAAAAAAAAAgMUo0gEAAAAAAAAAAAAWo0gHAAAAAAAAAAAAWIwiHQAAAAAAAAAAAGAxinQAAAAAAAAAAACAxSjSAQAAAAAAAAAAABajSAcAAAAAAAAAAABYjCIdAAAAAAAAAAAAYDGKdAAAAAAAAAAAAIDFKNIBAAAAAAAAAAAAFqNIBwAAAAAAAAAAAFiMIh2ApiUSCQWDQQ0ODmrp0qVyuVxaunSpBgcH5ff7FYvF7A4RaLtUKqXR0VENDg5qYGCgcB4MDAxoeHhYExMTymQybY/DCeejE2IAajU8PCyXyyWXy6XR0dGW9++E88EJMQAAmsN7OUDO5bQYgFqRc3FOogoTABoUiURMwzBMSYWbYRimx+MpuT0cDtsdMtBy8XjcdLvdRb/vlW4+n89Mp9Mtj8MJ56MTYgDqEYlEin4vQ6FQS/u2+3xwQgwAgObwXg6QczktBqAe5Fyck6iOIh2AumWzWdPr9RZ90Hi9XjOZTM5rFwgE5rXLZrP2BA60UKnzoJ5bq76YOeF8dEIMQL3S6fS887IVCaMTzgcnxAAAaA7v5QA5l9NiAOpFzsU5idpQpANQl3Q6PW8kSLUP2Gg0Om/kSDtGtQFWSafTdY3kLHfz+XxNx2H3+eiEGIBGeDyelieMTjgfnBADAKA5vJcD5FxOiwFoBDlX+2JAd6FIB6Bm2Wx23pfkWr/whkKheR9GjBpBJ8pms/O+jDVza/QLqhPORyfEADRi7u9fKxJGJ5wPTogBANAc3ssBci6nxQA0gpyrfTGg+1CkA1CzUtNM1PNhMvdDzOv1ti9YoE3mjgQLBAJmPB6fNwIqmUyaoVCopuQyHo/XHYcTzkcnxADUK5lMtvwPOKbpjPPBCTEAAJrDezlAzuW0GIB6kXO1NwZ0H4p0AGoyd6HXRj5Y517aLbVujnjACuFwuPC76/F4ap6aYPbrSt08Hk9dcTjhfHRCDEAjKk2b1GjC6ITzwQkxAACaw3s5QM7ltBiARpBztS8GdCeXaZqmAKCKpUuXKpfLFW3LZrMyDMOWfgCr5XI5LV26VJLkdruVTCbr+r1NJBIaHh4u+3w8HpfX662pLyecj06IAaiX3+9XLBaT2+2Wx+NRLBYrej4UCikcDtfdrxPOByfEAABoDu/l6HXkXM6LAagXOVd7Y0B3WmB3AACcLxaLzfvw8Hq9DX14bNy4cd62rVu3NhgZYJ2JiYnC/Xg8Xvfvv9frVSQSKft8NBqtqR8nnI9OiAGoVywWKySI0WhU/f39LevX7vPBCTEAAJrDezlAzuW0GIB6kXO1NwZ0Mbsv5QPgfHPng5dkRiKRhvqKx+MlL3dnoVQ4XX66hkZ/9/NKnU/SyQWDG3291eejE2IA6pHNZgtrleSnIwkEAi2ZesUJ54MTYgAANIf3coCcy2kxAPUg52p/DOheXEkHoKJUKqVUKjVve61TRNT6utkj5gCnSaVSymQycrvdCgQCTfVVblqHuSOyysVh9/nohBiAevn9fuVyOXk8noamVinHCeeDE2IAADSH93KAnMtpMQD1IudqbwzobhTpAFRU7nJrt9vdcJ+lXrtz586G+wPaLZFISCqf7NWj0pe4akmjE85HJ8QA1GNiYqJwDtc6xVGtnHA+OCEGAEBzeC8HyLmcFgNQD3Ku9seA7kaRDkBF+Q/Z2TweT1N9lnp9KpWqaVQbYIedO3fKMAz5fL6W9Fcuaaw2l7kTzkcnxADUKpPJKBgMSpIikUhTSVQpTjgfnBADAKA5vJcD5FxOiwGoFTmXNTGgu1GkA1BWJpMp+eGwfv36pvrdsGFDye27du1qql+gXcbGxlo6GqxUYlgtWXTC+eiEGIB6+P1+SSf/SNPstElzOeF8cEIMAIDm8F4OnETO5ZwYgHqQc7U/BnQ/inQAyio1UkSSBgYGmuq33GiTeDzeVL9Au/h8vobnGi+lv79/3rZqo82ccD46IQagVqOjo0qlUjIMo+VTrkjOOB+cEAMAoDm8lwMnkXM5JwagVuRc1sSA7keRDkBZ5T4Ymr10vdSXZUklF2EFutH09PS8bdXOKyecj06IAahFKpXS+Pi4JGnHjh1VR003wgnngxNiAAA0h/dyoD3IuRqPAagFORfnJFqHIh2Assp9MDT7wVvugyyTyTTVL9ApSv2uj4yMVHyNE85HJ8QA1CI/5YrP52vZuiZzOeF8cEIMAIDm8F4OtAc5V+MxALUg57IuBnQ/inQAyir3wdDsaJFKH2R8GKEXlPqSV21qFyecj06IAajG7/crk8nIMAzt2LGjbftxwvnghBgAAM3hvRxoD3KuxmMAqiHn4pxEa1GkA1BSqUVR88pdkl2Pch9GXNaNblfqdzwQCFT8guaE89EJMQDVxGIxxWIxSVI0Gm3LlCuSM84HJ8QAAGgO7+VAe5BzNR4DUA05l7UxoDdQpANQUqn52/Pa9QEM9IKdO3fO2zY6OlrxNU44H50QA1BJLpfTpk2bJJ38I0y1kdLNcML54IQYAADN4b0caA9yLqA9yLmsjwG9gSIdgJLsurS60gcg0A3yI87yAoFA1WkSnHA+OiEGoBK/369cLie3261IJNLWfTnhfHBCDACA5vBeDrQHOVfjMQCVkHNZHwN6A0U6ACVVuqS7FcpdFt7u/QJ2SiQSRV/yDMNQOByu+jonnI9OiAEoZ2JiQolEQtLJKVfazQnngxNiAAA0h/dyoPXIuZqLASiHnMueGNAbKNIBKMmuURtHjhyxZb+AFeYmhzt27KhpigQnnI9OiAEoJZPJKBgMSjp5jnk8nrbv0wnngxNiAAA0h/dyoPXIuZqLASiFnMu+GNAbKNIBKKkVC6BWwtzN6DWpVKow6kySfD6ffD5fTa91wvnohBiAUvx+vyTJ4/EoFApZsk8nnA9OiAEA0Bzey4HWIudqPgagFHIu+2JAb6BIB6Ckdn9QlLt0e9myZW3dL2CX/OLKkuR2u+uaHsIJ56MTYgDmGh0dVSqVkmTNlCt5TjgfnBADAKA5vJcDrUXO1XwMwFzkXPbGgN5AkQ5ASe0eLVIOo0jQjSYmJgpfag3DUDwer+v1TjgfnRADMFsqldL4+LgkKRKJyO12W7ZvJ5wPTogBANAc3suB1iHnak0MwGzkXPbHgN5AkQ5ASe3+QCg3r7OVH/iAFXK5XGHudknas2dP3b/nTjgfnRADMNvQ0JAkyev1KhAIWLpvJ5wPTogBANAc3suB1iDnal0MwGzkXPbHgN5AkQ5ASZVGi5S7HLvd+wU6Uf5LrXRyaohGFlh2wvnohBiAPL/fr1wuJ8MwLJ1yJc8J54MTYgAANIf3cqA1yLlaFwOQR87ljBjQGyjSASjJrnmXuaQb3SQYDBamXIlEIjUvWj6XE85HJ8QASFIsFlMsFpMk7dixw5bfESecD06IAQDQHN7LgeaRc7U2BkAi53JSDOgNi+wOAIBzeTyewpfd2TKZTEMj0/IqjTbhkm50i4mJCU1MTEg6mSw2OzWEE85HJ8SA3pbL5bRp0yZJJ38f3W53yd/JWmQymZLbyvXndruLkiUnnA9OiAEA0Bzey4HGkXO1Jwb0NnIuzklYjyIdgLK8Xm/JD6JycybXqtzrm/lwA5wkkUgU1kQIh8MtmbvdCeejE2JAb8tkMoVkJpVKaXBwsKX9zx4xOlc8HpfX6y08dsL54IQYAADN4b0caAw5V/tiQG8j5yrmhBjQ/ZjuEkBZGzZsKLm91EiYepR7/ewPYqBTZTIZ+f1+SVIoFFIoFGpJv044H50QA+AUTjgfnBADAKA5vJcD9SPnam8MgFM44XxwQgzofhTpAJRV7oMhnU431W+5S7qHh4eb6hewWy6X0+DgoHK5nAKBgMLhcMv6dsL56IQYAKdwwvnghBgAAM3hvRyoDzlX+2MAnMIJ54MTYkD3o0gHoCzDMEouVtroXNR5999/f8nt69evb6pfwE6zk0Wfz6dIJNLS/p1wPjohBsApnHA+OCEGAEBzeC8HakfOZU0MgFM44XxwQgzofhTpAFRUal73ycnJpvos9UHm8XhKfugBnSCfLGYyGfl8PkWj0bbsxwnnoxNiQO/yeDwyTbMlt1LTIoVCobLtS42gdML54IQYAADN4b0cqI6ci/cEWIOcaz4nxIDuRpEOQEX5hZhny+VyZS/LrkWpD7KRkZGG+wPsNjQ0pEwmI6/X25JkMZVKlTzHnHA+OiEGwCmccD44IQYAQHN4LweqI+fiPQG9yQnngxNiQHejSAegIrfbLY/HM297IpFoqL9MJlPyQ6zUqBSgEwwPDyuVSsnr9SoejzfdXy6X09DQUMkvbE44H50QA+AUTjgfnBADAKA5vJcDlZFzWR8D4BROOB+cEAO6G0U6AFWVGjGyc+fOhvqKxWLztgUCAS7nRkcaHh5WIpGQx+NpSbIoSZs2bVJ/f3/ZxYmdcD46IQbAKZxwPjghBgBAc3gvB0oj57IvBsApnHA+OCEGdC+XaZqm3UEAcL6lS5fOG+XRyNvHwMCAMplM0bZ0Oi23291MeIDl/H6/YrGY3G63kslkS75MBYNBTUxMKBwOl5y7Pc8J56MTYgCaMTo6qvHx8aJtoVBI4XC47r6ccD44IQYAQHN4LweKkXPZHwPQDHKu1seA7sSVdABqMjY2Nm/bxMREXX2kUql5H0KhUIgPIXScYDDYsmQxl8spkUhoeHi4cE5Vm+LACeejE2IAnMIJ54MTYgAANIf3cuAl5FzOiAFwCiecD06IAV3KBIAaeTweU1LhZhhGU693u91tihRon1AoVPR73Oqbz+erKQ4nnI9OiAFoVKlzORQKNdyfE84HJ8QAAGgO7+UAOZfTYgAaRc7VnhjQfbiSDkDNotFo0ei1XC6n0dHRml47MTGhVCpVtK1V88kDVhkfH583VUOrlZrnvBQnnI9OiAFwCiecD06IAQDQHN7L0evIuZwXA+AUTjgfnBADupDdVUIAnSWdTpuGYRSN+ohEIhVfE4/H542cicfjFkUMtEYkEmnraE41MILKCeejE2IAGtHqUZ2m6YzzwQkxAACaw3s5ehU5l3NjABpBztW+GNBdKNIBqFs6nZ53ebbP5zPT6XRRu2w2awYCgXlfiOe2A5wuGo22PVmUZIbD4bpjc8L56IQYgHq1I2E0TWecD06IAQDQHN7L0WvIuZwfA1Avci7OSdSGIh2AhkUikXkjRwzDMD0ej+l2u9vyQQzYwYpkUZKZzWYbjtEJ56MTYgBq1a6EMc8J54MTYgAANIf3cvQKcq7OiQGoFTkX5yRq4zJN0xQANCGRSCgajWpyclKZTEa5XE6GYai/v18ej0cjIyPyer1FczYDaA8nnI9OiAFwCiecD06IAQDQHN7LAedwwvnohBgAp3DC+eCEGNC5KNIBAAAAAAAAAAAAFltgdwAAAAAAAAAAAABAr6FIBwAAAAAAAAAAAFiMIh0AAAAAAAAAAABgMYp0AAAAAAAAAAAAgMUo0gEAAAAAAAAAAAAWo0gHAAAAAAAAAAAAWIwiHQAAAAAAAAAAAGAxinQAAAAAAAAAAACAxSjSAQAAAAAAAAAAABajSAcAAAAAAAAAAABYjCIdAAAAAAAAAAAAYDGKdAAAAAAAAAAAAIDFKNIBAAAAAAAAAAAAFqNIBwAAAAAAAAAAAFiMIh0AAAAAAAAAAABgMYp0AAAAAAAAAAAAgMUo0gEAAAAAAAAAAAAWo0gHAAAAAAAAAAAAWIwiHQAAAAAAAAAAAGAxinQAAAAAAAAAAACAxSjSAQAAAAAAAAAAABajSAcAAAAAAAAAAABYjCIdAAAAAAAAAAAAYDGKdAAAAAAAAAAAAIDFKNIBAAAAAAAAAAAAFqNIBwAAAAAAAAAAAFiMIh0AAAAAAAAAAABgMYp0AAAAAAAAAAAAgMUo0gEAAAAAAAAAAAAWo0gHAAAAAAAAAAAAWIwiHQAAAAAAAAAAAGAxinQAAAAAAAAAAACAxSjSAQAAAAAAAAAAABajSAcAAAAAAAAAAABYjCIdAAAAAAAAAAAAYDGKdAAAAAAAAAAAAIDFKNIBAAAAAAAAAAAAFqNIBwAAAAAAAAAAAFiMIh0AAAAAAAAAAABgMYp0AAAAAAAAAAAAgMUo0gEAAAAAAAAAAAAWo0gHAAAAAAAAAAAAWIwiHQAAAAAAAAAAAGAxinQAAAAAAAAAAACAxSjSAQAAAAAAAAAAABajSAcAQIdJpVIaHByUy+XS4OCgEomE3SGhjGAwKJfLVbgNDAy0pN9EIqHh4eGW9NUIv9+v8fFx2/YPAAAAtBM5V+cg5wLQ6SjSAQAgaXR0tOiLvVNuc+WTxVQqVXg8PDxM0uhQu3btKnrs8/ma7jMYDGp4eFiGYTTdV6PcbrdGR0c1ODioTCZjWxwAAADoHORcaAdyLgCdjiIdAAAdZOvWrSW3j46OWhwJqkmlUsrlckXbRkZGmupvYGBAExMTCofDikajTUbYuPz+8zHFYjHbYgEAAABaiZyrc5BzAegGi+wOAAAAJ5j7xb4UwzDU399fuD/7teVGthmGIbfbXXJfjYyGK/caRtY5TyQSKXpsGIY8Hk9DfcViMfn9fklSNBptyejQZvl8PsXjcQ0PD8vv9yscDisUCtkdFgAAAByKnAutRs4FoBtQpAMAoAzDMDQ2Niafzzcv6Zstk8mUnfd+48aN8xKH2XK5nCYnJxWNRjUxMVHy+dnJ6fr16wvTrsy2fv36CkcCO8yddiUQCDTUz+joaGEtAqcki3ler1fJZFKDg4MaHR3VkSNHFA6H7Q4LAAAAHYKcC80g5wLQDZjuEgAASdPT00WPfT6fstmsQqFQxWSxWYZhyOv1KhKJKJlMVp3zPhwOl2xTKSmF9Vo17UowGCwki5FIxFHJYp7H41E8HpckjY+Ps7g5AAAASiLnQiuRcwHoFhTpAACYw+Px2DL3vMfj0Z49e4q2zU1kDcPQ1NSUAoGAvF6vAoGA0ul0W5Na1G/nzp1FjxuZdmV0dLQw0jcUCjU8KtQKXq+3cM6Mjo6yXgIAAAAqIudCs8i5yLmAbsF0lwAAqHh9hB07dtgWh8fjkdfrVSKRKNvGMAxGcTrc3Gl06k32JiYmCqMjPR5PR0xn4vP55PP5Cms5JJPJhteDAAAAQPch50IrkXORcwHdgivpAACYxePx2P4ld3R0tHC/lsXV4SzNTruSyWQUDAYLj+0YYdyo2X9sGRoa4vcXAAAA85BzoVnkXCeRcwHdgSIdAAB6aYqTRuawbzWv11t1nQQ4V7PTrvj9/sL9dq/P0WqGYRRGoOZyOQ0NDdkcEQAAAJyCnAutQs5FzgV0E4p0AADopdGTTlkk2uv1Spq/PgKcb+60Kxs3bqz5taOjo0qlUoXHY2NjLYvLKrOnmUmlUixqDgAAAEnkXGgdci5yLqCbUKQDAOA/GIbhmBF0GzZskMTUK52m1LQrs6dRqfba2clVKBTqyNG9hmEUJY2jo6PKZDI2RgQAAACnIOdCs8i5yLmAbkORDgAASZFIRHv27LE7jIJAIKB4PF4Y3YnO0My0K7OnXJFqTzSdaPYaH1JnHwsAAABag5wLrUDOdRI5F9A9KNIBAKCTU53YvXj5bIZhsE5CB4rFYkWPa512JRaLFY189Hg8jhlh3Ai3210UfyKRUCKRsDEiAAAA2I2cC61AznUSORfQPSjSAQDQwTKZjILBoAYHBxvuI5FIKBgMaunSpRX3Mzo6qsHBQS1dulQul0sDAwPy+/11JQKxWEx+v39eP8FgsGhdgFaJxWIKBoMaGBgo7G/p0qUaHBxUMBhsaRKTSqXmTTEyd6RmOVu3bi16PDIy0rK4pJOxlfs5jI+Pt2WKn7lrjTCyEwAAAJ2InKv6/si5yLkANMEEAABNSafTpqSSt0Ag0JZ9RiIR0+PxFPbjdrvren0ymTQDgYBpGEZRvHNls1kzEAiUPb78zev1VtxfKBSq2ockMxQK1XUcpWSzWTMUCs07tnI3t9ttxuPxpvc79xgNw6jpdfF4fF5MyWSy6XhM8+Tv5tzfE5/PZ4ZCIdPn85lut7vwnM/nMyORiOnz+Uyfz9f0vpPJ5LzjasXPGQAAAL2HnIucq9QxknORcwHdgCIdAABNsiphzCd55ZKeSrLZrBmNRk2fz1cxkZotEonUnHTlE45SMc9OSmq5hcPhhn9G8Xi8KGaPx2MGAgEzEokUkqRyx9RskjT3OGv9v/d6vRX/Hxo1N2GLRCIl281NKlvxs8ir9w8LAAAAQCnkXORcpknOVQo5F9D5KNIBANCkdiaM2WzWDIfDVZOuagljPimplgDm9zk7iTEMozASMBQKzUsuyiUlkUikZB/hcHjeiMK5t3Q6XffPKhwOFyWKlfool3g3mig1OoIxm83Oe53H42kohtnS6XTR/3W5ZHG22f+vrUrsSv2uZLPZlvQNAACA3kHORc5FzlW9T3IuoDNRpAMAoEntTBjzoxA9Hk/FBKuWUZ15pZKb2UlOPtHwer1lpwCJRqMV48gnb4ZhmNFotGxc5aZkqTdxmx1PrcmOz+crue9GRpU2Ou3K7KS6Vb8zpll8bLVOyzP797hVCWOpxLyZUbsAAADoTeRc5FzkXKWRcwGdjyIdAABNsnJ9hFIJRj1JQV6lNQ8Mw6hpfv5yyV5+RKjH46lpBF+5WGo1NwGuddRgqRGV+Vu9o0obnXalVNLabEI197jq+R3M/1+0YmSpaZb+fW1V3wAAAOgd5FzkXORcpZFzAZ1vgQAAQMcIBAIyDKPpfgYHB0tuNwxDU1NT8ng8VfsIBoMltycSCbndbu3Zs6emWCv1Uwu/31+4Hw6Ha/75GIYhr9db8rlwOFxTH5KUyWSUyWTKxlRJqWN0u90177uUXbt2FT2u5/dldHS0qX3PVepYUqlUS/cBAAAAtBI513zkXMXIuQC0EkU6AAA6TLMJhST19/eX3L5jx46aEwy32102lmg0WnM/5ZLTWhKLWCxWlKz5fL6a9plXLrGbmJiouY9IJDJvW7lEdLZMJqNcLjdve7P/v+l0uuhxPQma2+2Wx+MpGVcjyv2ekTQCAADAyci5XkLONR85F4BWokgHAECHKfclvB7lkrl6R4yWS25qGRVarZ+5iU8ps0chVkpgy6mU2NWa1MRisaLHtSat5fpvNmGcm+wlEol5o04rGRkZaWr/s5U7lsnJyZbtAwAAAGg1cq6XkHPNR84FoJUo0gEAgIa1YoSpVDpRrZbkpFKpojb1JqlS5fhrmfql1LQr5aaSKfXaUpqdWmdgYGDetlqngpFqG5Faq3LHUssfAwAAAACQc5FzVUbOBXQ+inQAAKBhrVirQSo9UnV6erria+YmdLFYTC6Xq+5bObUkNY1OuyJJR44cqaldvUolzqlUSgMDAzWN7vR4PC1N6Er9jrRqahcAAACg25FzkXNVQ84FdDaKdAAAwJGqJRU7d+5s6/5rmR6k0WlXpPYlTevXry+5PZPJaGBgoOULlTei2h8DAAAAALQfOVdjyLkAtBJFOgAA0JHmri8QCoWUzWZbdtuzZ0/F/ZeadqWetQVKjbBsxShZwzAUCoXKPj8+Pq6BgYGappZphVIjdhnVCQAAADgfOVdp5FwAWmmR3QEAAADUq1zC0aqpYGoxd0SnVN+oznaObAyHw0okEmUXSs9kMhoeHpbP59OOHTss/bnl9w8AAADAuci5KiPnAtAqXEkHAAA6jhOm7pi7NkI9yaIV9uzZU3WR+VgspqVLl2p8fLxtcZRKRp3w/wcAAACgPCd8Zyfnqg05F9DZKNIBAICOU2pUoJUjBZuddkUqPSVJKxmGoWQyWXJR87lGR0drXuS8XqVG4Lb72AEAAAA0h5yrOnIuAK1AkQ4AAHScUkmIlQljs9OuSKVHO7Z63YB80lhpvYS8/CLnExMTLY2hlGqjTQEAAADYi5yr9n2QcwFoBkU6AADQcUolW+XWAmiHVky7YmXSFA6HlUwma9pnMBjU6Ohoy/ZdapoVq9djAAAAAFAfcq76kHMBaBRFOgAA0HHKTd2RSCTavu9WTLsiScuWLWtVSDXxeDxKp9MKh8NV246Pj7d1zQSmXgEAAACcjZyrfuRcABpBkQ4AAHSccqMCo9Fo2/fdimlXpPLH0OrpV+YKhULKZrMKBAIV242OjrYkllJ9MKoTAAAAcDZyrsaRcwGoB0U6AADQccpNIbJr166W7SOVSml4eHje9p07dxY9biRZlMofgxXrPBiGoUgkUnU6lq1btza1n3IJ54YNG5rqFwAAAEB7kXM1h5wLQK0o0gEAgI7k8Xjmbcvlci2bfsXv98/blslk5q3D0Mi0K5K0fv36kttLrSdQj9HR0ZKxl5KfjqXcCM9SI1jrUe5YvF5vU/0CAAAAaD9yrtLIuQC0EkU6AADQkcolXMFgsOm+g8GgMpnMvMW8WzXtinRyZGWpEZWtGNVZ74LukUik5HE0G0up17vdbqZeAQAAADoAOVd55FwAWoUiHQAA6EjlRi6WSvTqEYvFNDExIY/HM2/04dxpV5odnVgqSUsmk031KZVeaL2aHTt2NL3fUnHMxYhOAAAAoDOQc5VHzgWgVSjSAQDQpEoLPTc7jUatrNpPrdq9ELd0MvEoNzpwfHy8oWlDEolEIRGdm0CVmnal2RGkpaZtmZycbKrPvHqP3zCMlidzpZLfUmtOAAAAAJWQc81HzlUbci4ATkeRDgCAJjktWauFFQmdFcrN6y+dHPU5MTFRc18TExOFZMbn881bf6FUAtZsguXxeOYlvfVOm1LO3BGotZg7FUyzx1cq+WVUJwAAAOpFzmUfcq7yyLkAtAJFOgAAmlRpiotWffmvtr96E8BWJbnl9ltv/6Xa19JHOBwuucZAXjAY1PDwcMWFzWOxmAYGBgojNN1ut6LR6Lx2paZdacU8/2NjY/O2tWqNhHoXdJ+731oXQ68Uw2yBQIC1EQAAAFA3cq7m+yfnKkbOBcApKNIBANCkUslFXiPz1FdTrr969pNOp5vuo1L7ZhMVqfYkOBKJVHw+kUhoeHhYS5cu1eDgoILBoPx+vwYHB+VyueT3+wv7NwxD8Xi8ZHxzk59mk6m8UiNT6/35lVPv1DCzR2G63e6Ko2arKfXHkmbWrQAAAEDvIueaj5yrduRcAJyMIh0AAE2YmJio+uXe7/e3bKqTSlOJVEucaumnUvI7VyaTKXvs4XC45n5isVjZn08tU6d4vd6ajj2XyymVSmliYkKxWGxeQmMYhpLJZMlRoqWmXdm4cWPVfdbCMIx5iVk9/w+VZDKZmtcjGB0dLfp/aDaGUqNgK43ABQAAAEoh5yLnahY5FwBHMwEAQE2y2awZjUbNSCRiBgIB0+12m5Jqvvl8PjMcDpvRaNSMx+N17Tcej5uBQKCmfcTjcTObzc7rJ51Om9FotGrcXq+3bB/5fsLhsGkYRsV+3G63GY1GzXQ6XfKYkslkTccUDodL9jFXJBKp6/9j7jGXO17TNE2PxzOvfStls9l5P89GhUKhecfn8XjMZDJZ02sMw6jr97Ocub9nregTAAAA3Y2c66V+yLnIuaoh5wK6g8s0TVMAAKCqiYmJuqeyqKSWj2CXy9Vw/x6PR8lksql+ZvfRTD9ut7sw3Usul9PSpUsb6icSiVScDiSTySgYDNY8dYnb7VY4HJbP5yvbplS81eJoxPj4eNHUJI3uY3R0VOPj43K73YVRlJOTk8rlcnK73fJ6vRoYGNCRI0cKI3PzoznzI2SbHX2ZSqU0ODhYeOz1ektOaQMAAADMRs5FzlVrHI0g5wLgRBTpAABA18lkMorFYorH40VrVBiGUUiahoeH5fV6q/Y1N5GTpGw225bFuAcHBwtTwsxN1muVnyZmbhI8+2eSTyANw1B/f7+8Xq+CwaA8Hk/zB6GT0w3l4zAMQ1NTUyxeDgAAAHQRci5yLgCtQZEOAADAITKZjAYGBgqPk8lky5I4q8w9hmg0WnHULAAAAABYhZwLgNMssDsAAAAAnOR2u4sWZJ87mrQTzI7Z5/ORLAIAAABwDHIuAE7DlXQAAAAOEwwGNTExIamzRkUmEgkNDw9LYsoVAAAAAM5FzgXAKSjSAQAAOFB+rYROSbxyuZxWrlxZWBC9E6eNAQAAANA7yLkAOAHTXQIAADjQnj175Ha7lcvl5Pf77Q6nKr/fX0gW4/E4ySIAAAAARyPnAuAEFOkAAAAcyDAMxeNxGYahRCLh6KTR7/crkUhIOpkser1emyMCAAAAgMrIuQA4AUU6AAAAh3K73UomkzIMQ7FYTMFg0O6Q5gkGg4rFYjIMQ8lkkmQRAAAAQMcg5wJgN4p0AAAADpZPGt1utyYmJhw1utPv92tiYkIej4f1EAAAAAB0JHIuAHZymaZp2h0EAAAAqvP7/YrFYvJ4PNqzZ49tC5vncjkNDQ0plUopEAgoEonYEgcAAAAAtBI5FwCrUaQDAADoIBMTEwoGgzIMQ9ls1pYYBgYGND09rWg0ylQrAAAAALoKORcAK1GkAwAA6DC5XE6JREI+n8+W/cdiMdv2DQAAAADtRs4FwCoU6QAAAAAAAAAAAACLLbA7AAAAAAAAAAAAAKDXUKQDAAAAAAAAAAAALEaRDgAAAAAAAAAAALAYRToAAAAAAAAAAADAYhTpAAAAAAAAAAAAAItRpAMAAAAAAAAAAAAsRpEOAAAAAAAAAAAAsBhFOgAAAAAAAAAAAMBiFOkAAAAAAAAAAAAAi1GkAwAAAAAAAAAAACxGkQ4AAAAAAAAAAACwGEU6AAAAAAAAAAAAwGIU6QAAAAAAAAAAAACLUaQDAAAAAAAAAAAALEaRDgAAAAAAAAAAALAYRToAAAAAAAAAAADAYhTpAAAAAAAAAAAAAItRpAMAAAAAAAAAAAAsRpEOAAAAAAAAAAAAsBhFOgAAAAAAAAAAAMBiFOkAAAAAAAAAAAAAi1GkAwAAAAAAAAAAACxGkQ4AAAAAAAAAAACwGEU6AAAAAAAAAAAAwGIU6QAAAAAAAAAAAACLUaQDAAAAAAAAAAAALEaRDgAAAAAAAAAAALAYRToAAAAAAAAAAADAYhTpAAAAAAAAAAAAAItRpAMAAAAAAAAAAAAsRpEOAAAAAAAAAAAAsBhFOgAAAAAAAAAAAMBi/x+JIIHd+x17NwAAAABJRU5ErkJggg==;" vertex="1" parent="7P3BtU3eOJ7ZP83Uyh86-1">
          <mxGeometry x="950" y="300" width="1251.3" height="510" as="geometry" />
        </mxCell>
        <mxCell id="7P3BtU3eOJ7ZP83Uyh86-4" value="" style="line;strokeWidth=5;html=1;dashed=1;strokeColor=#FF6666;rotation=-79;" vertex="1" parent="7P3BtU3eOJ7ZP83Uyh86-1">
          <mxGeometry x="1046.38" y="521.34" width="248.4" height="10" as="geometry" />
        </mxCell>
        <mxCell id="7P3BtU3eOJ7ZP83Uyh86-5" value="" style="line;strokeWidth=3;html=1;dashed=1;strokeColor=#4D4D4D;rotation=-90;dashPattern=1 1;" vertex="1" parent="7P3BtU3eOJ7ZP83Uyh86-1">
          <mxGeometry x="1068.44" y="525.96" width="254.79" height="10" as="geometry" />
        </mxCell>
        <mxCell id="7P3BtU3eOJ7ZP83Uyh86-6" value="" style="line;strokeWidth=3;html=1;dashed=1;strokeColor=#4D4D4D;rotation=0;dashPattern=1 1;" vertex="1" parent="7P3BtU3eOJ7ZP83Uyh86-1">
          <mxGeometry x="1130" y="400" width="349.59" height="10" as="geometry" />
        </mxCell>
        <mxCell id="7P3BtU3eOJ7ZP83Uyh86-7" value="" style="line;strokeWidth=5;html=1;dashed=1;strokeColor=#FF6666;rotation=-100;" vertex="1" parent="7P3BtU3eOJ7ZP83Uyh86-1">
          <mxGeometry x="1654" y="517.52" width="248.4" height="10" as="geometry" />
        </mxCell>
        <mxCell id="7P3BtU3eOJ7ZP83Uyh86-8" value="" style="line;strokeWidth=3;html=1;dashed=1;strokeColor=#4D4D4D;rotation=-90;dashPattern=1 1;" vertex="1" parent="7P3BtU3eOJ7ZP83Uyh86-1">
          <mxGeometry x="1670" y="511.34" width="257.91" height="10" as="geometry" />
        </mxCell>
        <mxCell id="7P3BtU3eOJ7ZP83Uyh86-9" value="" style="line;strokeWidth=3;html=1;dashed=1;strokeColor=#4D4D4D;rotation=0;dashPattern=1 1;" vertex="1" parent="7P3BtU3eOJ7ZP83Uyh86-1">
          <mxGeometry x="1740" y="640" width="349.59" height="10" as="geometry" />
        </mxCell>
      </root>
    </mxGraphModel>
  </diagram>
</mxfile>
